<svg width="113" height="192" viewBox="0 0 113 192" fill="none" xmlns="http://www.w3.org/2000/svg">
<path d="M58.4326 174.876C59.2198 175.613 59.9923 176.372 60.7758 177.116C60.7721 176.368 60.7721 175.624 60.7721 174.876C59.9923 174.872 59.2087 174.872 58.4326 174.876ZM19.0379 173.383V174.128C20.6087 174.344 22.1795 174.557 23.7502 174.784C24.3859 174.868 25.0438 174.949 25.6684 174.751C27.3204 174.293 28.9799 173.845 30.632 173.38C30.632 173.196 30.632 172.822 30.632 172.639C26.7587 172.687 22.9039 173.156 19.0379 173.383ZM79.222 162.108C78.2796 162.595 77.2559 162.903 76.2025 163.002C76.2025 163.241 76.2062 163.476 76.2099 163.714C79.8134 163.956 83.4206 164.202 87.0241 164.462C86.7802 161.987 86.5141 159.519 86.2591 157.048C84.0415 158.899 81.824 160.806 79.222 162.108ZM104.362 0.516541C105.43 -0.015152 106.823 -0.290176 107.858 0.461533C109.392 1.56892 109.968 3.48672 110.452 5.22115C111.576 9.80472 111.665 14.557 111.753 19.2505C111.809 20.5779 111.195 21.8063 111.018 23.1044C111.45 27.3506 112.09 31.5785 112.5 35.8248C112.289 41.5341 111.975 47.2433 111.757 52.9527C111.739 56.3115 111.765 59.6703 111.746 63.0329C111.554 66.2927 111.218 69.5452 111.014 72.8087C111.144 75.0712 111.421 77.3263 111.609 79.5887C111.886 81.8952 111.661 84.2236 111.484 86.5264C110.563 95.8402 107.71 104.85 104.177 113.485C103.682 114.989 103.456 116.569 103.083 118.102C100.669 129.436 98.5258 140.884 97.9381 152.471C97.9123 154.103 97.7053 155.753 98.0194 157.37C98.596 160.758 99.2871 164.154 100.533 167.373C101.457 169.632 102.828 172.452 105.615 172.679C106.867 173.926 108.209 175.096 109.414 176.39C109.447 177.534 109.492 178.689 109.373 179.83C109.081 181.047 107.887 181.733 106.812 182.195C104.362 183.181 101.704 183.493 99.0913 183.764C98.3225 183.871 97.6166 183.478 96.9587 183.145C93.9465 181.439 91.6699 178.788 89.286 176.357C88.3547 176.038 88.0146 177.457 87.0796 177.094C83.7459 175.95 80.4713 174.634 77.145 173.457C76.3282 173.295 75.4855 173.394 74.6613 173.376C74.6613 174.37 74.6576 175.363 74.6613 176.361C77.3261 178.546 80.0389 180.875 81.6466 183.97C82.4929 185.59 82.8219 187.842 81.3879 189.246C79.3995 191.16 76.4982 191.589 73.8778 191.996C73.6154 191.732 73.3567 191.472 73.1016 191.212C71.7748 191.285 70.5108 191.721 69.2246 192C67.1993 191.025 65.148 189.793 63.9728 187.82C63.3592 186.837 63.119 185.689 63.0451 184.556C58.9094 187.094 54.0308 188.271 49.1928 188.282C47.5592 185.528 45.6595 182.738 42.8174 181.098C41.7271 180.46 40.4853 180.156 39.2361 180.061C38.848 181.142 37.8575 181.795 36.9002 182.342C34.0359 183.896 30.9202 184.93 27.8305 185.939C26.0712 186.151 24.264 186.071 22.5195 185.733C17.6409 184.897 12.7364 183.808 8.24957 181.678C5.57373 180.376 2.93115 178.601 1.49714 175.925C0.0557353 173.27 0.129668 169.76 2.02936 167.34C3.94384 164.88 6.90795 163.545 9.80185 162.577C15.0316 160.909 20.5348 160.34 25.9899 159.988C25.2286 151.133 24.4635 142.277 23.7022 133.418C23.6578 126.235 24.1642 119.03 25.3949 111.945C26.9841 102.84 29.8891 93.8528 34.8601 85.9874C40.2635 77.3116 48.3576 70.3409 57.7525 66.212C61.3708 64.9983 65.1369 63.8102 68.1528 61.3901C68.7109 60.8877 69.7088 60.1874 69.1101 59.344C66.6264 56.0402 64.1206 52.7217 62.1987 49.0548C61.4706 47.5587 60.7056 45.9783 60.7684 44.2732C60.7943 42.1794 60.7351 40.0856 60.7943 37.9919C61.0012 37.6875 61.2784 37.4455 61.5335 37.1815C59.205 31.9599 57.0614 26.6429 55.4796 21.1463C54.5038 17.6408 53.7277 14.0363 53.8053 10.3804C54.3338 9.90004 54.8438 9.405 55.3465 8.89897C57.2462 9.24365 58.8502 10.4024 60.4653 11.3888C64.7119 14.1903 68.7146 17.3328 72.6951 20.49C73.3086 21.0877 74.24 20.7649 75.005 20.7943C79.6027 20.3799 84.2633 19.9106 88.6503 18.3888C90.1213 17.8205 91.6736 17.1384 92.6345 15.8404C93.1741 15.1583 93.0854 14.216 93.5659 13.5046C95.4323 10.4208 97.3912 7.38455 99.69 4.60873C101.057 3.05399 102.499 1.48825 104.362 0.516541Z" fill="#9C84B6"/>
</svg>
