<svg width="26" height="21" viewBox="0 0 26 21" fill="none" xmlns="http://www.w3.org/2000/svg">
<path d="M13.1701 4.99314L11.4745 5.10799C10.3782 3.80635 7.30584 0.526733 4.24624 0.526733C4.24624 0.526733 1.73482 4.30404 4.19525 9.3447C3.49409 10.4039 3.06065 10.9526 2.97141 12.216L0.510986 12.586L0.778701 13.8366L3.0224 13.5048L3.20088 14.4109L1.1994 15.6104L1.79857 16.7462L3.64707 15.6104C5.11313 18.7242 8.82289 20.3065 13.1701 20.3065C17.5172 20.3065 21.227 18.7242 22.693 15.6104L24.5416 16.7462L25.1407 15.6104L23.1392 14.4109L23.3177 13.5048L25.5614 13.8366L25.8291 12.586L23.3687 12.216C23.2795 10.9526 22.846 10.4039 22.1449 9.3447C24.6053 4.30404 22.0939 0.526733 22.0939 0.526733C19.0343 0.526733 15.9619 3.80635 14.8656 5.10799L13.1701 4.99314ZM9.34557 8.82149C9.68367 8.82149 10.0079 8.95594 10.247 9.19526C10.4861 9.43457 10.6204 9.75916 10.6204 10.0976C10.6204 10.4361 10.4861 10.7606 10.247 11C10.0079 11.2393 9.68367 11.3737 9.34557 11.3737C9.00746 11.3737 8.6832 11.2393 8.44413 11C8.20505 10.7606 8.07074 10.4361 8.07074 10.0976C8.07074 9.75916 8.20505 9.43457 8.44413 9.19526C8.6832 8.95594 9.00746 8.82149 9.34557 8.82149ZM16.9946 8.82149C17.3327 8.82149 17.6569 8.95594 17.896 9.19526C18.1351 9.43457 18.2694 9.75916 18.2694 10.0976C18.2694 10.4361 18.1351 10.7606 17.896 11C17.6569 11.2393 17.3327 11.3737 16.9946 11.3737C16.6564 11.3737 16.3322 11.2393 16.0931 11C15.854 10.7606 15.7197 10.4361 15.7197 10.0976C15.7197 9.75916 15.854 9.43457 16.0931 9.19526C16.3322 8.95594 16.6564 8.82149 16.9946 8.82149ZM11.8952 12.6498H14.4449L13.5525 14.4236C13.8075 15.2404 14.5214 15.8401 15.401 15.8401C15.9082 15.8401 16.3946 15.6385 16.7532 15.2795C17.1118 14.9205 17.3133 14.4336 17.3133 13.926H17.9507C17.9507 14.6028 17.6821 15.252 17.2039 15.7307C16.7257 16.2093 16.0772 16.4782 15.401 16.4782C14.4449 16.4782 13.6163 15.955 13.1701 15.2021C12.7239 15.955 11.8952 16.4782 10.9391 16.4782C10.2629 16.4782 9.61438 16.2093 9.13622 15.7307C8.65807 15.252 8.38944 14.6028 8.38944 13.926H9.02686C9.02686 14.4336 9.22833 14.9205 9.58694 15.2795C9.94556 15.6385 10.4319 15.8401 10.9391 15.8401C11.8187 15.8401 12.5326 15.2404 12.7876 14.4236L11.8952 12.6498Z" fill="black"/>
</svg>
