<svg width="60" height="60" viewBox="0 0 60 60" fill="none" xmlns="http://www.w3.org/2000/svg">
<path d="M1.40039 15.5H58.6004V35.2H1.40039V15.5Z" fill="#FFCE31"/>
<path d="M10.7004 35.1H1.40039L10.0004 15.5H19.3004L10.7004 35.1Z" fill="#3E4347"/>
<path d="M21.0996 35.1L29.1996 15.5H38.8996L30.7996 35.1" fill="#3E4347"/>
<path d="M40.7012 35.1L48.8012 15.5H58.6012L50.5012 35.1" fill="#3E4347"/>
<path d="M9.40039 8.8999H13.2004V14.9999H9.40039V8.8999Z" fill="#94989B"/>
<path d="M10.3008 8.8999H12.2008V14.9999H10.3008V8.8999Z" fill="#D0D0D0"/>
<path d="M11.1996 13.2C14.8447 13.2 17.7996 10.2451 17.7996 6.6C17.7996 2.95492 14.8447 0 11.1996 0C7.55453 0 4.59961 2.95492 4.59961 6.6C4.59961 10.2451 7.55453 13.2 11.1996 13.2Z" fill="#94989B"/>
<path d="M11.1996 12.2C14.2924 12.2 16.7996 9.69279 16.7996 6.6C16.7996 3.50721 14.2924 1 11.1996 1C8.10681 1 5.59961 3.50721 5.59961 6.6C5.59961 9.69279 8.10681 12.2 11.1996 12.2Z" fill="#D0D0D0"/>
<path d="M11.2 11.2999C13.7957 11.2999 15.9 9.19564 15.9 6.5999C15.9 4.00416 13.7957 1.8999 11.2 1.8999C8.60426 1.8999 6.5 4.00416 6.5 6.5999C6.5 9.19564 8.60426 11.2999 11.2 11.2999Z" fill="#ED4C5C"/>
<path d="M46.9004 8.8999H50.7004V14.9999H46.9004V8.8999Z" fill="#94989B"/>
<path d="M47.8008 8.8999H49.7008V14.9999H47.8008V8.8999Z" fill="#D0D0D0"/>
<path d="M48.7992 13.2C52.4443 13.2 55.3992 10.2451 55.3992 6.6C55.3992 2.95492 52.4443 0 48.7992 0C45.1541 0 42.1992 2.95492 42.1992 6.6C42.1992 10.2451 45.1541 13.2 48.7992 13.2Z" fill="#94989B"/>
<path d="M48.7992 12.2C51.892 12.2 54.3992 9.69279 54.3992 6.6C54.3992 3.50721 51.892 1 48.7992 1C45.7064 1 43.1992 3.50721 43.1992 6.6C43.1992 9.69279 45.7064 12.2 48.7992 12.2Z" fill="#D0D0D0"/>
<path d="M48.7996 11.2999C51.3953 11.2999 53.4996 9.19564 53.4996 6.5999C53.4996 4.00416 51.3953 1.8999 48.7996 1.8999C46.2039 1.8999 44.0996 4.00416 44.0996 6.5999C44.0996 9.19564 46.2039 11.2999 48.7996 11.2999Z" fill="#ED4C5C"/>
<path d="M9.40039 35.6001H13.2004V60.0001H9.40039V35.6001Z" fill="#94989B"/>
<path d="M10.3008 35.6001H12.2008V60.0001H10.3008V35.6001Z" fill="#D0D0D0"/>
<path d="M15 60H7.5C7.5 60 9.4 57.5 9.4 56.7H13.2C13.1 57.5 15 60 15 60Z" fill="#3E4347"/>
<path d="M46.9004 35.6001H50.7004V60.0001H46.9004V35.6001Z" fill="#94989B"/>
<path d="M47.8008 35.6001H49.7008V60.0001H47.8008V35.6001Z" fill="#D0D0D0"/>
<path d="M52.5 60H45C45 60 46.9 57.5 46.9 56.7H50.7C50.6 57.5 52.5 60 52.5 60" fill="#3E4347"/>
<path d="M5.90039 42.2H54.0004V46H5.90039V42.2Z" fill="#94989B"/>
<path d="M7.5 43.1001H52.5V45.0001H7.5V43.1001Z" fill="#D0D0D0"/>
<path d="M11.2 44.7999C11.5866 44.7999 11.9 44.4865 11.9 44.0999C11.9 43.7133 11.5866 43.3999 11.2 43.3999C10.8134 43.3999 10.5 43.7133 10.5 44.0999C10.5 44.4865 10.8134 44.7999 11.2 44.7999Z" fill="#3E4347"/>
<path d="M48.7996 44.7999C49.1862 44.7999 49.4996 44.4865 49.4996 44.0999C49.4996 43.7133 49.1862 43.3999 48.7996 43.3999C48.413 43.3999 48.0996 43.7133 48.0996 44.0999C48.0996 44.4865 48.413 44.7999 48.7996 44.7999Z" fill="#3E4347"/>
<path d="M59.1 15H0.9C0.4 15 0 15.4 0 15.9V34.7C0 35.2 0.4 35.6 0.9 35.6H59C59.5 35.6 59.9 35.2 59.9 34.7V15.9C60 15.4 59.6 15 59.1 15ZM58.1 32.8C58.1 33.3 57.7 33.7 57.2 33.7H2.8C2.3 33.7 1.9 33.3 1.9 32.8V17.8C1.9 17.3 2.3 16.9 2.8 16.9H57.2C57.7 16.9 58.1 17.3 58.1 17.8V32.8" fill="#D0D0D0"/>
<path d="M59.1 15.5C59.4 15.5 59.6 15.7 59.6 16V34.8C59.6 35.1 59.4 35.3 59.1 35.3H0.9C0.6 35.3 0.4 35.1 0.4 34.8V15.9C0.4 15.6 0.6 15.4 0.9 15.4H59.1V15.5ZM2.8 34.2H57.2C58 34.2 58.6 33.6 58.6 32.8V17.8C58.6 17 58 16.4 57.2 16.4H2.8C2 16.4 1.4 17 1.4 17.8V32.8C1.4 33.6 2 34.2 2.8 34.2ZM59.1 15H0.9C0.4 15 0 15.4 0 15.9V34.7C0 35.2 0.4 35.6 0.9 35.6H59C59.5 35.6 59.9 35.2 59.9 34.7V15.9C60 15.4 59.6 15 59.1 15ZM2.8 33.8C2.3 33.8 1.9 33.4 1.9 32.9V17.9C1.9 17.4 2.3 17 2.8 17H57.2C57.7 17 58.1 17.4 58.1 17.9V32.9C58.1 33.4 57.7 33.8 57.2 33.8H2.8Z" fill="#94989B"/>
</svg>
