<svg width="95" height="80" viewBox="0 0 95 80" fill="none" xmlns="http://www.w3.org/2000/svg">
<path d="M59.1451 79.056C57.4564 78.7615 56.737 78.433 56.0384 77.6374L55.452 76.9694L55.5692 75.4103C55.6755 73.998 55.644 73.7503 55.2345 72.7803C54.8823 71.9461 54.8205 71.6092 54.9548 71.2559C55.0496 71.0064 55.1738 70.1431 55.2306 69.3374C55.3196 68.0762 55.2809 67.7637 54.9521 67.0899C54.4128 65.9848 53.5344 65.4407 52.1469 65.3523C50.014 65.2165 49.3263 66.0687 48.9812 69.2752C48.8672 70.334 48.6516 71.3743 48.4881 71.6538C47.8743 72.7032 46.2985 73.4061 43.5506 73.8563C42.6438 74.0049 41.6393 74.1692 41.3182 74.2215C40.9972 74.2737 40.7345 74.3926 40.7345 74.4856C40.7345 74.5869 42.2647 74.6435 44.5513 74.6266C47.1815 74.6073 48.5767 74.6679 49.0389 74.8216C49.9453 75.1231 50.4337 75.7823 50.4337 76.7044C50.4337 77.3316 50.34 77.5183 49.8147 77.9374C49.3807 78.2837 48.9887 78.4314 48.5035 78.4314C48.1228 78.4314 47.7293 78.5134 47.6292 78.6136C47.506 78.7368 46.9561 78.6984 45.9318 78.4951C43.8051 78.0731 41.5822 78.1144 39.2077 78.6201C36.0869 79.2847 32.0412 79.0831 28.0264 78.0629C25.4602 77.4109 25.2036 76.8598 26.3562 74.4764C26.9258 73.2985 27.0836 72.7655 27.0836 72.0196C27.0836 71.1703 27.0426 71.0671 26.7046 71.0671C26.4802 71.0671 25.7471 71.6112 24.9086 72.4001C22.2021 74.9461 19.8842 76.045 16.8455 76.2227C15.6115 76.2948 14.9338 76.2226 13.3111 75.8449C10.1506 75.1098 8.54388 75.2764 7.06898 76.4921C6.33289 77.0989 5.82549 78.057 5.99975 78.5112C6.29108 79.2704 3.73864 78.528 1.94931 77.3331C-0.635317 75.6072 -0.421304 73.8383 2.54311 72.4249C4.34073 71.5678 6.58302 70.9118 12.9838 69.3703C18.9129 67.9424 19.9664 67.6307 21.5196 66.8449C24.6053 65.2836 26.2366 63.1496 27.9718 58.4042C29.5911 53.9762 29.8179 53.4006 30.4918 52.0093C30.8557 51.2582 31.7019 49.8066 32.3723 48.7834C35.9764 43.2826 38.492 40.9864 44.676 37.5526C48.1301 35.6347 49.5175 34.0617 50.164 31.3306C50.3106 30.7112 50.5552 28.8709 50.7076 27.2408C51.0291 23.8026 51.3604 21.8279 51.972 19.7048C52.2206 18.8415 52.4092 17.7172 52.4088 17.1003C52.4074 15.8936 52.0162 13.309 51.6045 11.7938C51.4569 11.2505 51.3351 10.609 51.3339 10.3682L51.3318 9.93053L51.8576 10.4342C52.1468 10.7113 52.4799 11.171 52.5979 11.4557C52.9846 12.3894 53.128 12.0031 53.128 10.0276C53.128 8.95742 53.179 8.03076 53.2414 7.96838C53.7516 7.45821 55.8838 10.5637 56.9142 13.3175C57.4688 14.7999 57.9135 14.9306 60.2353 14.2936C62.2021 13.754 63.2107 13.7944 64.6234 14.4691C65.6305 14.9501 65.9883 15.0264 67.2278 15.0245C68.1544 15.0231 69.0692 14.8955 69.8034 14.6654C70.4296 14.4691 71.2032 14.3085 71.5226 14.3085C71.842 14.3085 72.494 14.1754 72.9715 14.0126C73.7971 13.7314 73.8517 13.7331 74.0812 14.047C74.3359 14.3953 74.4043 16.0107 74.2063 17.0009C73.9628 18.2183 72.5162 19.2009 69.473 20.216C67.3887 20.9113 66.1501 21.5265 66.1501 21.8666C66.1501 22.962 70.9389 23.0744 72.4011 22.0134L72.9044 21.6481L73.2674 22.1095C73.4669 22.3632 73.7428 22.5708 73.8803 22.5708C74.0179 22.5708 74.2121 22.7235 74.3119 22.91C74.4512 23.1702 74.4002 23.3876 74.0931 23.8433C73.5186 24.6959 72.8032 25.0455 70.9852 25.3621C67.4747 25.9735 66.6724 26.4363 66.1659 28.142C65.5506 30.2138 65.7327 31.2187 67.5002 35.5032C69.7625 40.9872 70.7053 46.2795 69.902 48.9867C69.2782 51.0894 68.416 52.3228 66.2921 54.1508C65.0953 55.1808 64.9948 55.3241 64.792 56.2906C64.51 57.6341 64.693 63.5067 65.0678 65.1398C65.2151 65.782 65.4958 67.4389 65.6914 68.8219C66.1432 72.0157 66.2363 72.4846 66.5369 73.0825C66.8562 73.7178 67.2975 73.9401 68.6072 74.1252C70.2666 74.3597 70.9746 75.0178 71.1173 76.4585L71.1794 77.0843L69.024 77.2235C67.8385 77.3002 66.5577 77.327 66.1778 77.2833L65.487 77.2037L65.6099 77.8624C65.6774 78.2248 65.7458 78.5952 65.7618 78.6857C65.8493 79.1799 61.3118 79.4339 59.1451 79.056ZM63.0041 73.9859C63.0027 73.1215 62.942 72.3245 62.8694 72.2148C62.7968 72.1051 62.4545 71.8715 62.1088 71.6958C61.2779 71.2734 61.2167 71.1544 61.2134 69.9534C61.212 69.3902 61.1147 68.5011 60.9974 67.9776L60.784 67.0258L60.6534 67.8766C60.5815 68.3445 60.3774 69.1527 60.1999 69.6727C59.7379 71.0257 59.7718 73.2276 60.2718 74.3476C60.6945 75.2943 61.0803 75.5288 62.2435 75.5461L63.0068 75.5576L63.004 73.9859L63.0041 73.9859Z" fill="#E7717D" fill-opacity="0.0666667"/>
<path d="M81.0954 74.3573L80.0551 73.8825L79.783 74.2709C79.5183 74.6489 79.4055 74.6594 75.5947 74.6594H71.6785L71.0233 74.0415C70.5414 73.587 70.143 73.3926 69.5164 73.306C67.2994 72.9998 67.2545 72.9434 66.8493 69.9501C66.6985 68.8356 66.3832 66.873 66.1486 65.5888C65.7481 63.3959 65.5698 60.2221 65.6699 57.07L65.7009 56.0951L67.3975 54.4965C69.2332 52.7668 69.9522 51.7892 70.5619 50.1942C70.9009 49.3075 71.0662 49.1111 71.785 48.7405C72.9533 48.1381 73.7836 46.8881 73.7836 45.7312C73.7836 44.6409 72.7673 41.4949 71.9885 40.1745C71.2953 38.9994 71.0525 38.4023 71.1823 38.1922C71.2349 38.1072 71.6598 38.1535 72.1266 38.2951C73.2751 38.6436 73.2772 38.6429 73.1431 37.9279C73.0003 37.1669 73.1455 37.1522 73.9564 37.8454C74.6613 38.4479 75.0659 38.5117 75.423 38.0767C75.5586 37.9116 76.2698 37.4984 77.0035 37.1585C78.2353 36.5879 78.4278 36.5494 79.5181 36.6548C80.4913 36.7488 80.8119 36.7078 81.3423 36.4212C81.6963 36.2299 82.0647 36.127 82.161 36.1924C82.5136 36.4319 82.944 37.2104 82.944 37.6086C82.944 37.8336 83.0162 38.0177 83.1044 38.0177C83.5364 38.0177 83.4471 38.6871 82.8905 39.6214C82.1606 40.8467 81.8663 41.6526 81.8663 42.4262C81.8663 43.412 82.5682 45.3965 83.4846 47.0018C84.6519 49.0466 85.0303 49.9675 85.3608 51.5672C86.0622 54.9631 85.5092 56.8333 82.3668 61.6929C80.7324 64.2203 80.56 64.6721 80.7086 66.0378C81.0367 69.0539 82.2961 71.3098 84.0631 72.0468C84.8374 72.3697 85.2023 72.8583 85.375 73.8033C85.4868 74.4151 85.4554 74.4899 85.0174 74.6565C84.08 75.0128 82.221 74.8711 81.0954 74.3573ZM78.274 71.5437C78.274 71.4107 78.1585 71.0672 78.0173 70.7803C77.8761 70.4935 77.6791 69.6617 77.5796 68.9319C77.48 68.2022 77.3181 67.5247 77.2197 67.4263C76.9098 67.1164 76.4802 67.4395 76.1369 68.2404C75.7914 69.0463 74.8004 70.0501 74.1448 70.2582C73.3146 70.5217 74.3224 71.3483 75.7594 71.5825C77.3231 71.8374 78.274 71.8227 78.274 71.5437Z" fill="black" stroke="black" stroke-width="0.178349"/>
<path d="M49.6622 74.0077C49.6002 73.9457 49.0907 73.8447 48.5301 73.7832L47.5107 73.6715L48.2055 73.2225C48.5875 72.9755 49.0633 72.5138 49.2627 72.1966C49.716 71.4754 50.3064 71.3433 52.3242 71.5114C53.4724 71.607 53.8463 71.7019 53.8463 71.8974C53.8463 72.04 54.0484 72.5555 54.2954 73.0429C54.5423 73.5302 54.7444 73.9721 54.7444 74.0248C54.7444 74.1608 49.7987 74.1442 49.6622 74.0077Z" fill="black" stroke="black" stroke-width="0.178349"/>
<path d="M81.1454 74.3649C80.0932 73.8751 80.0886 73.8748 79.8125 74.2689C79.5501 74.6436 79.3265 74.6644 75.5627 74.6644C71.7741 74.6644 71.5726 74.6453 71.2173 74.2527C70.6795 73.6584 70.0039 73.3584 68.8524 73.2025C67.2795 72.9895 67.2681 72.9663 66.6323 68.6826C66.4093 67.1799 66.1016 65.2896 65.9485 64.4819C65.6125 62.7089 65.5535 56.6874 65.8656 56.022C65.9816 55.7746 66.5203 55.2197 67.0626 54.7889C67.6048 54.3581 68.3944 53.5929 68.8171 53.0885C69.5831 52.1745 70.7387 50.1121 70.7434 49.6507C70.7448 49.5172 71.2315 49.0855 71.8249 48.6915C73.0043 47.9085 73.5827 47.1323 73.7748 46.075C73.9421 45.1546 72.9557 41.9773 71.9203 40.1016C71.0087 38.4503 70.9197 37.9374 71.5781 38.1292C71.8204 38.1998 72.2912 38.3075 72.6242 38.3685C73.2115 38.476 73.227 38.4604 73.1375 37.8509C73.0543 37.2841 73.0816 37.2419 73.4154 37.4205C73.6189 37.5295 73.9523 37.803 74.1563 38.0284C74.6288 38.5505 74.7462 38.5434 75.5298 37.9457C75.8848 37.6749 76.7204 37.2319 77.3866 36.9612C78.3693 36.5619 78.7821 36.4935 79.575 36.5987C80.3158 36.6969 80.7453 36.6412 81.3502 36.3684C82.1318 36.016 82.154 36.0165 82.428 36.3911C82.5819 36.6015 82.7599 36.994 82.8235 37.2632C82.8871 37.5325 83.0786 37.913 83.249 38.1087C83.5355 38.438 83.4968 38.5793 82.7331 39.9933C82.1166 41.1348 81.9086 41.7388 81.9116 42.3788C81.9171 43.4929 82.6335 45.4989 83.665 47.2881C85.3805 50.2635 86.0274 53.6087 85.3428 55.9637C84.911 57.4489 84.2635 58.7023 82.3139 61.8272C80.8263 64.2116 80.7326 64.4267 80.7326 65.4577C80.7326 67.5146 81.6814 70.1105 82.8194 71.1671C83.1256 71.4514 83.7409 71.8668 84.1868 72.0902C84.9872 72.4912 85.4322 73.2133 85.4322 74.111C85.4322 74.9901 82.8207 75.1448 81.1454 74.3649ZM78.2778 71.3844C77.9764 70.6815 77.631 69.4449 77.4709 68.4961C77.3374 67.7045 77.2312 67.517 76.916 67.517C76.6657 67.517 76.4149 67.7527 76.2153 68.1755C75.8465 68.9567 74.7713 70.0996 74.2494 70.2652C73.6598 70.4524 73.8175 70.8579 74.6133 71.2005C75.4857 71.576 75.9766 71.6649 77.3757 71.7005C78.3052 71.7241 78.408 71.688 78.2778 71.3844Z" fill="#026670"/>
<path d="M49.218 73.8988L47.5654 73.5719L48.2649 73.1592C48.6496 72.9322 49.1258 72.4731 49.3233 72.1389L49.6822 71.5313L51.5492 71.5343C52.576 71.536 53.5052 71.602 53.6141 71.6811C53.8568 71.8576 54.7875 73.8522 54.6733 73.9512C54.6281 73.9903 53.754 74.0681 52.7308 74.1241C51.42 74.1957 50.3825 74.1292 49.218 73.8988V73.8988Z" fill="#026670"/>
<path d="M60.8511 73.6042C60.7278 73.3093 60.5517 72.3034 60.5513 71.8923V71.6174L60.9405 72.016C61.3786 72.4648 61.5894 72.5934 61.9928 72.6579C62.2102 72.6926 62.2871 72.7429 62.3406 72.8849C62.4591 73.1994 62.4905 73.427 62.4461 73.6489L62.4032 73.8634H61.6814H60.9596L60.8511 73.6042Z" fill="#026670"/>
<path d="M35.1606 44.8112V44.688L35.1954 44.6456C35.6993 44.0321 36.1894 43.4883 36.7065 42.9689C36.9567 42.7176 37.1911 42.4928 37.4355 42.2698L37.476 42.2329H37.9453H38.4146V43.5837V44.9345H36.7876H35.1606V44.8112Z" fill="#9C84B6"/>
<path d="M28.2544 57.3849C28.2544 57.3744 28.5464 56.5242 28.7622 55.9063C29.6833 53.2696 30.4049 51.6699 31.3716 50.1219C31.8694 49.3248 32.7525 47.978 33.2647 47.235C34.5463 45.3759 35.5634 44.1163 36.7179 42.9585C38.6608 41.0102 40.7898 39.5442 45.1297 37.1663C46.0594 36.6569 46.3905 36.4568 46.8517 36.1258C48.5834 34.8826 49.5905 33.3774 50.0957 31.2771C50.3412 30.2563 50.4676 29.2659 50.644 26.9804L50.6557 26.8289H54.5995H58.5434V42.1119V57.3948H43.3989C35.0694 57.3948 28.2544 57.3904 28.2544 57.385V57.3849Z" fill="#9C84B6"/>
<path d="M14.1914 69.1639C14.1914 69.0005 14.1937 68.9805 14.2128 68.9747C14.2247 68.9711 14.6143 68.8774 15.0787 68.7665C17.1448 68.2731 18.1551 68.0239 18.5545 67.9094C20.9918 67.2107 22.8377 66.1904 24.3015 64.7327C25.5626 63.4769 26.5126 61.9337 27.4093 59.6843C27.6983 58.9595 27.941 58.2893 28.4068 56.9306C29.3032 54.3158 29.8208 53.0082 30.4635 51.7354C30.948 50.7758 31.4188 50.0011 32.596 48.2262L32.9226 47.7339H36.5728H40.2229V58.5406V69.3472H27.2072H14.1914V69.1639Z" fill="#9C84B6"/>
<path d="M63.2859 79.5377C62.767 79.4283 62.6165 79.4201 62.3859 79.4884C62.2292 79.5348 61.7179 79.5681 61.2089 79.565C59.6545 79.5557 57.761 79.1412 56.8925 78.6202C56.433 78.3446 55.7084 77.588 55.5087 77.1755C55.328 76.8022 55.326 76.7133 55.4731 75.5309C55.6335 74.2421 55.5584 73.6947 55.0835 72.6898C54.8922 72.2852 54.7357 71.8692 54.7357 71.7655C54.7357 71.6618 54.7964 71.358 54.8706 71.0903C55.1975 69.9106 55.2386 68.008 54.9529 67.2762C54.7337 66.7143 54.3374 66.2979 53.7446 66.0062C52.9074 65.5942 51.9532 65.4591 51.2217 65.6488C49.9663 65.9745 49.4079 67.2235 49.2028 70.165C49.1125 71.4604 48.9862 71.8027 48.3727 72.4149C48.1217 72.6654 47.7139 72.983 47.4664 73.1207C46.4876 73.6654 44.9036 74.0696 42.6548 74.3486C42.0074 74.4289 41.4466 74.5055 41.4086 74.5189C41.3705 74.5323 42.6945 74.5261 44.3509 74.5053C48.1504 74.4576 48.9879 74.5346 49.7913 75.0054C50.1891 75.2385 50.5524 75.6786 50.6377 76.0309C50.6764 76.1905 50.7001 76.6611 50.6905 77.0766C50.6745 77.7673 50.6595 77.843 50.5159 77.9593C50.4295 78.0293 50.3127 78.0865 50.2564 78.0865C50.2001 78.0865 50.0141 78.2305 49.843 78.4066L49.5319 78.7267L48.8528 78.6785L48.1737 78.6303L47.9492 78.8499C47.7345 79.0597 47.7074 79.0673 47.3359 79.0219C47.1221 78.9958 46.4728 78.8856 45.8931 78.777C43.2711 78.2857 42.2328 78.322 38.904 79.0219C38.2634 79.1566 37.3187 79.3006 36.8046 79.3419C34.1286 79.5567 28.5173 78.7442 26.61 77.8658C26.0327 77.5999 25.5519 77.1161 25.479 76.7278C25.3804 76.2021 25.5291 75.7884 26.4736 73.9616C26.8777 73.1798 26.9737 72.7934 26.9737 71.9479C26.9737 71.0262 26.9274 71.0434 25.3358 72.5561C22.9869 74.7886 21.5379 75.6545 19.1604 76.2463C18.0344 76.5266 17.4945 76.5957 16.4504 76.5929C15.3495 76.5901 14.8888 76.5187 13.1273 76.0784C11.6763 75.7157 11.349 75.6634 10.5295 75.6634C9.2285 75.6634 8.00379 76.1255 7.10883 76.9541C6.35896 77.6484 6.14875 78.2062 6.37634 78.898C6.41721 79.0223 6.39137 79.0681 6.24153 79.1363C5.65537 79.4034 3.11487 78.4558 1.80508 77.4816C1.12538 76.976 0.449387 76.2601 0.200168 75.7818C-0.0580506 75.2862 -0.0673564 74.6021 0.17757 74.1209C0.618802 73.2541 1.78021 72.4814 3.72934 71.7577C5.43944 71.1229 8.03989 70.4315 14.8235 68.8082C18.7153 67.8769 19.8 67.5521 21.089 66.9322C23.667 65.6923 25.367 63.9634 26.6971 61.2285C27.2793 60.0316 27.4925 59.4878 28.4076 56.867C29.9124 52.557 30.4151 51.5117 32.5009 48.3544C36.0201 43.0275 38.2348 41.0017 44.1432 37.7055C45 37.2276 45.9975 36.6489 46.36 36.4196C48.5637 35.0256 49.763 33.1946 50.2315 30.5091C50.3912 29.5933 50.4726 28.8806 50.6168 27.1318C50.9198 23.46 51.2138 21.737 51.9245 19.4703C52.3094 18.2429 52.3896 17.3201 52.2405 15.837C52.1242 14.6793 51.917 13.5623 51.5068 11.881C51.1085 10.2489 51.0849 9.96228 51.3481 9.96228C51.7206 9.96228 52.4547 10.6536 52.7744 11.3053C52.879 11.5186 52.9913 11.6931 53.024 11.6931C53.0567 11.6931 53.0758 10.8908 53.0665 9.91032C53.0542 8.61642 53.0726 8.0849 53.1335 7.97186C53.5162 7.26204 55.1046 9.02391 56.4124 11.6089C56.7068 12.1909 57.0413 12.9664 57.1557 13.3323C57.4131 14.1556 57.4848 14.2666 57.8801 14.4524C58.2943 14.6471 58.682 14.6398 59.3102 14.4254C60.4323 14.0424 61.8012 13.766 62.6045 13.7601C63.2501 13.7554 63.7061 13.8921 64.8436 14.4312C65.6802 14.8276 65.8472 14.8818 66.4359 14.9481C67.5256 15.0707 68.617 14.9429 69.7323 14.5623C70.3886 14.3383 71.523 14.1175 72.0225 14.1166C72.1441 14.1166 72.5179 14.025 72.8533 13.9135C73.8698 13.5755 73.9149 13.5749 74.2071 13.8983C74.3449 14.0508 74.4922 14.2947 74.5345 14.4402C74.7641 15.2305 74.6686 17.0189 74.3602 17.7021C74.0799 18.3229 73.1567 19.1273 72.1241 19.6502C71.9589 19.7338 71.08 20.0492 70.1709 20.3511C67.678 21.1788 66.4706 21.7546 66.4706 22.1156C66.4706 22.3581 67.1721 22.579 68.0915 22.6259C70.363 22.7421 72.0669 22.3851 72.6844 21.6636L72.9177 21.3911L73.0519 21.5432C73.1257 21.6269 73.264 21.8359 73.3593 22.0078C73.5088 22.2772 73.584 22.3367 73.9061 22.4399C74.4378 22.6103 74.7448 22.9397 74.7431 23.3379C74.7417 23.6435 74.3986 24.2375 73.9969 24.6296C73.411 25.2015 73.019 25.3653 71.7448 25.571C69.5855 25.9195 68.2801 26.2643 67.6129 26.6623C66.7167 27.197 66.159 28.6534 66.1607 30.4549C66.1621 31.6486 66.1842 31.7209 67.5933 35.0935C69.1326 38.7775 69.9781 41.7199 70.4139 44.9095C70.5532 45.9292 70.5519 47.5522 70.411 48.3911C70.1856 49.7343 69.6195 51.0836 68.8095 52.2086C68.3505 52.846 67.2553 53.9278 66.4529 54.5363C65.7478 55.071 65.5733 55.2525 65.3533 55.6796C65.0333 56.3008 64.982 56.8333 64.9826 59.5211C64.984 62.9644 65.0798 64.2035 65.4678 65.7633C65.728 66.8094 65.835 67.4569 66.0911 69.5364C66.4158 72.1725 66.6442 73.1104 67.0729 73.5667C67.2577 73.7634 67.7254 73.9125 68.3398 73.9705C69.649 74.0942 70.2006 74.296 70.6797 74.8263C71.1245 75.3186 71.4564 76.1697 71.4921 76.9096C71.5105 77.2904 71.5028 77.3067 71.2648 77.393C70.9969 77.4901 67.3986 77.63 66.4318 77.5808L65.77 77.5472L65.8985 77.928C65.9692 78.1374 66.0456 78.5071 66.0682 78.7495C66.1085 79.1806 66.1053 79.1918 65.922 79.2615C65.8189 79.3006 65.5886 79.3337 65.4102 79.3349C65.1895 79.3363 64.9974 79.3915 64.8089 79.5076C64.4721 79.7151 64.1563 79.7213 63.2858 79.5377H63.2859ZM62.9743 74.1035C62.9743 72.5837 62.9272 72.3669 62.5458 72.1343C62.4198 72.0574 62.1706 71.9458 61.9921 71.8863C61.7943 71.8204 61.5753 71.676 61.4313 71.5166L61.195 71.255L61.1544 70.188C61.1321 69.6012 61.0754 68.9185 61.0284 68.671L60.9429 68.221L60.8565 68.6818C60.8089 68.9353 60.6611 69.4805 60.5279 69.8934C60.2171 70.8573 60.1073 71.6236 60.1538 72.5061C60.195 73.2906 60.4127 74.2961 60.6416 74.7592C60.8903 75.2624 61.0636 75.3457 61.9581 75.3918C62.3838 75.4138 62.7865 75.4372 62.8532 75.4438C62.9648 75.4547 62.9743 75.3497 62.9743 74.1035Z" fill="#9C84B6"/>
<path d="M82.5341 74.9013C81.8216 74.8452 81.533 74.7671 81.0614 74.5032C80.7076 74.3053 80.1072 74.0098 80.0914 74.0258C80.0857 74.0317 80.0195 74.1455 79.9443 74.2788C79.7594 74.6065 79.6152 74.706 79.2582 74.7524C78.9809 74.7884 71.793 74.7628 71.5762 74.7251C71.5044 74.7125 71.4506 74.6701 71.4032 74.5884C71.3653 74.5232 71.1707 74.321 70.9708 74.1391C70.7051 73.8972 70.5282 73.7684 70.3131 73.6602C69.9541 73.4797 69.8322 73.4542 68.0631 73.1897C67.7161 73.1378 67.5327 73.0446 67.4011 72.8534C67.0971 72.4116 66.9382 71.7024 66.677 69.6229C66.5061 68.2624 66.0999 65.8072 65.9553 65.2602C65.6445 64.0848 65.5531 62.9058 65.515 59.5843C65.4953 57.8676 65.5005 57.4868 65.5524 56.815C65.6116 56.0489 65.6141 56.0345 65.7086 55.9323C65.7615 55.8752 65.8244 55.7895 65.8485 55.7419C65.9491 55.5431 66.1209 55.3787 66.6462 54.9785C67.5463 54.2929 68.7914 53.0149 69.4378 52.1131C69.9715 51.3684 70.5134 50.1952 70.7598 49.2508C70.7956 49.1136 70.8035 49.108 71.3133 48.8586C71.9831 48.5308 72.3073 48.3152 72.649 47.97C73.284 47.3284 73.6702 46.4912 73.6705 45.7552C73.6705 45.1693 73.4226 44.1085 72.9848 42.8236C72.4946 41.3847 72.3557 41.0677 71.7564 40.0195C71.1333 38.9295 70.915 38.356 71.0367 38.1286C71.0582 38.0884 71.1383 38.0368 71.2147 38.014C71.4005 37.9583 71.6606 38.0077 72.3444 38.2282C72.636 38.3223 72.9213 38.3993 72.9785 38.3993C73.0755 38.3993 73.0823 38.3909 73.082 38.2695C73.082 38.1981 73.0582 38.054 73.0295 37.9493C73.0009 37.8446 72.9679 37.6411 72.9561 37.4971C72.9328 37.2131 72.9706 37.0839 73.077 37.0839C73.176 37.0839 73.52 37.308 73.8348 37.5777C73.9956 37.7154 74.2076 37.8945 74.3058 37.9756C74.4809 38.1202 74.7833 38.2608 74.919 38.2608C74.9568 38.2608 75.1535 38.1264 75.3562 37.9622C75.9968 37.443 76.469 37.1828 77.545 36.7558C78.5018 36.3761 78.9679 36.3143 79.4863 36.4984C79.682 36.5678 79.7769 36.5782 80.2133 36.5782C80.6739 36.5781 80.7344 36.5705 80.9484 36.4865C81.1973 36.3889 81.4083 36.2745 81.6797 36.0904C82.0005 35.8727 82.2523 35.957 82.579 36.3916C82.6683 36.5104 82.8134 36.7528 82.9015 36.9302C83.0545 37.2384 83.0613 37.2649 83.0551 37.5249L83.0485 37.7971L83.2212 37.9089C83.449 38.0566 83.5513 38.3011 83.5276 38.6416C83.5083 38.92 83.4408 39.0572 83.0007 39.7117C82.4837 40.4808 82.1251 41.2909 82.0106 41.9486C81.9135 42.5058 82.0344 43.2666 82.3815 44.284C82.7439 45.346 83.1881 46.3021 83.7095 47.1418C84.468 48.3634 84.877 49.2519 85.2128 50.4075C85.6078 51.7666 85.7789 52.9898 85.741 54.1842C85.6969 55.5766 85.4194 56.5841 84.6638 58.0958C84.1278 59.1679 83.5942 60.0584 82.3896 61.8907C81.368 63.4447 81.0226 64.0761 80.8487 64.7075C80.7697 64.994 80.7717 65.7171 80.8531 66.3344C81.1244 68.3934 81.839 70.0707 82.8841 71.1023C83.3688 71.5806 83.7764 71.8362 84.3604 72.0279C84.5185 72.0798 84.7122 72.1713 84.791 72.2314C85.1331 72.4924 85.3945 73.0888 85.4918 73.8307C85.5495 74.2708 85.5395 74.3972 85.4357 74.5441C85.2006 74.8769 84.0391 75.0199 82.5341 74.9013H82.5341ZM77.9313 71.6301C78.0332 71.6108 78.1314 71.5802 78.1496 71.562C78.1981 71.5135 78.1175 71.276 77.979 71.0594C77.757 70.7124 77.5994 70.0974 77.4955 69.1729C77.3955 68.284 77.2499 67.6434 77.1336 67.5812C77.0266 67.524 76.7785 67.5402 76.6703 67.6115C76.5333 67.7018 76.3894 67.9293 76.2631 68.2553C76.0303 68.8559 75.7686 69.2558 75.3502 69.6498C75.0528 69.9299 74.7411 70.1327 74.3632 70.292C74.2394 70.3441 74.0992 70.4063 74.0516 70.4301C73.6956 70.6081 74.4404 71.1558 75.3574 71.3903C75.5699 71.4447 76.3868 71.5622 77.0978 71.6408C77.3528 71.669 77.7536 71.6639 77.9313 71.6301V71.6301Z" fill="#0A1354"/>
<path d="M50.5734 74.2688C50.0369 74.2591 50.0171 74.2575 49.9416 74.2184C49.8494 74.1706 49.639 74.0917 49.4544 74.0356C49.2472 73.9727 48.8532 73.914 48.0646 73.8285C47.6643 73.7851 47.319 73.7458 47.2973 73.7412L47.2578 73.7328L47.3032 73.6733C47.3609 73.5976 47.4653 73.529 47.7781 73.361C48.0507 73.2147 48.2215 73.1054 48.4099 72.957C48.6014 72.8059 48.9782 72.4274 49.0882 72.2755C49.1435 72.1991 49.2386 72.0696 49.2996 71.9876C49.3684 71.895 49.4364 71.7762 49.479 71.6741C49.5168 71.5836 49.5495 71.5075 49.5517 71.5049C49.5647 71.4901 49.8641 71.4449 50.0961 71.4227C50.2444 71.4086 50.4241 71.3886 50.4955 71.3785C50.6878 71.351 51.4665 71.3553 51.9407 71.3865C52.1692 71.4014 52.4379 71.4181 52.5378 71.4236C53.0413 71.4511 53.6397 71.5102 53.8753 71.5557C53.9544 71.5709 53.9735 71.5807 53.9668 71.6029C53.9106 71.789 53.9225 71.9031 54.0299 72.2062C54.1044 72.4165 54.243 72.6997 54.4709 73.1072C54.643 73.415 54.6933 73.5247 54.7342 73.6818C54.7527 73.7532 54.7851 73.8601 54.8062 73.9194C54.842 74.0204 54.8426 74.0297 54.8161 74.0702C54.8006 74.0939 54.7879 74.1248 54.7879 74.1388C54.7879 74.174 54.7392 74.1785 54.0263 74.2091C52.669 74.2673 51.5521 74.2867 50.5734 74.2689V74.2688Z" fill="#0A1354"/>
<path d="M61.1886 73.9262C61.0134 73.9159 61.0007 73.9125 60.9492 73.8634C60.7613 73.6837 60.5907 72.9797 60.5337 72.1499C60.5149 71.8754 60.5253 71.6406 60.5584 71.5954C60.5707 71.5787 60.59 71.5727 60.6086 71.5798C60.6252 71.5863 60.7194 71.6903 60.8179 71.811C61.0035 72.0385 61.1928 72.2323 61.3343 72.3398C61.5354 72.4926 61.8039 72.6004 62.029 72.6189C62.2013 72.633 62.2538 72.6526 62.3223 72.7284C62.4521 72.8721 62.4965 73.0994 62.4875 73.5736C62.4841 73.7552 62.4774 73.9075 62.4726 73.9121C62.4581 73.9261 61.386 73.9379 61.1886 73.9262V73.9262Z" fill="#0A1354"/>
<path d="M5.98725 68.0511C0.797158 57.6342 -0.268722 45.6384 3.00323 34.468C6.2752 23.2975 13.6432 13.7777 23.6306 7.81652C33.6181 1.85533 45.4869 -0.106745 56.8584 2.32345C68.2299 4.75367 78.2639 11.3966 84.9493 20.921C91.6348 30.4453 94.4777 42.1473 92.9083 53.6816C92.0548 59.9546 89.9305 65.9259 86.7246 71.2566" stroke="#0A1354" stroke-width="1.96182"/>
</svg>
