<svg width="209" height="152" viewBox="0 0 209 152" fill="none" xmlns="http://www.w3.org/2000/svg">
<path d="M61.1546 126.585C61.2015 126.947 61.215 127.214 61.2686 127.475C61.8582 130.5 62.2937 133.545 62.488 136.616C62.5617 137.827 62.575 139.032 62.3137 140.229C62.2802 140.383 62.307 140.551 62.307 140.805C62.5951 140.684 62.7961 140.624 62.977 140.531C64.451 139.741 65.7374 138.697 66.9166 137.519C67.9484 136.482 68.3236 135.197 68.1159 133.765C67.8881 132.24 67.4593 130.761 66.9635 129.302C66.8228 128.887 66.5615 128.606 66.1461 128.446C64.6587 127.883 63.1646 127.301 61.6706 126.732C61.55 126.686 61.4159 126.659 61.1546 126.585ZM0.5 17.9201C0.5 17.6859 0.5 17.4517 0.5 17.2175C1.0092 16.3208 1.8534 15.8391 2.7244 15.384C3.15319 15.1565 3.59538 14.9357 4.05097 14.7684C6.80465 13.778 9.55163 12.7676 12.3254 11.8374C14.2014 11.2084 16.1644 10.9676 18.1141 10.6464C18.8578 10.5259 19.6082 10.372 20.3251 10.1177C21.1894 9.8166 21.5512 9.12065 21.4105 8.21729C21.3368 7.75555 21.2296 7.30054 21.0956 6.8522C21.0085 6.56445 21.0554 6.36372 21.2966 6.19643C21.7254 5.88863 22.1409 5.56741 22.5898 5.28636C24.66 3.99489 26.9045 3.1116 29.2495 2.45583C32.0835 1.65953 34.9779 1.29147 37.9125 1.13757C41.3429 0.956894 44.7532 1.11079 48.1367 1.63943C50.6826 2.04094 52.9539 3.03798 54.8902 4.7845C55.8885 5.68117 56.9471 6.52432 57.9722 7.39423C58.5551 7.88272 59.1514 8.35782 59.7276 8.85968C60.9671 9.94373 61.6973 11.3088 61.9586 12.9282C62.1261 13.9922 62.2669 15.0561 62.4545 16.1067C62.8431 18.2882 63.8145 20.2154 65.2014 21.9217C66.1729 23.1128 67.2047 24.2705 68.2499 25.4014C69.1812 26.4185 69.8378 27.5694 70.1661 28.9011C70.3738 29.7108 70.548 30.5338 70.7422 31.3502C71.6802 35.2916 72.6317 39.2329 73.563 43.181C73.831 44.3386 74.4607 45.2286 75.3987 45.9379C76.4171 46.7075 77.5159 47.3432 78.6616 47.8852C83.834 50.3343 88.9997 52.7834 94.1787 55.2192C97.1669 56.6244 100.249 57.7955 103.411 58.739C106.018 59.5085 108.671 59.9234 111.391 59.6156C112.423 59.5018 113.448 59.3948 114.473 59.2542C116.878 58.933 119.277 58.6185 121.669 58.2505C124.449 57.8289 127.216 57.3538 129.997 56.9122C133.541 56.3434 137.092 55.788 140.636 55.2393C144.134 54.7039 147.631 54.2088 151.155 53.9478C155.088 53.6534 159.007 53.834 162.92 54.1686C164.193 54.2757 165.453 54.2757 166.686 53.8675C167.295 53.6667 167.918 53.4861 168.528 53.2786C171.784 52.1745 174.478 50.2875 176.494 47.4837C177.305 46.3662 178.109 45.2286 178.799 44.0308C181.044 40.1497 182.491 35.9607 183.429 31.5844C184.112 28.3457 184.219 25.1136 183.389 21.9016C182.142 17.077 179.737 12.9817 175.663 9.95711C174.042 8.75931 172.548 7.40762 171.215 5.89531C170.672 5.27968 170.176 4.62392 169.701 3.96144C169.285 3.38596 169.024 2.73016 168.91 2.02754C168.763 1.12418 169.165 0.455002 170.022 0.147186C170.149 0.10704 170.27 0.0535278 170.397 0C170.907 0 171.416 0 171.918 0C172.334 0.0936737 172.749 0.187332 173.164 0.281021C175.905 0.88327 178.511 1.88033 181.03 3.09819C181.405 3.27887 181.747 3.5733 182.049 3.87444C182.739 4.55698 183.395 5.27966 184.072 5.98228C186.765 8.77939 189.157 11.804 191.201 15.103C193.76 19.225 195.77 23.5813 196.835 28.339C197.351 30.6409 197.572 32.9562 197.324 35.3049C197.023 38.0954 196.306 40.7854 195.294 43.4018C193.512 48.0123 191.087 52.2749 188.293 56.3434C186.31 59.2275 184.132 61.9576 181.868 64.6209C181.432 65.1362 181.432 65.1428 181.801 65.6648C184.079 68.9102 186.337 72.1624 188.641 75.3877C190.718 78.2785 192.165 81.4436 193.023 84.8898C194.417 90.4505 195.844 95.9979 197.231 101.565C197.626 103.165 198.417 104.523 199.542 105.701C200.775 106.979 202.041 108.23 203.267 109.515C204.165 110.465 205.05 111.429 205.9 112.419C206.624 113.262 207.06 114.259 207.341 115.337C207.662 116.595 207.736 117.879 207.683 119.171C207.629 120.456 207.522 121.741 207.461 123.025C207.327 125.936 207.589 128.834 207.85 131.731C208.044 133.926 208.212 136.121 208.399 138.316C208.413 138.51 208.466 138.697 208.5 138.884C208.5 139.393 208.5 139.902 208.5 140.41C208.44 140.832 208.406 141.253 208.312 141.668C207.616 144.793 205.9 147.215 203.247 148.989C202.048 149.785 200.762 150.394 199.321 150.581C197.103 150.876 194.919 150.722 192.755 150.166C191.382 149.805 190.095 149.263 188.929 148.453C187.764 147.65 187.583 146.439 188.467 145.342C188.481 145.328 188.494 145.308 188.507 145.295C189.506 144.271 190.176 143.053 190.658 141.708C191.06 140.584 191.824 139.734 192.862 139.139C193.284 138.898 193.713 138.67 194.155 138.456C194.866 138.102 195.247 137.526 195.268 136.736C195.274 136.328 195.261 135.913 195.221 135.505C194.839 131.751 193.981 128.091 192.929 124.471C192.454 122.811 191.428 121.587 189.908 120.757C188.668 120.088 187.375 119.539 186.035 119.117C182.987 118.161 180.012 117.05 177.292 115.35C177.184 115.283 177.044 115.256 176.93 115.216C176.863 115.283 176.816 115.323 176.789 115.37C176.655 115.604 176.514 115.839 176.387 116.086C175.201 118.462 173.935 120.79 172.401 122.965C172.206 123.233 172.039 123.52 171.871 123.808C170.893 125.495 170.176 127.281 169.922 129.222C169.479 132.534 169.567 135.84 170.002 139.145C170.089 139.788 169.969 140.31 169.553 140.818C168.173 142.511 166.585 143.97 164.823 145.262C164.126 145.777 163.349 146.044 162.505 146.145C160.468 146.379 158.438 146.272 156.428 145.964C154.458 145.663 152.502 145.295 150.539 144.954C149.634 144.8 148.73 144.639 147.832 144.485C147.155 144.365 147.021 144.204 147.035 143.502C147.035 143.328 147.035 143.154 147.061 142.98C147.202 142.016 147.363 141.053 147.497 140.089C147.557 139.647 147.778 139.326 148.113 139.065C148.643 138.65 149.226 138.322 149.889 138.195C150.572 138.068 151.269 137.968 151.972 137.914C152.797 137.854 153.373 137.493 153.661 136.703C153.768 136.415 153.902 136.128 154.016 135.84C154.612 134.301 155.41 132.882 156.401 131.557C156.843 130.975 157.185 130.299 157.48 129.623C158.043 128.338 158.237 126.967 158.311 125.575C158.404 123.694 158.25 121.828 157.895 119.987C157.634 118.629 157.272 117.291 156.897 115.959C156.575 114.808 155.845 113.972 154.719 113.517C154.445 113.403 154.163 113.322 153.882 113.242C152.374 112.841 150.854 112.466 149.359 112.024C148.529 111.777 147.711 111.737 146.874 111.917C145.38 112.232 143.946 112.767 142.566 113.409C139.504 114.835 136.469 116.307 133.427 117.779C128.683 120.074 123.98 122.45 119.129 124.524C116.831 125.508 114.553 126.552 112.168 127.295C107.224 128.84 102.138 129.657 96.9927 130.098C93.6226 130.386 90.2458 130.46 86.8624 130.333C86.7485 130.326 86.6413 130.353 86.5274 130.366C86.4939 130.466 86.4604 130.54 86.447 130.614C85.8038 133.13 85.3147 135.672 85.107 138.269C84.9864 139.761 85.0534 141.227 85.4889 142.672C85.6698 143.274 85.7166 143.896 85.6496 144.525C85.5558 145.436 85.2142 146.259 84.7653 147.048C84.3298 147.804 83.8273 148.534 83.4253 149.31C82.9965 150.12 82.3801 150.682 81.5225 150.936C80.7185 151.184 79.9078 151.425 79.077 151.525C77.5293 151.706 75.9682 151.779 74.4071 151.906C74.1592 151.926 73.9114 151.967 73.6635 152C71.4793 152 69.2884 152 67.0975 152C66.9501 151.967 66.8094 151.913 66.6553 151.893C64.4711 151.592 62.5147 150.789 60.9201 149.223C60.7794 149.089 60.6321 148.975 60.4981 148.862C60.4043 148.902 60.3373 148.915 60.2971 148.949C59.3859 149.651 58.3407 149.865 57.2218 149.899C54.917 149.979 52.6122 150.12 50.3141 150.2C47.8151 150.28 45.3226 150.421 42.8169 150.146C41.0481 149.952 39.6344 149.169 38.4552 147.891C38.013 147.416 37.8455 146.854 37.9996 146.212C38.5356 143.983 39.6478 142.183 41.832 141.206C43.3796 140.511 44.9341 139.828 46.4818 139.139C46.7899 139.005 47.0914 138.864 47.3728 138.69C48.7463 137.841 49.3962 136.409 49.0612 134.829C48.7396 133.27 48.3644 131.711 47.9758 130.159C47.0177 126.324 46.0328 122.49 45.0613 118.656C44.6728 117.143 44.0095 115.765 43.1184 114.487C39.6746 109.535 36.2442 104.583 32.7938 99.6314C32.0099 98.5206 31.4203 97.3228 31.0384 96.018C30.422 93.9101 30.154 91.742 30.0535 89.5539C29.9329 86.8638 29.9597 84.1671 30.3014 81.4905C30.4756 80.1454 30.6833 78.787 31.0384 77.4755C31.4203 76.0636 31.6011 74.6784 31.2259 73.2665C30.9379 72.1757 30.5627 71.1051 30.221 70.0277C30.1741 69.8939 30.0669 69.7801 29.9597 69.6062C29.6917 69.827 29.4706 70.0077 29.2495 70.195C28.4053 70.9244 27.5745 71.6605 26.7169 72.3698C26.268 72.7445 25.7923 73.0925 25.3032 73.407C25.0285 73.5877 24.7136 73.7148 24.3987 73.8018C23.8426 73.9557 23.4138 74.2434 23.0721 74.6985C22.3217 75.6821 21.6718 76.7194 21.1425 77.8369C20.6936 78.7871 20.0102 79.5031 19.1191 80.0451C17.7188 80.8949 16.2047 81.3499 14.5699 81.4235C13.1696 81.4838 12.5733 81.1626 11.977 79.8912C11.508 78.8807 11.0926 77.8502 10.6705 76.8197C10.436 76.2509 10.4092 75.642 10.5365 75.0397C10.8447 73.5743 11.5147 72.2895 12.5197 71.1854C13.1897 70.456 13.585 69.6129 13.7659 68.6493C14.0272 67.2842 14.1411 65.9057 14.1277 64.5138C14.1143 63.1956 14.3354 61.9175 14.7642 60.6662C15.2064 59.3814 15.6285 58.0765 16.0975 56.7984C16.4392 55.8549 16.4459 54.9448 16.1511 53.9879C15.8831 53.118 15.6552 52.2213 15.4677 51.3314C15.3605 50.8429 15.2935 50.3142 15.3471 49.8257C15.5079 48.2532 15.7223 46.6874 15.9434 45.1215C16.0439 44.3721 16.2046 43.6293 16.3386 42.8799C16.3922 42.552 16.3721 42.2575 16.0371 42.0702C15.3337 41.6687 14.6101 41.314 13.786 41.3274C12.0306 41.3475 10.5365 40.7051 9.24344 39.5809C8.23844 38.711 7.28031 37.7942 6.28872 36.9109C5.71922 36.4024 5.33736 35.7867 5.05597 35.0908C4.38597 33.438 4.09789 31.7182 4.03089 29.9517C3.99739 29.0684 3.82986 28.2252 3.23357 27.5561C2.46977 26.7129 2.08116 25.7159 1.77966 24.6586C1.21017 22.7047 0.968957 20.6905 0.727759 18.6763C0.700959 18.4153 0.580399 18.1677 0.5 17.9201Z" fill="#9C84B6"/>
</svg>
