<svg width="26" height="19" viewBox="0 0 26 19" fill="none" xmlns="http://www.w3.org/2000/svg">
<path d="M19.9543 0.318359C17.9864 0.318359 16.7895 0.693681 16.099 1.01214C15.2129 0.579947 14.2002 0.318359 13.0493 0.318359C11.8985 0.318359 10.8858 0.579947 9.99965 1.01214C9.30915 0.693681 8.11229 0.318359 6.14438 0.318359C2.69191 0.318359 0.390259 9.41707 0.390259 11.6917C0.390259 12.6357 1.90935 13.5001 4.00385 13.8527C4.74038 16.4003 8.21587 18.3452 12.4739 18.5158V13.648C11.7949 13.2272 10.7477 12.4651 10.7477 11.6917C10.7477 10.5544 13.0493 10.5544 13.0493 10.5544C13.0493 10.5544 15.351 10.5544 15.351 11.6917C15.351 12.4651 14.3037 13.2272 13.6247 13.648V18.5158C17.8828 18.3452 21.3583 16.4003 22.0948 13.8527C24.1893 13.5001 25.7084 12.6357 25.7084 11.6917C25.7084 9.41707 23.4068 0.318359 19.9543 0.318359ZM4.01536 11.5439C3.43994 11.4074 2.99112 11.2482 2.69191 11.1231C2.97961 7.97265 5.22372 3.04797 6.20192 2.59304C6.82337 2.59304 7.29521 2.66128 7.72101 2.71814C5.30428 5.3454 4.3491 9.46256 4.01536 11.5439V11.5439ZM9.59686 9.41707C9.29164 9.41707 8.99892 9.29724 8.7831 9.08395C8.56728 8.87066 8.44603 8.58137 8.44603 8.27973C8.44603 7.66557 8.9639 7.14239 9.59686 7.14239C9.90208 7.14239 10.1948 7.26222 10.4106 7.47551C10.6264 7.6888 10.7477 7.97809 10.7477 8.27973C10.7477 8.91664 10.2298 9.41707 9.59686 9.41707ZM16.5018 9.41707C16.1966 9.41707 15.9039 9.29724 15.6881 9.08395C15.4722 8.87066 15.351 8.58137 15.351 8.27973C15.351 7.66557 15.8689 7.14239 16.5018 7.14239C16.807 7.14239 17.0997 7.26222 17.3156 7.47551C17.5314 7.6888 17.6526 7.97809 17.6526 8.27973C17.6526 8.91664 17.1348 9.41707 16.5018 9.41707ZM22.0833 11.5439C21.7496 9.46256 20.7944 5.3454 18.3777 2.71814C18.8035 2.66128 19.2753 2.59304 19.8967 2.59304C20.8749 3.04797 23.1191 7.97265 23.4068 11.1231C23.1191 11.2482 22.6702 11.4074 22.0833 11.5439V11.5439Z" fill="black"/>
</svg>
