<svg width="18" height="27" viewBox="0 0 18 27" fill="none" xmlns="http://www.w3.org/2000/svg">
<path d="M9.13662 0.757568C4.54895 0.757568 0.829102 4.39912 0.829102 8.89022C0.829102 12.8515 3.72377 16.1519 7.55454 16.8755V19.4934H3.99166V22.5894H7.55452V26.0757H10.7171V22.5894H14.2799V19.4934H10.7171V16.8755C14.5486 16.1525 17.4441 12.852 17.4441 8.8902C17.4441 4.39912 13.7243 0.757568 9.13662 0.757568ZM9.13662 3.9915C11.9003 3.9915 14.1407 6.18475 14.1407 8.89022C14.1407 11.5957 11.9003 13.789 9.13662 13.789C6.37295 13.789 4.13257 11.5957 4.13257 8.89022C4.13257 6.18475 6.37297 3.9915 9.13662 3.9915Z" fill="#FC79FF"/>
</svg>
