<svg width="23" height="23" viewBox="0 0 23 23" fill="none" xmlns="http://www.w3.org/2000/svg">
<path d="M13.7212 0.340576V3.4251H17.0875L12.6503 7.83285C11.4052 7.02711 9.92107 6.55953 8.32758 6.55953C3.92745 6.55953 0.360016 10.1263 0.360016 14.5264C0.359997 18.9265 3.92745 22.494 8.32758 22.494C12.7277 22.494 16.2945 18.9265 16.2945 14.5264C16.2945 12.8539 15.7793 11.3018 14.8988 10.0202L19.2615 5.65744V8.99424H22.3461C22.3461 6.29014 22.3754 3.03764 22.3749 0.340576H13.7212ZM8.32758 9.76638C10.9567 9.76638 13.0876 11.8973 13.0876 14.5264C13.0876 17.1555 10.9567 19.2871 8.32758 19.2871C5.69849 19.2871 3.56685 17.1555 3.56685 14.5264C3.56685 11.8973 5.69847 9.76638 8.32758 9.76638Z" fill="#00C2FF"/>
</svg>
