<svg width="81" height="89" viewBox="0 0 81 89" fill="none" xmlns="http://www.w3.org/2000/svg">
<path d="M6.20606 71.908C6.20606 72.4756 6.0907 72.9517 5.85999 73.3362C5.63293 73.7207 5.31799 74.01 4.91516 74.2041C4.51599 74.3982 4.05823 74.4952 3.54187 74.4952H1.92688V73.2593C2.02942 73.252 2.18323 73.2446 2.38831 73.2373C2.59338 73.23 2.7948 73.2245 2.99255 73.2208C3.19397 73.2135 3.33313 73.2098 3.41003 73.2098C3.71399 73.2098 3.94287 73.1403 4.09668 73.0011C4.25049 72.8583 4.35486 72.6862 4.40979 72.4847C4.46472 72.2797 4.49219 72.0874 4.49219 71.908C4.49219 71.7285 4.46472 71.5399 4.40979 71.3422C4.35486 71.1407 4.25049 70.9686 4.09668 70.8258C3.94287 70.683 3.71399 70.6116 3.41003 70.6116C3.29285 70.6116 3.172 70.6116 3.04749 70.6116C2.92297 70.6079 2.78564 70.6042 2.6355 70.6006V76.8848C2.5 76.9104 2.35352 76.9269 2.19605 76.9342C2.04224 76.9415 1.90857 76.9452 1.79504 76.9452C1.6925 76.9452 1.56067 76.9415 1.39954 76.9342C1.2384 76.9269 1.09009 76.9104 0.95459 76.8848V69.436L1.03149 69.3646C1.49292 69.3536 1.92322 69.3445 2.32239 69.3372C2.72522 69.3262 3.13171 69.3207 3.54187 69.3207C4.05823 69.3207 4.51599 69.4141 4.91516 69.6008C5.31799 69.7876 5.63293 70.0732 5.85999 70.4578C6.0907 70.8386 6.20606 71.322 6.20606 71.908ZM8.00405 70.2815C8.12329 70.2654 8.26508 70.2525 8.42944 70.2429C8.5938 70.2332 8.7372 70.2284 8.85967 70.2284C8.9789 70.2284 9.1207 70.2332 9.28506 70.2429C9.45263 70.2525 9.59443 70.2687 9.71045 70.2912L11.8036 76.7881C11.7004 76.8461 11.5683 76.8896 11.4072 76.9186C11.246 76.9508 11.0946 76.9669 10.9528 76.9669C10.7207 76.9669 10.5387 76.9138 10.4065 76.8074C10.2744 76.6979 10.1632 76.4852 10.073 76.1693L9.3334 73.5928C9.25605 73.3189 9.16743 73.0031 9.06753 72.6454C8.97085 72.2876 8.88384 71.9525 8.80649 71.6399H8.74848C8.70014 71.9009 8.62925 72.2006 8.53579 72.539C8.44555 72.8742 8.36338 73.1674 8.28925 73.4188L7.25478 76.8944C7.16455 76.917 7.06626 76.9315 6.95991 76.9379C6.85356 76.9444 6.74399 76.9476 6.6312 76.9476C6.51841 76.9476 6.39272 76.9396 6.25415 76.9234C6.11557 76.9073 6.00278 76.8832 5.91577 76.8509L5.86259 76.7736L8.00405 70.2815ZM8.09106 75.4732C8.04594 75.4732 7.99116 75.4732 7.92671 75.4732C7.86225 75.47 7.7978 75.4684 7.73335 75.4684C7.67212 75.4652 7.61894 75.4636 7.57383 75.4636H6.80522L7.25962 74.3083H7.93154C7.97666 74.3083 8.02983 74.3083 8.09106 74.3083C8.15229 74.305 8.21352 74.3034 8.27475 74.3034C8.33598 74.3002 8.38755 74.2986 8.42944 74.2986H9.16904C9.21416 74.2986 9.26733 74.3002 9.32856 74.3034C9.38979 74.3034 9.45102 74.305 9.51225 74.3083C9.57348 74.3083 9.62666 74.3083 9.67177 74.3083H10.3679L10.7401 75.4636H9.97632C9.9312 75.4636 9.87641 75.4652 9.81196 75.4684C9.74751 75.4684 9.68305 75.47 9.6186 75.4732C9.55737 75.4732 9.5042 75.4732 9.45908 75.4732H8.09106ZM14.1264 76.9089H13.5029C13.2418 76.9089 13.034 76.8332 12.8793 76.6817C12.7246 76.5271 12.6472 76.3144 12.6472 76.0437V70.2864L12.7149 70.2187H13.2563C13.5431 70.2187 13.7591 70.2928 13.9041 70.4411C14.0523 70.5893 14.1264 70.8278 14.1264 71.1565V76.9089ZM16.7368 75.6376C16.7368 76.1081 16.6611 76.4384 16.5096 76.6286C16.3581 76.8155 16.1003 76.9089 15.7362 76.9089H13.5029L12.7149 75.8406C13.121 75.7697 13.5238 75.7182 13.9234 75.6859C14.3262 75.6537 14.6936 75.6376 15.0256 75.6376H16.7368ZM17.0994 76.3095C17.1188 76.1 17.1832 75.8938 17.2928 75.6908C17.4056 75.4877 17.5329 75.325 17.6747 75.2025C17.9486 75.3669 18.258 75.5135 18.6028 75.6424C18.9476 75.7713 19.2908 75.8358 19.6324 75.8358C19.9289 75.8358 20.1448 75.7665 20.2802 75.6279C20.4155 75.4861 20.4832 75.3298 20.4832 75.159C20.4832 75.0366 20.4429 74.9077 20.3624 74.7723C20.285 74.6337 20.1094 74.5081 19.8355 74.3953L18.6705 73.907C18.2709 73.7395 17.9405 73.5171 17.6795 73.2399C17.4217 72.9628 17.2928 72.5954 17.2928 72.1378C17.2928 71.7414 17.3959 71.3934 17.6022 71.0937C17.8084 70.7939 18.0872 70.5603 18.4384 70.3927C18.7929 70.2251 19.1877 70.1414 19.6228 70.1414C20.0739 70.1414 20.4977 70.1994 20.8941 70.3154C21.2905 70.4314 21.6144 70.5555 21.8657 70.6876C21.8528 70.8971 21.8013 71.1017 21.711 71.3015C21.6208 71.4981 21.5048 71.6625 21.363 71.7946C21.1148 71.6753 20.828 71.5674 20.5025 71.4707C20.1771 71.374 19.8854 71.3257 19.6276 71.3257C19.3408 71.3257 19.1313 71.3917 18.9992 71.5239C18.8703 71.656 18.8058 71.7962 18.8058 71.9444C18.8058 72.0798 18.8509 72.199 18.9412 72.3021C19.0346 72.4021 19.1893 72.4971 19.4052 72.5874L20.5896 73.0804C20.8957 73.2061 21.1567 73.364 21.3727 73.5542C21.5918 73.7411 21.7578 73.9554 21.8706 74.1971C21.9866 74.4355 22.0446 74.695 22.0446 74.9753C22.0446 75.3621 21.9511 75.7101 21.7642 76.0195C21.5805 76.3289 21.3018 76.5738 20.9279 76.7542C20.5573 76.9347 20.0917 77.025 19.5309 77.025C19.1377 77.025 18.722 76.9637 18.2837 76.8413C17.8487 76.7156 17.4539 76.5383 17.0994 76.3095ZM26.3455 73.5783C26.3455 73.8394 26.36 74.1052 26.3891 74.3759C26.4213 74.6466 26.4809 74.8964 26.5679 75.1252C26.6581 75.354 26.7903 75.5393 26.9643 75.6811C27.1383 75.8197 27.3687 75.889 27.6556 75.889C27.9424 75.889 28.1728 75.8197 28.3468 75.6811C28.5208 75.5393 28.6514 75.354 28.7384 75.1252C28.8286 74.8964 28.8882 74.6466 28.9172 74.3759C28.9495 74.1052 28.9656 73.8394 28.9656 73.5783C28.9656 73.3173 28.9495 73.053 28.9172 72.7855C28.8882 72.5148 28.8286 72.2667 28.7384 72.0411C28.6514 71.8123 28.5208 71.6286 28.3468 71.49C28.1728 71.3482 27.9424 71.2773 27.6556 71.2773C27.3687 71.2773 27.1383 71.3482 26.9643 71.49C26.7903 71.6286 26.6581 71.8123 26.5679 72.0411C26.4809 72.2667 26.4213 72.5148 26.3891 72.7855C26.36 73.053 26.3455 73.3173 26.3455 73.5783ZM24.8083 73.5783C24.8083 72.8919 24.9115 72.2909 25.1177 71.7752C25.324 71.2596 25.6366 70.8584 26.0555 70.5716C26.4777 70.2848 27.011 70.1414 27.6556 70.1414C28.3065 70.1414 28.8415 70.2864 29.2604 70.5764C29.6826 70.8665 29.9952 71.2693 30.1982 71.7849C30.4045 72.3005 30.5076 72.8983 30.5076 73.5783C30.5076 74.2647 30.4045 74.8674 30.1982 75.3862C29.992 75.9019 29.6778 76.3047 29.2556 76.5947C28.8367 76.8815 28.3033 77.025 27.6556 77.025C27.1689 77.025 26.7468 76.9428 26.3891 76.7784C26.0313 76.6108 25.7349 76.374 25.4996 76.0678C25.2676 75.7617 25.0935 75.3975 24.9775 74.9753C24.8647 74.5532 24.8083 74.0875 24.8083 73.5783ZM33.1038 76.8848C32.9782 76.9073 32.8509 76.9218 32.7219 76.9283C32.5963 76.9347 32.4819 76.9379 32.3787 76.9379C32.2756 76.9379 32.1548 76.9347 32.0162 76.9283C31.8808 76.9218 31.7503 76.9073 31.6246 76.8848V70.3396L31.6923 70.2815H33.0942V70.7504C33.0942 71.0147 33.0958 71.2838 33.099 71.5577C33.1022 71.8284 33.1038 72.0911 33.1038 72.3457V76.8848ZM35.7819 70.2815C35.8076 70.3621 35.8254 70.4556 35.835 70.5619C35.8447 70.6683 35.8495 70.7633 35.8495 70.8471C35.8495 71.0888 35.7835 71.2645 35.6513 71.374C35.5224 71.4804 35.3242 71.5335 35.0568 71.5335H33.8193C33.5743 71.5335 33.3439 71.5319 33.128 71.5287C32.9153 71.5255 32.7042 71.5223 32.4948 71.519V70.2815H35.7819ZM35.2066 72.9886C35.2324 73.0724 35.2517 73.1739 35.2646 73.2931C35.2775 73.4091 35.284 73.5074 35.284 73.588C35.284 73.6718 35.2775 73.7717 35.2646 73.8877C35.2517 74.0037 35.2324 74.1068 35.2066 74.1971H33.3214C33.186 74.1971 33.0474 74.1955 32.9056 74.1922C32.7638 74.1858 32.643 74.181 32.5431 74.1777V73.0031C32.643 72.9999 32.7638 72.9966 32.9056 72.9934C33.0474 72.9902 33.186 72.9886 33.3214 72.9886H35.2066ZM43.5252 72.5052C43.5252 73.0047 43.4237 73.4236 43.2207 73.762C43.0209 74.1004 42.7437 74.355 42.3892 74.5258C42.038 74.6966 41.6351 74.782 41.1807 74.782H39.7596V73.6943C39.8498 73.6879 39.9851 73.6814 40.1656 73.675C40.3461 73.6686 40.5233 73.6637 40.6973 73.6605C40.8746 73.6541 40.9971 73.6508 41.0647 73.6508C41.3322 73.6508 41.5336 73.5896 41.669 73.4671C41.8043 73.3415 41.8962 73.19 41.9445 73.0127C41.9929 72.8323 42.017 72.6631 42.017 72.5052C42.017 72.3473 41.9929 72.1813 41.9445 72.0073C41.8962 71.83 41.8043 71.6786 41.669 71.5529C41.5336 71.4272 41.3322 71.3644 41.0647 71.3644C40.9616 71.3644 40.8553 71.3644 40.7457 71.3644C40.6361 71.3611 40.5153 71.3579 40.3831 71.3547V76.8848C40.2639 76.9073 40.135 76.9218 39.9964 76.9283C39.8611 76.9347 39.7434 76.9379 39.6435 76.9379C39.5533 76.9379 39.4373 76.9347 39.2955 76.9283C39.1537 76.9218 39.0232 76.9073 38.9039 76.8848V70.3299L38.9716 70.267C39.3777 70.2574 39.7563 70.2493 40.1076 70.2429C40.4621 70.2332 40.8198 70.2284 41.1807 70.2284C41.6351 70.2284 42.038 70.3105 42.3892 70.4749C42.7437 70.6393 43.0209 70.8906 43.2207 71.229C43.4237 71.5642 43.5252 71.9896 43.5252 72.5052ZM45.4769 70.2815C45.5961 70.2654 45.7379 70.2525 45.9023 70.2429C46.0666 70.2332 46.21 70.2284 46.3325 70.2284C46.4517 70.2284 46.5935 70.2332 46.7579 70.2429C46.9255 70.2525 47.0673 70.2687 47.1833 70.2912L49.2764 76.7881C49.1733 76.8461 49.0411 76.8896 48.88 76.9186C48.7189 76.9508 48.5674 76.9669 48.4256 76.9669C48.1936 76.9669 48.0115 76.9138 47.8794 76.8074C47.7472 76.6979 47.636 76.4852 47.5458 76.1693L46.8062 73.5928C46.7289 73.3189 46.6402 73.0031 46.5403 72.6454C46.4437 72.2876 46.3567 71.9525 46.2793 71.6399H46.2213C46.173 71.9009 46.1021 72.2006 46.0086 72.539C45.9184 72.8742 45.8362 73.1674 45.7621 73.4188L44.7276 76.8944C44.6374 76.917 44.5391 76.9315 44.4327 76.9379C44.3264 76.9444 44.2168 76.9476 44.104 76.9476C43.9912 76.9476 43.8655 76.9396 43.727 76.9234C43.5884 76.9073 43.4756 76.8832 43.3886 76.8509L43.3354 76.7736L45.4769 70.2815ZM45.5639 75.4732C45.5188 75.4732 45.464 75.4732 45.3995 75.4732C45.3351 75.47 45.2706 75.4684 45.2062 75.4684C45.1449 75.4652 45.0918 75.4636 45.0466 75.4636H44.278L44.7324 74.3083H45.4044C45.4495 74.3083 45.5027 74.3083 45.5639 74.3083C45.6251 74.305 45.6863 74.3034 45.7476 74.3034C45.8088 74.3002 45.8604 74.2986 45.9023 74.2986H46.6419C46.687 74.2986 46.7402 74.3002 46.8014 74.3034C46.8626 74.3034 46.9238 74.305 46.9851 74.3083C47.0463 74.3083 47.0995 74.3083 47.1446 74.3083H47.8407L48.2129 75.4636H47.4491C47.404 75.4636 47.3492 75.4652 47.2848 75.4684C47.2203 75.4684 47.1559 75.47 47.0914 75.4732C47.0302 75.4732 46.977 75.4732 46.9319 75.4732H45.5639ZM49.3323 70.3686C49.4451 70.3202 49.5708 70.2799 49.7093 70.2477C49.8479 70.2155 49.9833 70.1994 50.1154 70.1994C50.3732 70.1994 50.5601 70.2558 50.6761 70.3686C50.7954 70.4781 50.8791 70.6908 50.9275 71.0066L51.3625 73.6122C51.398 73.8152 51.4334 74.0359 51.4689 74.2744C51.5043 74.5129 51.5366 74.7433 51.5656 74.9657C51.5978 75.1848 51.622 75.3717 51.6381 75.5264C51.6445 75.5876 51.6526 75.6247 51.6623 75.6376C51.6751 75.6473 51.6977 75.6521 51.7299 75.6521L52.5662 70.4121C52.7112 70.3863 52.8691 70.3686 53.0399 70.3589C53.2107 70.346 53.367 70.3396 53.5088 70.3396C53.6603 70.3396 53.8198 70.346 53.9874 70.3589C54.1582 70.3686 54.3129 70.3863 54.4515 70.4121L55.2249 75.5264C55.2346 75.5876 55.2458 75.6247 55.2587 75.6376C55.2749 75.6473 55.2974 75.6521 55.3264 75.6521C55.3458 75.4716 55.3715 75.2622 55.4038 75.0237C55.436 74.7852 55.4714 74.5403 55.5101 74.2889C55.5488 74.0375 55.5858 73.8071 55.6213 73.5977L56.1965 70.2815C56.3061 70.259 56.4189 70.2445 56.5349 70.238C56.6509 70.2316 56.7589 70.2284 56.8588 70.2284C56.9716 70.2284 57.0908 70.2364 57.2165 70.2525C57.3422 70.2687 57.455 70.2928 57.5549 70.325L57.6274 70.4121L56.3319 76.8751C56.1643 76.8944 55.9597 76.9089 55.718 76.9186C55.4795 76.9315 55.2636 76.9379 55.0702 76.9379C54.8511 76.9379 54.6577 76.9009 54.4901 76.8268C54.3226 76.7526 54.2162 76.5673 54.1711 76.2708L53.823 74.1101C53.765 73.7395 53.7086 73.3495 53.6539 72.9402C53.6023 72.531 53.5604 72.1668 53.5282 71.8478H53.4557C53.417 72.1668 53.3687 72.531 53.3106 72.9402C53.2526 73.3463 53.1914 73.7362 53.127 74.1101L52.6629 76.8751C52.4856 76.8944 52.2842 76.9089 52.0586 76.9186C51.8363 76.9315 51.6252 76.9379 51.4254 76.9379C51.1901 76.9379 50.9887 76.9009 50.8211 76.8268C50.6568 76.7526 50.5456 76.5657 50.4876 76.266L49.3323 70.3686ZM57.8767 76.3095C57.8961 76.1 57.9605 75.8938 58.0701 75.6908C58.1829 75.4877 58.3102 75.325 58.452 75.2025C58.7259 75.3669 59.0353 75.5135 59.3801 75.6424C59.7249 75.7713 60.0681 75.8358 60.4097 75.8358C60.7062 75.8358 60.9221 75.7665 61.0575 75.6279C61.1928 75.4861 61.2605 75.3298 61.2605 75.159C61.2605 75.0366 61.2202 74.9077 61.1397 74.7723C61.0623 74.6337 60.8867 74.5081 60.6128 74.3953L59.4478 73.907C59.0482 73.7395 58.7178 73.5171 58.4568 73.2399C58.199 72.9628 58.0701 72.5954 58.0701 72.1378C58.0701 71.7414 58.1732 71.3934 58.3795 71.0937C58.5857 70.7939 58.8645 70.5603 59.2157 70.3927C59.5702 70.2251 59.965 70.1414 60.4001 70.1414C60.8512 70.1414 61.275 70.1994 61.6714 70.3154C62.0678 70.4314 62.3917 70.5555 62.643 70.6876C62.6301 70.8971 62.5786 71.1017 62.4883 71.3015C62.3981 71.4981 62.2821 71.6625 62.1403 71.7946C61.8921 71.6753 61.6053 71.5674 61.2798 71.4707C60.9544 71.374 60.6627 71.3257 60.4049 71.3257C60.1181 71.3257 59.9086 71.3917 59.7765 71.5239C59.6476 71.656 59.5831 71.7962 59.5831 71.9444C59.5831 72.0798 59.6282 72.199 59.7185 72.3021C59.8119 72.4021 59.9666 72.4971 60.1825 72.5874L61.3669 73.0804C61.673 73.2061 61.934 73.364 62.15 73.5542C62.3691 73.7411 62.5351 73.9554 62.6479 74.1971C62.7639 74.4355 62.8219 74.695 62.8219 74.9753C62.8219 75.3621 62.7284 75.7101 62.5415 76.0195C62.3578 76.3289 62.0791 76.5738 61.7052 76.7542C61.3346 76.9347 60.869 77.025 60.3082 77.025C59.915 77.025 59.4993 76.9637 59.061 76.8413C58.626 76.7156 58.2312 76.5383 57.8767 76.3095ZM0.262012 88.3095C0.281348 88.1 0.345801 87.8938 0.455371 87.6908C0.568164 87.4877 0.695459 87.325 0.837256 87.2025C1.11118 87.3669 1.42056 87.5135 1.76538 87.6424C2.11021 87.7713 2.45342 87.8358 2.79502 87.8358C3.0915 87.8358 3.30742 87.7665 3.44277 87.6279C3.57813 87.4861 3.6458 87.3298 3.6458 87.159C3.6458 87.0366 3.60552 86.9077 3.52495 86.7723C3.44761 86.6337 3.27197 86.5081 2.99805 86.3953L1.83306 85.907C1.43345 85.7395 1.10313 85.5171 0.84209 85.2399C0.584277 84.9628 0.455371 84.5954 0.455371 84.1378C0.455371 83.7414 0.558496 83.3934 0.764746 83.0937C0.970996 82.7939 1.24976 82.5603 1.60103 82.3927C1.95552 82.2251 2.35029 82.1414 2.78535 82.1414C3.23652 82.1414 3.6603 82.1994 4.05669 82.3154C4.45308 82.4314 4.77695 82.5555 5.02832 82.6876C5.01543 82.8971 4.96387 83.1017 4.87363 83.3015C4.7834 83.4981 4.66738 83.6625 4.52559 83.7946C4.27744 83.6753 3.99063 83.5674 3.66514 83.4707C3.33965 83.374 3.048 83.3257 2.79019 83.3257C2.50337 83.3257 2.2939 83.3917 2.16177 83.5239C2.03286 83.656 1.96841 83.7962 1.96841 83.9444C1.96841 84.0798 2.01353 84.199 2.10376 84.3021C2.19722 84.4021 2.3519 84.4971 2.56782 84.5874L3.75215 85.0804C4.0583 85.2061 4.31934 85.364 4.53525 85.5542C4.75439 85.7411 4.92036 85.9554 5.03315 86.1971C5.14917 86.4355 5.20718 86.695 5.20718 86.9753C5.20718 87.3621 5.11372 87.7101 4.92681 88.0195C4.74312 88.3289 4.46436 88.5738 4.09053 88.7542C3.71992 88.9347 3.25425 89.025 2.69351 89.025C2.30034 89.025 1.88462 88.9637 1.44634 88.8413C1.01128 88.7156 0.616504 88.5383 0.262012 88.3095ZM7.29886 85.5783C7.29886 85.8394 7.31336 86.1052 7.34236 86.3759C7.37459 86.6466 7.43421 86.8964 7.52122 87.1252C7.61146 87.354 7.74358 87.5393 7.91761 87.6811C8.09163 87.8197 8.32205 87.889 8.60887 87.889C8.89568 87.889 9.1261 87.8197 9.30013 87.6811C9.47415 87.5393 9.60467 87.354 9.69168 87.1252C9.78191 86.8964 9.84153 86.6466 9.87054 86.3759C9.90276 86.1052 9.91888 85.8394 9.91888 85.5783C9.91888 85.3173 9.90276 85.053 9.87054 84.7855C9.84153 84.5148 9.78191 84.2667 9.69168 84.0411C9.60467 83.8123 9.47415 83.6286 9.30013 83.49C9.1261 83.3482 8.89568 83.2773 8.60887 83.2773C8.32205 83.2773 8.09163 83.3482 7.91761 83.49C7.74358 83.6286 7.61146 83.8123 7.52122 84.0411C7.43421 84.2667 7.37459 84.5148 7.34236 84.7855C7.31336 85.053 7.29886 85.3173 7.29886 85.5783ZM5.76165 85.5783C5.76165 84.8919 5.86478 84.2909 6.07103 83.7752C6.27728 83.2596 6.58987 82.8584 7.00882 82.5716C7.43099 82.2848 7.96434 82.1414 8.60887 82.1414C9.25984 82.1414 9.79481 82.2864 10.2138 82.5764C10.6359 82.8665 10.9485 83.2693 11.1515 83.7849C11.3578 84.3005 11.4609 84.8983 11.4609 85.5783C11.4609 86.2647 11.3578 86.8674 11.1515 87.3862C10.9453 87.9019 10.6311 88.3047 10.2089 88.5947C9.78997 88.8815 9.25662 89.025 8.60887 89.025C8.12225 89.025 7.70008 88.9428 7.34236 88.7784C6.98465 88.6108 6.68816 88.374 6.45291 88.0678C6.22088 87.7617 6.04686 87.3975 5.93084 86.9753C5.81805 86.5532 5.76165 86.0875 5.76165 85.5783ZM16.0439 84.8629C16.0504 84.5986 16.023 84.3489 15.9617 84.1136C15.9005 83.8751 15.7893 83.6818 15.6282 83.5335C15.4671 83.3853 15.2382 83.3112 14.9418 83.3112C14.5132 83.3112 14.2054 83.5078 14.0185 83.9009C13.8316 84.2941 13.7381 84.8661 13.7381 85.617C13.7381 86.3195 13.8573 86.8497 14.0958 87.2074C14.3343 87.5619 14.6695 87.7391 15.1013 87.7391C15.43 87.7391 15.7297 87.6698 16.0004 87.5312C16.2743 87.3895 16.5273 87.2315 16.7593 87.0575C16.9011 87.1542 17.0413 87.2944 17.1799 87.4781C17.3217 87.6585 17.4087 87.8358 17.4409 88.0098C17.2572 88.1903 17.0284 88.3579 16.7545 88.5125C16.4838 88.6672 16.1841 88.7913 15.8554 88.8848C15.5299 88.9782 15.1899 89.025 14.8354 89.025C14.3327 89.025 13.9105 88.9267 13.5689 88.7301C13.2305 88.5335 12.9598 88.2708 12.7568 87.9421C12.557 87.6134 12.412 87.246 12.3217 86.84C12.2347 86.4339 12.1912 86.023 12.1912 85.6073C12.1912 84.7984 12.3185 84.1378 12.5731 83.6254C12.8277 83.113 13.1677 82.7359 13.5931 82.4942C14.0185 82.2525 14.4841 82.1317 14.9901 82.1317C15.4864 82.1317 15.9182 82.2203 16.2856 82.3976C16.6562 82.5748 16.943 82.8149 17.1461 83.1178C17.3491 83.4175 17.4506 83.7543 17.4506 84.1281C17.4506 84.4117 17.3765 84.6196 17.2282 84.7517C17.0832 84.8806 16.877 84.9451 16.6095 84.9451C16.5031 84.9451 16.4049 84.937 16.3146 84.9209C16.2276 84.9048 16.1374 84.8854 16.0439 84.8629ZM18.4744 82.2815C18.5904 82.259 18.7193 82.2445 18.8611 82.238C19.0062 82.2316 19.1238 82.2284 19.214 82.2284C19.3139 82.2284 19.4316 82.2316 19.5669 82.238C19.7055 82.2445 19.8344 82.259 19.9536 82.2815V88.8848C19.8344 88.9073 19.7055 88.9218 19.5669 88.9283C19.4316 88.9347 19.3139 88.9379 19.214 88.9379C19.1238 88.9379 19.0062 88.9347 18.8611 88.9283C18.7193 88.9218 18.5904 88.9073 18.4744 88.8848V82.2815ZM21.4621 82.3492L21.5297 82.2815H22.9122V83.4949C22.9122 83.6302 22.9139 83.7495 22.9171 83.8526C22.9203 83.9557 22.9219 84.0733 22.9219 84.2055V87.0188C22.9219 87.1381 22.9203 87.2477 22.9171 87.3476C22.9139 87.4475 22.9122 87.5603 22.9122 87.6859V88.9089H22.308C22.0437 88.9089 21.8359 88.8316 21.6844 88.6769C21.5362 88.5222 21.4621 88.3111 21.4621 88.0437V82.3492ZM25.0924 84.9644C25.1214 85.0546 25.1423 85.1578 25.1552 85.2738C25.1713 85.3866 25.1794 85.4833 25.1794 85.5638C25.1794 85.6476 25.1713 85.7459 25.1552 85.8587C25.1423 85.9683 25.1214 86.0698 25.0924 86.1632H23.5697C23.4891 86.1632 23.3763 86.1632 23.2313 86.1632C23.0895 86.16 22.9429 86.1568 22.7914 86.1536C22.6432 86.1503 22.5175 86.1487 22.4143 86.1487V84.9789C22.5175 84.9757 22.6432 84.9741 22.7914 84.9741C22.9429 84.9708 23.0895 84.9692 23.2313 84.9692C23.3763 84.966 23.4891 84.9644 23.5697 84.9644H25.0924ZM25.658 82.2815C25.6805 82.3911 25.695 82.4942 25.7015 82.5909C25.7079 82.6876 25.7111 82.7778 25.7111 82.8616C25.7111 82.9454 25.6998 83.0485 25.6773 83.171C25.658 83.2902 25.6289 83.4062 25.5903 83.519H23.5697C23.4891 83.519 23.3763 83.519 23.2313 83.519C23.0895 83.5158 22.9429 83.5126 22.7914 83.5094C22.6432 83.5062 22.5175 83.5029 22.4143 83.4997V82.2815H25.658ZM25.8948 87.6714C25.8948 88.0807 25.8304 88.3901 25.7015 88.5996C25.5726 88.8058 25.3131 88.9089 24.9232 88.9089H22.4143V87.7198C22.6142 87.7101 22.8059 87.7004 22.9896 87.6908C23.1765 87.6779 23.386 87.6714 23.618 87.6714H25.8948ZM26.3518 83.5094C26.3292 83.3998 26.3131 83.2918 26.3034 83.1855C26.297 83.0792 26.2938 82.9841 26.2938 82.9003C26.2938 82.8165 26.297 82.7198 26.3034 82.6103C26.3131 82.5007 26.3292 82.3911 26.3518 82.2815H31.0891C31.1374 82.4491 31.1616 82.6376 31.1616 82.8471C31.1616 83.0888 31.0988 83.2596 30.9731 83.3595C30.8474 83.4594 30.6508 83.5094 30.3833 83.5094H30.0546C29.9837 83.5094 29.8822 83.5078 29.7501 83.5045C29.6212 83.5013 29.5213 83.4997 29.4504 83.4997H27.9712C27.9003 83.4997 27.8004 83.5013 27.6715 83.5045C27.5426 83.5078 27.441 83.5094 27.3669 83.5094H26.3518ZM27.9712 84.2151C27.9712 84.083 27.9728 83.9654 27.976 83.8623C27.9792 83.7559 27.9808 83.6351 27.9808 83.4997V82.8906H29.4407V83.4997C29.4407 83.6351 29.4423 83.7559 29.4455 83.8623C29.4488 83.9654 29.4504 84.083 29.4504 84.2151V88.8848C29.3247 88.9073 29.1958 88.9218 29.0636 88.9283C28.9315 88.9347 28.8139 88.9379 28.7108 88.9379C28.6109 88.9379 28.4932 88.9347 28.3579 88.9283C28.2258 88.9218 28.0968 88.9073 27.9712 88.8848V84.2151ZM33.0066 85.9602H34.4858V88.8848C34.3666 88.9073 34.2393 88.9218 34.1039 88.9283C33.9718 88.9347 33.8558 88.9379 33.7559 88.9379C33.6656 88.9379 33.548 88.9347 33.403 88.9283C33.258 88.9218 33.1258 88.9073 33.0066 88.8848V85.9602ZM34.9692 82.2815C35.0723 82.259 35.1738 82.2445 35.2737 82.238C35.3736 82.2316 35.4719 82.2284 35.5686 82.2284C35.6943 82.2284 35.8216 82.2364 35.9505 82.2525C36.0794 82.2687 36.1938 82.2944 36.2937 82.3299L36.3517 82.4121L34.4084 87.0285H33.1033L31.1407 82.4556C31.2728 82.3814 31.4178 82.3218 31.5757 82.2767C31.7336 82.2284 31.8899 82.2042 32.0446 82.2042C32.2541 82.2042 32.4152 82.2509 32.528 82.3444C32.6408 82.4378 32.7391 82.5893 32.8229 82.7988L33.3256 84.0459C33.403 84.2458 33.4787 84.4601 33.5528 84.6889C33.627 84.9177 33.6962 85.1578 33.7607 85.4091H33.8139C33.8558 85.2512 33.9025 85.0901 33.9541 84.9257C34.0056 84.7614 34.0588 84.6002 34.1136 84.4423C34.1716 84.2844 34.228 84.1362 34.2828 83.9976L34.9692 82.2815Z" fill="#0A1354"/>
<path d="M48.6769 65.7965C47.2894 65.5545 46.6983 65.2846 46.1243 64.6309L45.6424 64.082L45.7388 62.801C45.8261 61.6405 45.8002 61.437 45.4637 60.64C45.1743 59.9545 45.1236 59.6777 45.2339 59.3874C45.3118 59.1825 45.4138 58.4731 45.4606 57.8111C45.5337 56.7748 45.5019 56.518 45.2317 55.9644C44.7886 55.0564 44.0669 54.6093 42.9267 54.5367C41.1743 54.4251 40.6092 55.1253 40.3257 57.76C40.232 58.63 40.0548 59.4847 39.9205 59.7144C39.4162 60.5766 38.1214 61.1542 35.8635 61.5241C35.1185 61.6462 34.2931 61.7812 34.0293 61.8241C33.7655 61.8671 33.5496 61.9648 33.5496 62.0412C33.5496 62.1244 34.807 62.1709 36.6858 62.157C38.8469 62.1411 39.9933 62.1909 40.3731 62.3173C41.1178 62.565 41.5191 63.1067 41.5191 63.8642C41.5191 64.3796 41.4421 64.533 41.0105 64.8774C40.6539 65.162 40.3318 65.2833 39.9331 65.2833C39.6203 65.2833 39.2971 65.3506 39.2147 65.433C39.1135 65.5342 38.6617 65.5026 37.8201 65.3356C36.0726 64.9888 34.2462 65.0228 32.2952 65.4383C29.7309 65.9844 26.4067 65.8188 23.1079 64.9805C20.9994 64.4448 20.7885 63.992 21.7356 62.0336C22.2036 61.0658 22.3333 60.6278 22.3333 60.015C22.3333 59.3171 22.2996 59.2324 22.0218 59.2324C21.8375 59.2324 21.2351 59.6794 20.5461 60.3276C18.3224 62.4196 16.4178 63.3225 13.9211 63.4685C12.9071 63.5277 12.3503 63.4684 11.017 63.1581C8.4201 62.554 7.09992 62.6909 5.88807 63.6898C5.28325 64.1884 4.86634 64.9757 5.00952 65.3488C5.2489 65.9726 3.15165 65.3626 1.68143 64.3809C-0.442251 62.9627 -0.266405 61.5093 2.16934 60.348C3.64637 59.6437 5.48877 59.1047 10.748 57.8381C15.6198 56.6649 16.4854 56.4088 17.7615 55.7631C20.2969 54.4803 21.6373 52.7269 23.0631 48.8277C24.3936 45.1894 24.5799 44.7165 25.1337 43.5733C25.4326 42.9562 26.1279 41.7634 26.6788 40.9227C29.6402 36.4029 31.7071 34.5162 36.7883 31.6948C39.6263 30.1189 40.7663 28.8265 41.2975 26.5824C41.418 26.0735 41.619 24.5614 41.7442 23.222C42.0083 20.397 42.2805 18.7744 42.783 17.0299C42.9873 16.3206 43.1423 15.3968 43.142 14.89C43.1408 13.8985 42.8194 11.7748 42.4811 10.5299C42.3598 10.0834 42.2598 9.55633 42.2588 9.3585L42.2571 8.99885L42.6891 9.41272C42.9267 9.64037 43.2004 10.0181 43.2973 10.2521C43.6151 11.0192 43.7329 10.7018 43.7329 9.07864C43.7329 8.19929 43.7748 7.43789 43.8261 7.38663C44.2453 6.96744 45.9973 9.51912 46.8439 11.7818C47.2996 12.9998 47.665 13.1072 49.5727 12.5838C51.1887 12.1405 52.0175 12.1736 53.1782 12.728C54.0057 13.1232 54.2997 13.1859 55.3182 13.1843C56.0795 13.1832 56.8311 13.0784 57.4344 12.8893C57.9489 12.728 58.5846 12.596 58.847 12.596C59.1094 12.596 59.6452 12.4867 60.0375 12.353C60.7159 12.1218 60.7607 12.1232 60.9493 12.3812C61.1586 12.6674 61.2148 13.9947 61.0521 14.8083C60.852 15.8086 59.6634 16.616 57.163 17.45C55.4504 18.0213 54.4327 18.5268 54.4327 18.8062C54.4327 19.7063 58.3674 19.7987 59.5689 18.9268L59.9824 18.6267L60.2806 19.0058C60.4446 19.2143 60.6713 19.3849 60.7843 19.3849C60.8973 19.3849 61.0569 19.5103 61.1389 19.6636C61.2533 19.8774 61.2115 20.056 60.9591 20.4304C60.487 21.1309 59.8992 21.4182 58.4055 21.6784C55.521 22.1807 54.8618 22.561 54.4456 23.9625C53.9401 25.6648 54.0897 26.4905 55.542 30.0109C57.4009 34.5169 58.1754 38.8653 57.5155 41.0897C57.0028 42.8175 56.2944 43.8309 54.5493 45.3329C53.566 46.1792 53.4834 46.297 53.3167 47.0911C53.085 48.195 53.2355 53.0203 53.5434 54.3621C53.6644 54.8897 53.895 56.2512 54.0558 57.3876C54.427 60.0117 54.5035 60.397 54.7504 60.8883C55.0129 61.4103 55.3754 61.5929 56.4515 61.745C57.815 61.9378 58.3967 62.4784 58.514 63.6622L58.565 64.1764L56.794 64.2908C55.8199 64.3538 54.7676 64.3758 54.4554 64.3399L53.8878 64.2745L53.9888 64.8158C54.0443 65.1135 54.1004 65.4179 54.1136 65.4922C54.1855 65.8983 50.4572 66.107 48.6769 65.7965V65.7965ZM51.8477 61.6306C51.8465 60.9204 51.7967 60.2655 51.737 60.1754C51.6774 60.0852 51.3961 59.8933 51.112 59.7489C50.4293 59.4019 50.379 59.304 50.3764 58.3172C50.3752 57.8545 50.2953 57.124 50.1989 56.6938L50.0236 55.9117L49.9162 56.6108C49.8571 56.9953 49.6895 57.6594 49.5436 58.0866C49.164 59.1983 49.1919 61.0075 49.6027 61.9278C49.95 62.7056 50.267 62.8983 51.2227 62.9126L51.85 62.922L51.8476 61.6306L51.8477 61.6306Z" fill="#E7717D" fill-opacity="0.0666667"/>
<path d="M66.7129 61.9357L65.8581 61.5456L65.6345 61.8648C65.417 62.1753 65.3243 62.1839 62.1931 62.1839H58.9753L58.437 61.6763C58.0411 61.3028 57.7137 61.143 57.1988 61.0719C55.3772 60.8203 55.3403 60.774 55.0074 58.3145C54.8835 57.3988 54.6244 55.7862 54.4317 54.731C54.1026 52.9292 53.9561 50.3214 54.0383 47.7314L54.0638 46.9304L55.4578 45.6169C56.9661 44.1957 57.557 43.3925 58.0579 42.0819C58.3364 41.3533 58.4722 41.1919 59.0628 40.8874C60.0228 40.3925 60.705 39.3654 60.705 38.4148C60.705 37.5189 59.8699 34.934 59.23 33.8491C58.6605 32.8835 58.461 32.3929 58.5677 32.2203C58.6109 32.1504 58.96 32.1885 59.3435 32.3049C60.2872 32.5912 60.289 32.5906 60.1787 32.0031C60.0614 31.3778 60.1807 31.3657 60.847 31.9354C61.4262 32.4304 61.7586 32.4829 62.0521 32.1254C62.1635 31.9897 62.7479 31.6502 63.3507 31.371C64.3628 30.9021 64.521 30.8705 65.4168 30.9571C66.2165 31.0344 66.4799 31.0006 66.9157 30.7651C67.2066 30.608 67.5093 30.5234 67.5884 30.5772C67.8781 30.7739 68.2318 31.4136 68.2318 31.7408C68.2318 31.9257 68.2911 32.077 68.3636 32.077C68.7185 32.077 68.6451 32.6269 68.1878 33.3946C67.5881 34.4014 67.3463 35.0636 67.3463 35.6992C67.3463 36.5092 67.923 38.1398 68.676 39.4588C69.6351 41.1389 69.946 41.8956 70.2175 43.21C70.7938 46.0003 70.3395 47.5369 67.7575 51.5299C66.4146 53.6066 66.2729 53.9778 66.395 55.1C66.6646 57.5782 67.6994 59.4317 69.1513 60.0373C69.7875 60.3026 70.0874 60.7041 70.2292 61.4805C70.3211 61.9832 70.2953 62.0447 69.9354 62.1815C69.1651 62.4744 67.6377 62.3579 66.7129 61.9357V61.9357ZM64.3946 59.6239C64.3946 59.5146 64.2997 59.2324 64.1837 58.9967C64.0677 58.761 63.9058 58.0775 63.824 57.4779C63.7422 56.8783 63.6091 56.3216 63.5283 56.2408C63.2737 55.9862 62.9207 56.2517 62.6386 56.9097C62.3548 57.5719 61.5405 58.3967 61.0018 58.5677C60.3197 58.7842 61.1478 59.4633 62.3284 59.6558C63.6133 59.8652 64.3946 59.8532 64.3946 59.6239V59.6239Z" fill="black" stroke="black" stroke-width="0.147816"/>
<path d="M40.8855 61.6485C40.8345 61.5975 40.4159 61.5145 39.9552 61.464L39.1177 61.3722L39.6885 61.0032C40.0024 60.8003 40.3934 60.421 40.5572 60.1603C40.9297 59.5678 41.4147 59.4592 43.0727 59.5973C44.0161 59.6759 44.3234 59.7538 44.3234 59.9145C44.3234 60.0317 44.4894 60.4552 44.6923 60.8557C44.8953 61.2561 45.0613 61.6192 45.0613 61.6624C45.0613 61.7742 40.9976 61.7606 40.8855 61.6485V61.6485Z" fill="black" stroke="black" stroke-width="0.147816"/>
<path d="M66.754 61.9419C65.8895 61.5394 65.8857 61.5392 65.6589 61.863C65.4432 62.1709 65.2595 62.1879 62.167 62.1879C59.054 62.1879 58.8885 62.1723 58.5965 61.8497C58.1547 61.3614 57.5995 61.1149 56.6534 60.9868C55.361 60.8118 55.3516 60.7927 54.8292 57.2729C54.646 56.0383 54.3932 54.4851 54.2674 53.8214C53.9913 52.3646 53.9428 47.417 54.1993 46.8702C54.2946 46.667 54.7372 46.2111 55.1827 45.8571C55.6283 45.5031 56.2771 44.8744 56.6244 44.4599C57.2537 43.7089 58.2033 42.0143 58.2072 41.6352C58.2083 41.5255 58.6082 41.1708 59.0958 40.8471C60.0648 40.2037 60.5401 39.566 60.698 38.6972C60.8354 37.9409 60.0249 35.3303 59.1741 33.7891C58.4252 32.4323 58.352 32.0108 58.893 32.1684C59.0921 32.2264 59.4789 32.3149 59.7526 32.365C60.2351 32.4534 60.2478 32.4406 60.1743 31.9398C60.1059 31.4741 60.1283 31.4394 60.4026 31.5862C60.5698 31.6757 60.8438 31.9004 61.0114 32.0856C61.3996 32.5146 61.4961 32.5088 62.1399 32.0177C62.4317 31.7952 63.1182 31.4312 63.6656 31.2087C64.473 30.8806 64.8123 30.8245 65.4637 30.9109C66.0724 30.9916 66.4253 30.9458 66.9224 30.7217C67.5645 30.4321 67.5827 30.4325 67.8079 30.7404C67.9344 30.9132 68.0806 31.2357 68.1329 31.4569C68.1852 31.6782 68.3425 31.9908 68.4825 32.1516C68.7179 32.4222 68.6861 32.5383 68.0586 33.7001C67.552 34.6381 67.3811 35.1343 67.3836 35.6601C67.3881 36.5756 67.9767 38.2238 68.8243 39.694C70.2338 42.1387 70.7654 44.8874 70.2029 46.8224C69.8481 48.0427 69.3161 49.0726 67.7142 51.6402C66.4919 53.5993 66.4149 53.7761 66.4149 54.6232C66.4149 56.3132 67.1945 58.4462 68.1295 59.3144C68.3811 59.548 68.8867 59.8893 69.253 60.0728C69.9107 60.4023 70.2764 60.9957 70.2764 61.7332C70.2764 62.4556 68.1306 62.5827 66.754 61.9419V61.9419ZM64.3978 59.4929C64.1502 58.9154 63.8664 57.8993 63.7349 57.1198C63.6252 56.4693 63.5379 56.3153 63.2789 56.3153C63.0733 56.3153 62.8672 56.5089 62.7032 56.8563C62.4001 57.4981 61.5167 58.4373 61.0879 58.5733C60.6034 58.7271 60.7331 59.0603 61.3869 59.3418C62.1037 59.6504 62.507 59.7234 63.6566 59.7526C64.4204 59.772 64.5048 59.7424 64.3978 59.4929V59.4929Z" fill="#026670"/>
<path d="M40.5202 61.559L39.1624 61.2904L39.7371 60.9513C40.0531 60.7648 40.4445 60.3875 40.6067 60.1129L40.9016 59.6137L42.4356 59.6161C43.2794 59.6175 44.0429 59.6718 44.1323 59.7368C44.3317 59.8818 45.0964 61.5207 45.0026 61.602C44.9654 61.6342 44.2472 61.6981 43.4066 61.7441C42.3295 61.8029 41.477 61.7483 40.5202 61.559V61.559Z" fill="#026670"/>
<path d="M50.0788 61.3169C49.9776 61.0746 49.8328 60.2481 49.8325 59.9103V59.6845L50.1523 60.012C50.5123 60.3807 50.6855 60.4864 51.017 60.5394C51.1956 60.5679 51.2588 60.6092 51.3028 60.7259C51.4001 60.9843 51.4259 61.1714 51.3894 61.3537L51.3542 61.5299H50.7611H50.168L50.0788 61.3169Z" fill="#026670"/>
<path d="M28.9702 37.6589V37.5576L28.9988 37.5228C29.4128 37.0187 29.8155 36.5719 30.2404 36.1451C30.446 35.9387 30.6386 35.7539 30.8394 35.5707L30.8727 35.5404H31.2583H31.6438V36.6503V37.7602H30.307H28.9702V37.6589Z" fill="#9C84B6"/>
<path d="M23.2952 47.9901C23.2952 47.9815 23.5351 47.2829 23.7124 46.7753C24.4692 44.6087 25.0622 43.2943 25.8564 42.0224C26.2654 41.3674 26.9911 40.2608 27.4119 39.6504C28.4649 38.1228 29.3007 37.0878 30.2493 36.1365C31.8457 34.5357 33.595 33.3312 37.1609 31.3773C37.9248 30.9588 38.1969 30.7943 38.5758 30.5224C39.9987 29.5009 40.8262 28.2642 41.2413 26.5384C41.443 25.6997 41.5468 24.8859 41.6918 23.0079L41.7014 22.8835H44.9419H48.1824V35.4409V47.9983H35.7388C28.8948 47.9983 23.2952 47.9947 23.2952 47.9902V47.9901Z" fill="#9C84B6"/>
<path d="M11.7405 57.6685C11.7405 57.5342 11.7423 57.5178 11.7581 57.513C11.7678 57.51 12.0879 57.433 12.4696 57.3419C14.1672 56.9365 14.9973 56.7318 15.3254 56.6377C17.3281 56.0636 18.8448 55.2253 20.0475 54.0276C21.0837 52.9957 21.8643 51.7277 22.6011 49.8795C22.8385 49.2839 23.038 48.7332 23.4207 47.6169C24.1572 45.4683 24.5826 44.394 25.1106 43.3481C25.5087 42.5597 25.8956 41.9231 26.8628 40.4648L27.1311 40.0603H30.1303H33.1295V48.9397V57.8191H22.435H11.7405V57.6685Z" fill="#9C84B6"/>
<path d="M52.0791 66.1922C51.6528 66.1023 51.529 66.0955 51.3396 66.1517C51.2109 66.1898 50.7907 66.2172 50.3725 66.2147C49.0953 66.207 47.5395 65.8664 46.8259 65.4383C46.4484 65.2119 45.8529 64.5902 45.6888 64.2512C45.5404 63.9445 45.5388 63.8715 45.6597 62.9C45.7914 61.841 45.7297 61.3912 45.3395 60.5656C45.1823 60.2331 45.0537 59.8913 45.0537 59.8061C45.0537 59.7209 45.1036 59.4713 45.1645 59.2514C45.4332 58.282 45.4669 56.7188 45.2322 56.1174C45.052 55.6558 44.7265 55.3136 44.2394 55.0739C43.5515 54.7354 42.7674 54.6244 42.1664 54.7803C41.1349 55.0479 40.6761 56.0741 40.5076 58.491C40.4333 59.5554 40.3296 59.8367 39.8255 60.3397C39.6193 60.5455 39.2842 60.8065 39.0808 60.9196C38.2766 61.3672 36.9751 61.6993 35.1273 61.9285C34.5954 61.9945 34.1346 62.0574 34.1034 62.0684C34.0721 62.0794 35.16 62.0744 36.521 62.0573C39.6429 62.0181 40.331 62.0813 40.9911 62.4682C41.3179 62.6597 41.6164 63.0214 41.6866 63.3108C41.7183 63.442 41.7379 63.8286 41.7299 64.17C41.7168 64.7376 41.7045 64.7998 41.5865 64.8953C41.5155 64.9528 41.4195 64.9998 41.3733 64.9998C41.327 64.9998 41.1742 65.1182 41.0336 65.2628L40.778 65.5258L40.22 65.4862L39.662 65.4467L39.4775 65.6271C39.3011 65.7994 39.2788 65.8057 38.9736 65.7684C38.7979 65.747 38.2645 65.6564 37.7881 65.5671C35.6337 65.1635 34.7806 65.1934 32.0454 65.7684C31.5191 65.8791 30.7429 65.9974 30.3205 66.0313C28.1217 66.2078 23.5111 65.5403 21.944 64.8185C21.4696 64.6 21.0745 64.2025 21.0147 63.8835C20.9337 63.4515 21.0558 63.1115 21.8319 61.6105C22.1639 60.9682 22.2428 60.6507 22.2428 59.956C22.2428 59.1987 22.2047 59.2128 20.897 60.4557C18.967 62.2901 17.7764 63.0015 15.8229 63.4878C14.8978 63.7181 14.4541 63.7748 13.5963 63.7726C12.6916 63.7703 12.3131 63.7116 10.8658 63.3498C9.67356 63.0518 9.40458 63.0089 8.73123 63.0089C7.66228 63.0089 6.65598 63.3886 5.92063 64.0694C5.30449 64.6398 5.13177 65.0982 5.31877 65.6666C5.35236 65.7688 5.33112 65.8063 5.20801 65.8624C4.72638 66.0819 2.63895 65.3033 1.56275 64.5028C1.00427 64.0874 0.448833 63.4991 0.24406 63.1061C0.031892 62.6989 0.0242458 62.1368 0.225492 61.7414C0.588035 61.0292 1.54232 60.3943 3.14384 59.7997C4.54896 59.2781 6.68564 58.71 12.2595 57.3762C15.4572 56.611 16.3485 56.3441 17.4076 55.8347C19.5258 54.816 20.9226 53.3954 22.0155 51.1483C22.4939 50.1648 22.6691 49.718 23.421 47.5646C24.6574 44.0233 25.0705 43.1643 26.7843 40.5701C29.6759 36.1932 31.4956 34.5287 36.3503 31.8204C37.0543 31.4277 37.8739 30.9522 38.1718 30.7638C39.9824 29.6184 40.9679 28.1139 41.3528 25.9074C41.484 25.1549 41.5509 24.5693 41.6694 23.1324C41.9183 20.1154 42.16 18.6997 42.7439 16.8372C43.0601 15.8287 43.1261 15.0705 43.0036 13.8519C42.9079 12.9007 42.7377 11.9829 42.4006 10.6014C42.0734 9.26035 42.054 9.02486 42.2703 9.02486C42.5763 9.02486 43.1795 9.59289 43.4422 10.1284C43.5281 10.3036 43.6204 10.447 43.6473 10.447C43.6741 10.447 43.6899 9.78781 43.6822 8.98217C43.6721 7.91903 43.6872 7.4823 43.7373 7.38941C44.0517 6.80618 45.3568 8.25384 46.4314 10.3778C46.6733 10.856 46.9482 11.4932 47.0421 11.7939C47.2536 12.4704 47.3126 12.5616 47.6374 12.7142C47.9777 12.8742 48.2963 12.8682 48.8124 12.692C49.7344 12.3774 50.8592 12.1502 51.5192 12.1454C52.0497 12.1415 52.4243 12.2538 53.359 12.6968C54.0463 13.0225 54.1836 13.0671 54.6673 13.1215C55.5626 13.2223 56.4594 13.1173 57.3758 12.8045C57.9151 12.6205 58.8472 12.4391 59.2576 12.4383C59.3575 12.4383 59.6647 12.363 59.9402 12.2714C60.7754 11.9937 60.8125 11.9932 61.0526 12.2589C61.1658 12.3843 61.2869 12.5846 61.3216 12.7042C61.5103 13.3536 61.4318 14.823 61.1784 15.3844C60.9481 15.8945 60.1895 16.5554 59.3411 16.985C59.2054 17.0538 58.4832 17.3129 57.7362 17.5609C55.6879 18.241 54.6958 18.7141 54.6958 19.0108C54.6958 19.21 55.2722 19.3915 56.0276 19.4301C57.8941 19.5255 59.2941 19.2322 59.8014 18.6394L59.9932 18.4155L60.1034 18.5405C60.164 18.6092 60.2777 18.781 60.356 18.9222C60.4788 19.1436 60.5406 19.1924 60.8053 19.2772C61.2422 19.4172 61.4944 19.6879 61.493 20.0151C61.4918 20.2661 61.2099 20.7543 60.8799 21.0764C60.3985 21.5463 60.0764 21.6809 59.0294 21.8499C57.2552 22.1362 56.1826 22.4196 55.6344 22.7466C54.898 23.186 54.4398 24.3826 54.4412 25.8629C54.4424 26.8437 54.4605 26.903 55.6183 29.6742C56.8831 32.7012 57.5778 35.1189 57.9359 37.7396C58.0503 38.5775 58.0493 39.911 57.9335 40.6003C57.7483 41.7039 57.2831 42.8126 56.6176 43.737C56.2405 44.2607 55.3406 45.1496 54.6813 45.6496C54.1019 46.0889 53.9585 46.238 53.7778 46.5889C53.5149 47.0994 53.4727 47.5369 53.4732 49.7454C53.4744 52.5746 53.553 53.5927 53.8718 54.8743C54.0857 55.7339 54.1735 56.2659 54.384 57.9745C54.6508 60.1405 54.8385 60.9111 55.1907 61.2861C55.3426 61.4477 55.7269 61.5702 56.2316 61.6179C57.3074 61.7195 57.7606 61.8853 58.1543 62.3211C58.5197 62.7256 58.7924 63.4249 58.8218 64.0328C58.8369 64.3457 58.8306 64.3591 58.635 64.43C58.4149 64.5098 55.4583 64.6247 54.6639 64.5843L54.1201 64.5567L54.2258 64.8696C54.2838 65.0417 54.3466 65.3454 54.3652 65.5446C54.3983 65.8988 54.3956 65.908 54.245 65.9652C54.1603 65.9974 53.9711 66.0246 53.8245 66.0256C53.6432 66.0267 53.4853 66.0721 53.3305 66.1675C53.0537 66.3379 52.7943 66.3431 52.079 66.1922H52.0791ZM51.8231 61.7271C51.8231 60.4784 51.7843 60.3003 51.471 60.1091C51.3674 60.0459 51.1627 59.9542 51.016 59.9054C50.8535 59.8512 50.6735 59.7326 50.5552 59.6016L50.361 59.3866L50.3277 58.5099C50.3094 58.0278 50.2628 57.4669 50.2242 57.2635L50.1539 56.8937L50.0829 57.2724C50.0439 57.4806 49.9224 57.9286 49.813 58.2678C49.5576 59.0598 49.4674 59.6895 49.5055 60.4146C49.5394 61.0593 49.7183 61.8854 49.9064 62.2659C50.1107 62.6794 50.2531 62.7478 50.9881 62.7857C51.3378 62.8038 51.6688 62.823 51.7235 62.8284C51.8153 62.8374 51.8231 62.7511 51.8231 61.7271V61.7271Z" fill="#9C84B6"/>
<path d="M67.8945 62.3826C67.3091 62.3365 67.0719 62.2724 66.6844 62.0556C66.3937 61.8929 65.9004 61.6501 65.8874 61.6633C65.8828 61.6681 65.8283 61.7617 65.7665 61.8712C65.6146 62.1404 65.4961 62.2222 65.2028 62.2603C64.975 62.2899 59.069 62.2689 58.8908 62.2378C58.8318 62.2275 58.7876 62.1927 58.7486 62.1256C58.7175 62.072 58.5576 61.9059 58.3934 61.7564C58.175 61.5576 58.0297 61.4518 57.853 61.3629C57.558 61.2145 57.4578 61.1936 56.0042 60.9763C55.7191 60.9337 55.5684 60.8571 55.4603 60.7C55.2106 60.3369 55.0799 59.7542 54.8653 58.0456C54.7249 56.9277 54.3912 54.9104 54.2724 54.4609C54.017 53.4952 53.9418 52.5264 53.9106 49.7973C53.8944 48.3867 53.8986 48.0738 53.9413 47.5219C53.9899 46.8924 53.992 46.8805 54.0697 46.7966C54.1131 46.7497 54.1648 46.6793 54.1846 46.6402C54.2672 46.4768 54.4084 46.3417 54.8401 46.0129C55.5796 45.4495 56.6027 44.3994 57.1338 43.6585C57.5723 43.0466 58.0176 42.0826 58.22 41.3066C58.2494 41.1939 58.2559 41.1893 58.6748 40.9844C59.2252 40.7151 59.4916 40.5379 59.7723 40.2542C60.2941 39.7271 60.6114 39.0392 60.6116 38.4345C60.6116 37.9531 60.4079 37.0815 60.0482 36.0257C59.6454 34.8434 59.5313 34.5829 59.0389 33.7216C58.5269 32.8261 58.3475 32.3548 58.4476 32.168C58.4652 32.135 58.531 32.0926 58.5938 32.0738C58.7464 32.0281 58.9602 32.0686 59.522 32.2499C59.7616 32.3272 59.9961 32.3904 60.043 32.3904C60.1228 32.3904 60.1283 32.3835 60.128 32.2838C60.128 32.2251 60.1085 32.1067 60.085 32.0207C60.0615 31.9346 60.0343 31.7674 60.0246 31.6491C60.0055 31.4157 60.0365 31.3096 60.1239 31.3096C60.2053 31.3096 60.488 31.4938 60.7466 31.7153C60.8788 31.8285 61.0529 31.9756 61.1336 32.0422C61.2775 32.1611 61.526 32.2766 61.6375 32.2766C61.6685 32.2766 61.8301 32.1662 61.9967 32.0313C62.5231 31.6047 62.911 31.3908 63.7951 31.04C64.5813 30.728 64.9643 30.6773 65.3903 30.8285C65.551 30.8856 65.629 30.8941 65.9875 30.8941C66.366 30.894 66.4157 30.8877 66.5916 30.8188C66.7961 30.7385 66.9695 30.6446 67.1924 30.4933C67.4561 30.3144 67.6629 30.3837 67.9313 30.7408C68.0047 30.8384 68.124 31.0376 68.1964 31.1833C68.3221 31.4365 68.3277 31.4583 68.3225 31.672L68.3172 31.8956L68.459 31.9875C68.6462 32.1088 68.7303 32.3098 68.7108 32.5895C68.695 32.8183 68.6395 32.9309 68.2779 33.4688C67.8531 34.1007 67.5584 34.7663 67.4643 35.3067C67.3846 35.7645 67.4839 36.3896 67.7691 37.2256C68.0668 38.0983 68.4319 38.8838 68.8603 39.5738C69.4835 40.5775 69.8196 41.3075 70.0955 42.2571C70.42 43.3738 70.5606 44.3789 70.5295 45.3602C70.4932 46.5043 70.2652 47.3322 69.6443 48.5742C69.204 49.4551 68.7655 50.1868 67.7758 51.6923C66.9363 52.9692 66.6525 53.488 66.5096 54.0068C66.4448 54.2422 66.4464 54.8364 66.5133 55.3436C66.7362 57.0354 67.3233 58.4135 68.1821 59.2611C68.5803 59.6542 68.9153 59.8642 69.3951 60.0217C69.525 60.0643 69.6842 60.1396 69.7489 60.1889C70.03 60.4033 70.2448 60.8934 70.3247 61.503C70.3721 61.8646 70.3639 61.9685 70.2787 62.0891C70.0854 62.3626 69.1311 62.4801 67.8945 62.3826H67.8945ZM64.1126 59.6949C64.1963 59.679 64.277 59.6538 64.2919 59.6389C64.3318 59.599 64.2656 59.4039 64.1517 59.2259C63.9694 58.9408 63.8398 58.4354 63.7544 57.6759C63.6723 56.9455 63.5527 56.4191 63.4571 56.368C63.3692 56.321 63.1653 56.3343 63.0764 56.3929C62.9639 56.4671 62.8457 56.654 62.7418 56.9219C62.5506 57.4154 62.3355 57.7439 61.9917 58.0677C61.7474 58.2979 61.4913 58.4645 61.1808 58.5953C61.0791 58.6382 60.9639 58.6892 60.9248 58.7088C60.6323 58.8551 61.2442 59.3051 61.9977 59.4978C62.1723 59.5425 62.8435 59.6391 63.4277 59.7036C63.6372 59.7268 63.9665 59.7226 64.1126 59.6948V59.6949Z" fill="#0A1354"/>
<path d="M41.6339 61.863C41.1931 61.8551 41.1768 61.8538 41.1148 61.8216C41.0391 61.7824 40.8662 61.7175 40.7145 61.6714C40.5443 61.6197 40.2205 61.5715 39.5726 61.5013C39.2437 61.4656 38.96 61.4333 38.9421 61.4295L38.9097 61.4226L38.9469 61.3737C38.9944 61.3115 39.0801 61.2551 39.3372 61.1172C39.5612 60.9969 39.7015 60.9072 39.8563 60.7851C40.0137 60.661 40.3232 60.3501 40.4137 60.2252C40.4591 60.1625 40.5372 60.056 40.5873 59.9886C40.6438 59.9125 40.6997 59.815 40.7347 59.731C40.7658 59.6567 40.7926 59.5942 40.7945 59.5921C40.8051 59.5799 41.0512 59.5427 41.2418 59.5245C41.3636 59.5129 41.5113 59.4965 41.5699 59.4882C41.728 59.4656 42.3678 59.4691 42.7574 59.4947C42.9451 59.507 43.1659 59.5208 43.2481 59.5252C43.6617 59.5479 44.1534 59.5964 44.347 59.6338C44.412 59.6463 44.4277 59.6544 44.4222 59.6726C44.376 59.8255 44.3858 59.9193 44.474 60.1683C44.5352 60.3411 44.6491 60.5738 44.8363 60.9086C44.9778 61.1615 45.0191 61.2516 45.0527 61.3808C45.0679 61.4394 45.0946 61.5272 45.1118 61.5759C45.1413 61.6589 45.1418 61.6666 45.12 61.6998C45.1073 61.7193 45.0968 61.7447 45.0968 61.7562C45.0968 61.7851 45.0568 61.7888 44.4711 61.8139C43.3558 61.8618 42.4381 61.8777 41.6339 61.8632V61.863Z" fill="#0A1354"/>
<path d="M50.3558 61.5815C50.2119 61.5731 50.2014 61.5703 50.1591 61.53C50.0047 61.3823 49.8645 60.8039 49.8177 60.122C49.8023 59.8964 49.8108 59.7036 49.838 59.6664C49.8481 59.6527 49.864 59.6478 49.8792 59.6536C49.8929 59.6589 49.9703 59.7443 50.0512 59.8436C50.2037 60.0305 50.3592 60.1897 50.4755 60.278C50.6408 60.4036 50.8613 60.4921 51.0463 60.5073C51.1879 60.5189 51.231 60.5351 51.2873 60.5974C51.3939 60.7154 51.4305 60.9022 51.4231 61.2918C51.4203 61.441 51.4148 61.5662 51.4108 61.57C51.3989 61.5814 50.518 61.5911 50.3558 61.5816V61.5815Z" fill="#0A1354"/>
<path d="M5.1148 57.585C0.707873 48.75 -0.197169 38.5758 2.58105 29.1016C5.35929 19.6274 11.6155 11.5532 20.0959 6.49727C28.5762 1.4413 38.6541 -0.222826 48.3097 1.83834C57.9653 3.89953 66.4851 9.53374 72.1617 17.6118C77.8384 25.6898 80.2523 35.6148 78.9197 45.3977C77.5872 55.1805 72.6066 64.0982 64.9762 70.3636" stroke="#0A1354" stroke-width="1.62596"/>
</svg>
