<svg width="512" height="512" viewBox="0 0 512 512" fill="none" xmlns="http://www.w3.org/2000/svg">
<path d="M265.295 237.386C272.178 237.386 276.414 227.408 276.414 221.107C276.414 215.855 273.767 209.553 268.472 209.553C261.589 209.553 257.353 219.531 257.353 225.833C257.353 231.085 260.001 237.386 265.295 237.386ZM245.175 237.386C250.47 237.386 253.117 231.085 253.117 225.833C253.117 219.006 248.882 209.028 241.998 209.028C236.704 209.028 234.056 215.33 234.056 220.582C233.527 227.408 237.763 237.386 245.175 237.386ZM284.356 232.135C277.473 232.135 272.708 241.588 272.708 248.415C272.708 253.141 274.826 257.867 279.591 257.867C286.474 257.867 291.239 248.415 291.239 241.588C291.239 236.861 288.592 232.135 284.356 232.135ZM238.292 248.415C238.292 241.588 232.997 232.135 226.644 232.135C221.879 232.135 219.761 236.861 219.761 241.588C219.761 248.415 225.055 257.867 231.409 257.867C236.174 257.867 238.292 253.141 238.292 248.415ZM255.235 247.364C244.646 247.364 230.35 264.169 230.35 275.722C230.35 280.974 234.056 282.549 238.292 282.549C244.646 282.549 249.411 278.348 255.235 278.348C260.53 278.348 265.295 282.549 271.12 282.549C275.355 282.549 280.121 281.499 280.121 275.722C280.121 264.169 265.825 247.364 255.235 247.364Z" fill="black"/>
<path d="M256.521 189.627C225.52 189.627 200.359 214.787 200.359 245.789C200.359 276.79 225.52 301.951 256.521 301.951C287.523 301.951 312.683 276.79 312.683 245.789C312.683 214.787 287.523 189.627 256.521 189.627ZM256.521 290.718C231.698 290.718 211.592 270.612 211.592 245.789C211.592 235.399 215.13 225.851 221.083 218.269L284.04 281.227C276.195 287.395 266.5 290.739 256.521 290.718V290.718ZM291.959 273.308L229.002 210.35C236.847 204.183 246.542 200.839 256.521 200.859C281.345 200.859 301.451 220.965 301.451 245.789C301.451 256.179 297.912 265.726 291.959 273.308Z" fill="#C7CDF8"/>
<path d="M185.711 295.63C185.987 295.569 186.339 295.523 186.768 295.492C187.197 295.462 187.539 295.446 187.794 295.446C188.06 295.446 188.381 295.457 188.759 295.477C189.147 295.497 189.515 295.533 189.862 295.584L188.958 299.643L188.683 299.689C188.734 300.424 188.78 301.246 188.82 302.155C188.861 303.064 188.892 303.983 188.912 304.912C188.943 305.831 188.958 306.674 188.958 307.439V316.507C188.672 316.558 188.392 316.594 188.116 316.614C187.84 316.635 187.585 316.645 187.35 316.645C187.136 316.645 186.875 316.635 186.569 316.614C186.273 316.594 185.987 316.558 185.711 316.507V295.63ZM190.72 303.932C190.342 303.166 189.995 302.426 189.678 301.711C189.362 300.986 189.065 300.307 188.79 299.674L187.166 297.713L189.862 295.584L196.081 308.144C196.479 308.961 196.846 309.757 197.183 310.533C197.531 311.299 197.842 311.994 198.118 312.617L199.864 314.455L196.984 316.507L190.72 303.932ZM201.196 295.615V316.461C200.911 316.522 200.558 316.568 200.14 316.599C199.731 316.63 199.374 316.645 199.067 316.645C198.771 316.645 198.439 316.635 198.072 316.614C197.704 316.594 197.342 316.558 196.984 316.507L197.949 312.632L198.225 312.586C198.164 311.749 198.113 310.855 198.072 309.905C198.031 308.946 198 308.011 197.98 307.103C197.96 306.194 197.949 305.387 197.949 304.682V297.606C197.949 296.83 198.087 296.273 198.363 295.936C198.649 295.6 199.144 295.431 199.849 295.431H200.997L201.196 295.615ZM209.966 306.03C209.966 306.939 210.033 307.868 210.166 308.818C210.298 309.768 210.538 310.646 210.885 311.453C211.243 312.259 211.748 312.908 212.402 313.398C213.055 313.888 213.903 314.133 214.944 314.133C215.986 314.133 216.834 313.888 217.487 313.398C218.141 312.908 218.641 312.259 218.988 311.453C219.335 310.646 219.575 309.768 219.708 308.818C219.841 307.868 219.907 306.939 219.907 306.03C219.907 305.122 219.841 304.197 219.708 303.258C219.575 302.308 219.335 301.435 218.988 300.639C218.641 299.832 218.141 299.184 217.487 298.694C216.834 298.203 215.986 297.958 214.944 297.958C213.903 297.958 213.055 298.203 212.402 298.694C211.748 299.184 211.243 299.832 210.885 300.639C210.538 301.435 210.298 302.308 210.166 303.258C210.033 304.197 209.966 305.122 209.966 306.03ZM206.306 306.03C206.306 303.947 206.617 302.089 207.24 300.455C207.863 298.821 208.813 297.535 210.089 296.595C211.365 295.645 212.984 295.171 214.944 295.171C216.915 295.171 218.539 295.645 219.815 296.595C221.092 297.545 222.036 298.842 222.649 300.486C223.272 302.119 223.583 303.968 223.583 306.03C223.583 308.113 223.272 309.977 222.649 311.621C222.026 313.255 221.076 314.547 219.8 315.496C218.523 316.446 216.905 316.921 214.944 316.921C213.464 316.921 212.182 316.65 211.1 316.109C210.017 315.557 209.119 314.792 208.404 313.811C207.7 312.821 207.174 311.667 206.826 310.35C206.479 309.022 206.306 307.582 206.306 306.03ZM236.441 295.584C236.707 295.533 237.003 295.497 237.33 295.477C237.657 295.457 237.942 295.446 238.188 295.446C238.453 295.446 238.744 295.457 239.061 295.477C239.387 295.497 239.683 295.533 239.949 295.584V316.507C239.683 316.558 239.387 316.594 239.061 316.614C238.744 316.635 238.453 316.645 238.188 316.645C237.942 316.645 237.657 316.635 237.33 316.614C237.003 316.594 236.707 316.558 236.441 316.507V295.584ZM247.486 295.6C247.874 295.528 248.293 295.482 248.742 295.462C249.202 295.441 249.574 295.431 249.86 295.431C250.146 295.431 250.488 295.441 250.887 295.462C251.295 295.482 251.693 295.528 252.081 295.6L254.823 304.882C254.894 305.116 254.986 305.458 255.099 305.908C255.211 306.357 255.334 306.842 255.466 307.363C255.599 307.873 255.716 308.358 255.819 308.818C255.921 309.267 255.987 309.609 256.018 309.844H256.201C256.242 309.609 256.314 309.267 256.416 308.818C256.518 308.358 256.63 307.873 256.753 307.363C256.886 306.842 257.008 306.357 257.12 305.908C257.243 305.458 257.34 305.116 257.412 304.882L260.153 295.6C260.562 295.528 260.96 295.482 261.348 295.462C261.746 295.441 262.088 295.431 262.374 295.431C262.66 295.431 263.023 295.441 263.462 295.462C263.911 295.482 264.34 295.528 264.748 295.6L266.372 316.461C266.117 316.522 265.826 316.568 265.499 316.599C265.172 316.64 264.866 316.66 264.58 316.66C264.314 316.66 264.054 316.65 263.799 316.63C263.543 316.609 263.288 316.579 263.033 316.538L262.344 305.724C262.313 305.142 262.277 304.473 262.236 303.717C262.206 302.962 262.175 302.201 262.144 301.435C262.124 300.669 262.109 299.98 262.098 299.367H261.915L257.886 313.321C257.631 313.362 257.335 313.398 256.998 313.428C256.661 313.449 256.36 313.459 256.094 313.459C255.849 313.459 255.558 313.449 255.221 313.428C254.884 313.398 254.588 313.362 254.333 313.321L250.304 299.367H250.136C250.116 299.98 250.09 300.669 250.059 301.435C250.039 302.201 250.013 302.962 249.983 303.717C249.952 304.473 249.922 305.142 249.891 305.724L249.202 316.538C248.946 316.579 248.686 316.609 248.42 316.63C248.155 316.65 247.884 316.66 247.609 316.66C247.323 316.66 247.022 316.64 246.705 316.599C246.388 316.568 246.108 316.522 245.863 316.461L247.486 295.6ZM276.931 295.584C277.217 295.543 277.554 295.513 277.942 295.492C278.34 295.462 278.682 295.446 278.968 295.446C279.244 295.446 279.581 295.462 279.979 295.492C280.377 295.513 280.699 295.548 280.944 295.6L287.775 316.293C287.53 316.436 287.219 316.543 286.841 316.614C286.473 316.696 286.106 316.737 285.738 316.737C285.187 316.737 284.758 316.609 284.452 316.354C284.145 316.099 283.88 315.603 283.655 314.868L280.454 304.636C280.178 303.748 279.892 302.798 279.596 301.788C279.31 300.766 279.055 299.832 278.83 298.985H278.662C278.509 299.699 278.31 300.501 278.065 301.389C277.819 302.278 277.605 303.023 277.421 303.626L273.362 316.538C273.148 316.589 272.908 316.625 272.642 316.645C272.387 316.665 272.127 316.676 271.861 316.676C271.565 316.676 271.264 316.655 270.957 316.614C270.651 316.573 270.386 316.512 270.161 316.43L270.038 316.262L276.931 295.584ZM276.64 311.56C276.538 311.56 276.349 311.56 276.073 311.56C275.798 311.55 275.517 311.544 275.231 311.544C274.955 311.534 274.766 311.529 274.664 311.529H272.995L274.082 308.695H275.553C275.655 308.695 275.828 308.695 276.073 308.695C276.329 308.685 276.579 308.68 276.824 308.68C277.069 308.67 277.237 308.665 277.329 308.665H280.27C280.372 308.665 280.546 308.67 280.791 308.68C281.046 308.68 281.301 308.685 281.557 308.695C281.812 308.695 281.991 308.695 282.093 308.695H283.594L284.528 311.529H282.859C282.757 311.529 282.563 311.534 282.277 311.544C281.991 311.544 281.71 311.55 281.434 311.56C281.159 311.56 280.97 311.56 280.867 311.56H276.64ZM306.728 297.422C306.657 297.943 306.452 298.443 306.115 298.923C305.778 299.403 305.426 299.761 305.058 299.995C304.333 299.454 303.496 299.015 302.547 298.678C301.607 298.331 300.657 298.157 299.698 298.157C298.605 298.157 297.625 298.423 296.757 298.954C295.899 299.475 295.22 300.327 294.72 301.512C294.229 302.686 293.984 304.259 293.984 306.229C293.984 308.895 294.48 310.865 295.47 312.142C296.461 313.408 297.941 314.041 299.912 314.041C300.974 314.041 301.959 313.929 302.868 313.704C303.777 313.469 304.476 313.255 304.967 313.061L306.774 315.619C306.172 315.843 305.462 316.058 304.645 316.262C303.828 316.456 302.96 316.614 302.041 316.737C301.132 316.859 300.218 316.921 299.299 316.921C297.655 316.921 296.267 316.64 295.133 316.078C294 315.517 293.081 314.746 292.376 313.765C291.682 312.775 291.171 311.631 290.844 310.334C290.528 309.038 290.37 307.654 290.37 306.183C290.37 304.254 290.63 302.594 291.151 301.205C291.672 299.817 292.371 298.678 293.249 297.79C294.127 296.901 295.113 296.243 296.205 295.814C297.308 295.385 298.442 295.171 299.606 295.171C300.892 295.171 302.169 295.375 303.435 295.783C304.701 296.192 305.799 296.738 306.728 297.422ZM303.435 310.334C303.435 309.62 303.455 308.946 303.496 308.313C303.547 307.669 303.639 307.097 303.772 306.597L306.774 307.623V315.619L303.435 315.665V310.334ZM304.323 305.372C305.242 305.372 305.88 305.571 306.238 305.969C306.595 306.357 306.774 306.908 306.774 307.623V308.358H301.045C300.739 308.358 300.453 308.323 300.188 308.251C299.932 308.17 299.723 308.022 299.56 307.807C299.407 307.593 299.33 307.276 299.33 306.857C299.33 306.612 299.355 306.357 299.407 306.092C299.458 305.826 299.519 305.586 299.59 305.372H304.323ZM312.294 295.783L312.493 295.584H315.71V298.464C315.71 298.893 315.715 299.25 315.725 299.536C315.735 299.812 315.74 300.159 315.74 300.578V312.004C315.74 312.29 315.735 312.56 315.725 312.816C315.715 313.061 315.71 313.336 315.71 313.643V316.553H314.301C313.678 316.553 313.188 316.364 312.83 315.986C312.473 315.598 312.294 315.072 312.294 314.409V295.783ZM323.261 304.499C323.322 304.723 323.368 304.973 323.399 305.249C323.429 305.525 323.445 305.76 323.445 305.954C323.445 306.148 323.429 306.378 323.399 306.643C323.368 306.908 323.322 307.159 323.261 307.394H317.67C317.435 307.394 317.129 307.394 316.751 307.394C316.374 307.383 315.985 307.378 315.587 307.378C315.189 307.368 314.837 307.363 314.53 307.363V304.545C314.837 304.534 315.189 304.529 315.587 304.529C315.985 304.519 316.374 304.514 316.751 304.514C317.129 304.504 317.435 304.499 317.67 304.499H323.261ZM324.946 295.584C324.997 295.839 325.028 296.085 325.038 296.319C325.058 296.554 325.068 296.769 325.068 296.963C325.068 297.167 325.043 297.417 324.992 297.713C324.951 297.999 324.885 298.275 324.793 298.54H317.67C317.435 298.54 317.129 298.54 316.751 298.54C316.374 298.54 315.985 298.535 315.587 298.525C315.189 298.515 314.837 298.505 314.53 298.494V295.584H324.946ZM325.574 313.582C325.574 314.623 325.41 315.379 325.084 315.848C324.767 316.318 324.16 316.553 323.261 316.553H314.53V313.719C315.041 313.689 315.546 313.658 316.047 313.628C316.547 313.597 317.119 313.582 317.762 313.582H325.574Z" fill="black"/>
</svg>
