<svg width="55" height="56" viewBox="0 0 55 56" fill="none" xmlns="http://www.w3.org/2000/svg">
<path d="M34.6 21.6C39.8 21.6 43 14 43 9.2C43 5.2 41 0.4 37 0.4C31.8 0.4 28.6 8 28.6 12.8C28.6 16.8 30.6 21.6 34.6 21.6ZM19.4 21.6C23.4 21.6 25.4 16.8 25.4 12.8C25.4 7.6 22.2 0 17 0C13 0 11 4.8 11 8.8C10.6 14 13.8 21.6 19.4 21.6ZM49 17.6C43.8 17.6 40.2 24.8 40.2 30C40.2 33.6 41.8 37.2 45.4 37.2C50.6 37.2 54.2 30 54.2 24.8C54.2 21.2 52.2 17.6 49 17.6ZM14.2 30C14.2 24.8 10.2 17.6 5.39995 17.6C1.79995 17.6 0.199951 21.2 0.199951 24.8C0.199951 30 4.19995 37.2 8.99995 37.2C12.6 37.2 14.2 33.6 14.2 30ZM27 29.2C19 29.2 8.19995 42 8.19995 50.8C8.19995 54.8 11 56 14.2 56C19 56 22.6 52.8 27 52.8C31 52.8 34.6 56 39 56C42.2 56 45.8 55.2 45.8 50.8C45.8 42 35 29.2 27 29.2Z" fill="black"/>
</svg>
