<svg width="106" height="117" viewBox="0 0 106 117" fill="none" xmlns="http://www.w3.org/2000/svg">
<path d="M8.69238 94.1682C8.69238 94.9124 8.54114 95.5366 8.23865 96.0408C7.94096 96.5449 7.52804 96.9242 6.99988 97.1787C6.47652 97.4332 5.87634 97.5604 5.19934 97.5604H3.08191V95.9399C3.21635 95.9303 3.41801 95.9207 3.68689 95.9111C3.95577 95.9015 4.21985 95.8943 4.47913 95.8895C4.7432 95.8799 4.92566 95.8751 5.02649 95.8751C5.42501 95.8751 5.7251 95.7839 5.92676 95.6014C6.12842 95.4142 6.26526 95.1885 6.33728 94.9244C6.4093 94.6556 6.44531 94.4035 6.44531 94.1682C6.44531 93.9329 6.4093 93.6857 6.33728 93.4264C6.26526 93.1623 6.12842 92.9366 5.92676 92.7494C5.7251 92.5621 5.42501 92.4685 5.02649 92.4685C4.87284 92.4685 4.7144 92.4685 4.55115 92.4685C4.3879 92.4637 4.20785 92.4589 4.01099 92.4541V100.693C3.83333 100.727 3.64128 100.749 3.43481 100.758C3.23315 100.768 3.0579 100.773 2.90906 100.773C2.77462 100.773 2.60177 100.768 2.3905 100.758C2.17924 100.749 1.98478 100.727 1.80713 100.693V90.9272L1.90796 90.8336C2.51294 90.8192 3.07711 90.8072 3.60046 90.7976C4.12862 90.7832 4.66158 90.776 5.19934 90.776C5.87634 90.776 6.47652 90.8984 6.99988 91.1433C7.52804 91.3882 7.94096 91.7627 8.23865 92.2668C8.54114 92.7662 8.69238 93.4 8.69238 94.1682ZM11.0498 92.0358C11.2061 92.0147 11.392 91.9978 11.6075 91.9851C11.823 91.9724 12.011 91.9661 12.1716 91.9661C12.3279 91.9661 12.5138 91.9724 12.7293 91.9851C12.949 91.9978 13.1349 92.0189 13.287 92.0485L16.0313 100.567C15.8961 100.643 15.7229 100.7 15.5116 100.738C15.3004 100.78 15.1018 100.801 14.9159 100.801C14.6116 100.801 14.3729 100.731 14.1997 100.592C14.0265 100.448 13.8807 100.169 13.7624 99.7554L12.7927 96.3773C12.6913 96.0181 12.5751 95.604 12.4441 95.135C12.3173 94.666 12.2033 94.2266 12.1018 93.8167H12.0258C11.9624 94.159 11.8695 94.5519 11.7469 94.9956C11.6286 95.435 11.5209 95.8195 11.4237 96.1491L10.0674 100.706C9.94907 100.736 9.8202 100.755 9.68077 100.763C9.54134 100.772 9.39768 100.776 9.24979 100.776C9.10191 100.776 8.93712 100.765 8.75544 100.744C8.57375 100.723 8.42587 100.691 8.31179 100.649L8.24207 100.548L11.0498 92.0358ZM11.1638 98.8427C11.1047 98.8427 11.0329 98.8427 10.9483 98.8427C10.8638 98.8385 10.7793 98.8364 10.6948 98.8364C10.6146 98.8321 10.5448 98.83 10.4857 98.83H9.47796L10.0737 97.3153H10.9547C11.0138 97.3153 11.0836 97.3153 11.1638 97.3153C11.2441 97.311 11.3244 97.3089 11.4047 97.3089C11.485 97.3047 11.5526 97.3026 11.6075 97.3026H12.5772C12.6363 97.3026 12.7061 97.3047 12.7863 97.3089C12.8666 97.3089 12.9469 97.311 13.0272 97.3153C13.1075 97.3153 13.1772 97.3153 13.2363 97.3153H14.149L14.637 98.83H13.6356C13.5765 98.83 13.5046 98.8321 13.4201 98.8364C13.3356 98.8364 13.2511 98.8385 13.1666 98.8427C13.0863 98.8427 13.0166 98.8427 12.9575 98.8427H11.1638ZM19.0769 100.725H18.2593C17.9171 100.725 17.6445 100.626 17.4417 100.427C17.2389 100.224 17.1375 99.9455 17.1375 99.5906V92.0421L17.2262 91.9534H17.9361C18.3121 91.9534 18.5952 92.0506 18.7853 92.245C18.9797 92.4393 19.0769 92.752 19.0769 93.183V100.725ZM22.4994 99.0582C22.4994 99.6751 22.4001 100.108 22.2015 100.357C22.0029 100.603 21.6649 100.725 21.1874 100.725H18.2593L17.2262 99.3244C17.7586 99.2314 18.2868 99.1638 18.8107 99.1216C19.3389 99.0793 19.8205 99.0582 20.2557 99.0582H22.4994ZM22.9748 99.9392C23.0001 99.6645 23.0846 99.3941 23.2283 99.1279C23.3762 98.8617 23.5431 98.6483 23.729 98.4878C24.0881 98.7033 24.4938 98.8955 24.9459 99.0645C25.398 99.2335 25.848 99.318 26.2958 99.318C26.6846 99.318 26.9677 99.2272 27.1451 99.0455C27.3226 98.8596 27.4113 98.6547 27.4113 98.4307C27.4113 98.2702 27.3585 98.1012 27.2529 97.9237C27.1515 97.742 26.9212 97.5772 26.562 97.4293L25.0346 96.7892C24.5107 96.5695 24.0776 96.278 23.7353 95.9146C23.3973 95.5512 23.2283 95.0695 23.2283 94.4696C23.2283 93.9498 23.3635 93.4935 23.6339 93.1006C23.9043 92.7076 24.2698 92.4013 24.7304 92.1816C25.1952 91.9619 25.7128 91.852 26.2832 91.852C26.8747 91.852 27.4303 91.9281 27.95 92.0802C28.4697 92.2323 28.8944 92.3949 29.224 92.5682C29.2071 92.8428 29.1394 93.1111 29.0211 93.3731C28.9028 93.6308 28.7507 93.8463 28.5648 94.0196C28.2395 93.8632 27.8634 93.7217 27.4367 93.5949C27.0099 93.4682 26.6275 93.4048 26.2895 93.4048C25.9135 93.4048 25.6388 93.4914 25.4656 93.6646C25.2966 93.8379 25.2121 94.0217 25.2121 94.216C25.2121 94.3935 25.2712 94.5498 25.3895 94.685C25.5121 94.816 25.7149 94.9407 25.998 95.059L27.5507 95.7054C27.9521 95.8702 28.2944 96.0773 28.5775 96.3266C28.8648 96.5716 29.0824 96.8526 29.2303 97.1695C29.3824 97.4822 29.4585 97.8223 29.4585 98.1899C29.4585 98.6969 29.3359 99.1533 29.0909 99.5589C28.85 99.9645 28.4845 100.286 27.9944 100.522C27.5085 100.759 26.8979 100.877 26.1628 100.877C25.6473 100.877 25.1022 100.797 24.5276 100.636C23.9572 100.472 23.4396 100.239 22.9748 99.9392ZM35.0975 96.3582C35.0975 96.7005 35.1165 97.0491 35.1545 97.404C35.1968 97.7589 35.275 98.0864 35.389 98.3864C35.5073 98.6864 35.6806 98.9293 35.9087 99.1152C36.1369 99.2969 36.439 99.3878 36.8151 99.3878C37.1911 99.3878 37.4932 99.2969 37.7214 99.1152C37.9495 98.9293 38.1207 98.6864 38.2347 98.3864C38.3531 98.0864 38.4312 97.7589 38.4693 97.404C38.5115 97.0491 38.5326 96.7005 38.5326 96.3582C38.5326 96.016 38.5115 95.6695 38.4693 95.3188C38.4312 94.9639 38.3531 94.6386 38.2347 94.3428C38.1207 94.0428 37.9495 93.802 37.7214 93.6203C37.4932 93.4344 37.1911 93.3414 36.8151 93.3414C36.439 93.3414 36.1369 93.4344 35.9087 93.6203C35.6806 93.802 35.5073 94.0428 35.389 94.3428C35.275 94.6386 35.1968 94.9639 35.1545 95.3188C35.1165 95.6695 35.0975 96.016 35.0975 96.3582ZM33.082 96.3582C33.082 95.4583 33.2173 94.6703 33.4877 93.9942C33.7581 93.3182 34.1679 92.7921 34.7172 92.4161C35.2707 92.04 35.97 91.852 36.8151 91.852C37.6686 91.852 38.37 92.0421 38.9192 92.4224C39.4728 92.8027 39.8826 93.3308 40.1488 94.0069C40.4192 94.6829 40.5544 95.4667 40.5544 96.3582C40.5544 97.2582 40.4192 98.0483 40.1488 98.7286C39.8784 99.4047 39.4664 99.9328 38.9129 100.313C38.3636 100.689 37.6643 100.877 36.8151 100.877C36.177 100.877 35.6235 100.769 35.1545 100.554C34.6855 100.334 34.2968 100.024 33.9884 99.6223C33.6841 99.2209 33.456 98.7434 33.3039 98.1899C33.156 97.6364 33.082 97.0258 33.082 96.3582ZM43.9584 100.693C43.7936 100.723 43.6267 100.742 43.4577 100.75C43.2929 100.759 43.1429 100.763 43.0077 100.763C42.8725 100.763 42.714 100.759 42.5323 100.75C42.3549 100.742 42.1838 100.723 42.019 100.693V92.1119L42.1077 92.0358H43.9457V92.6506C43.9457 92.997 43.9478 93.3499 43.952 93.709C43.9562 94.0639 43.9584 94.4083 43.9584 94.7421V100.693ZM47.4696 92.0358C47.5034 92.1414 47.5266 92.264 47.5393 92.4034C47.5519 92.5428 47.5583 92.6675 47.5583 92.7773C47.5583 93.0942 47.4717 93.3245 47.2984 93.4682C47.1294 93.6076 46.8696 93.6773 46.5189 93.6773H44.8964C44.5752 93.6773 44.2731 93.6752 43.99 93.671C43.7112 93.6668 43.4344 93.6625 43.1598 93.6583V92.0358H47.4696ZM46.7153 95.585C46.7491 95.6949 46.7745 95.828 46.7914 95.9843C46.8083 96.1364 46.8167 96.2653 46.8167 96.3709C46.8167 96.4808 46.8083 96.6118 46.7914 96.7639C46.7745 96.916 46.7491 97.0512 46.7153 97.1695H44.2436C44.0661 97.1695 43.8844 97.1674 43.6985 97.1632C43.5126 97.1547 43.3541 97.1484 43.2232 97.1441V95.604C43.3541 95.5998 43.5126 95.5956 43.6985 95.5914C43.8844 95.5871 44.0661 95.585 44.2436 95.585H46.7153ZM57.622 94.9512C57.622 95.6061 57.4889 96.1554 57.2227 96.5991C56.9607 97.0427 56.5973 97.3765 56.1326 97.6005C55.672 97.8244 55.1438 97.9364 54.5481 97.9364H52.6847V96.5104C52.8031 96.5019 52.9805 96.4935 53.2171 96.485C53.4537 96.4765 53.6861 96.4702 53.9143 96.466C54.1467 96.4575 54.3072 96.4533 54.396 96.4533C54.7467 96.4533 55.0108 96.373 55.1882 96.2125C55.3657 96.0477 55.4861 95.8491 55.5495 95.6167C55.6128 95.3801 55.6445 95.1583 55.6445 94.9512C55.6445 94.7442 55.6128 94.5266 55.5495 94.2984C55.4861 94.066 55.3657 93.8675 55.1882 93.7027C55.0108 93.5379 54.7467 93.4555 54.396 93.4555C54.2608 93.4555 54.1213 93.4555 53.9777 93.4555C53.834 93.4513 53.6756 93.447 53.5023 93.4428V100.693C53.346 100.723 53.177 100.742 52.9953 100.75C52.8178 100.759 52.6636 100.763 52.5326 100.763C52.4143 100.763 52.2622 100.759 52.0763 100.75C51.8904 100.742 51.7193 100.723 51.5629 100.693V92.0992L51.6517 92.0168C52.1841 92.0041 52.6805 91.9935 53.1411 91.9851C53.6059 91.9724 54.0749 91.9661 54.5481 91.9661C55.1438 91.9661 55.672 92.0738 56.1326 92.2893C56.5973 92.5048 56.9607 92.8344 57.2227 93.278C57.4889 93.7175 57.622 94.2752 57.622 94.9512ZM60.1808 92.0358C60.3371 92.0147 60.523 91.9978 60.7385 91.9851C60.954 91.9724 61.142 91.9661 61.3026 91.9661C61.4589 91.9661 61.6448 91.9724 61.8603 91.9851C62.08 91.9978 62.266 92.0189 62.4181 92.0485L65.1624 100.567C65.0272 100.643 64.8539 100.7 64.6427 100.738C64.4314 100.78 64.2328 100.801 64.0469 100.801C63.7427 100.801 63.504 100.731 63.3307 100.592C63.1575 100.448 63.0117 100.169 62.8934 99.7554L61.9237 96.3773C61.8223 96.0181 61.7061 95.604 61.5751 95.135C61.4484 94.666 61.3343 94.2266 61.2329 93.8167H61.1568C61.0934 94.159 61.0005 94.5519 60.878 94.9956C60.7596 95.435 60.6519 95.8195 60.5547 96.1491L59.1984 100.706C59.0801 100.736 58.9512 100.755 58.8118 100.763C58.6724 100.772 58.5287 100.776 58.3808 100.776C58.2329 100.776 58.0682 100.765 57.8865 100.744C57.7048 100.723 57.5569 100.691 57.4428 100.649L57.3731 100.548L60.1808 92.0358ZM60.2949 98.8427C60.2357 98.8427 60.1639 98.8427 60.0794 98.8427C59.9949 98.8385 59.9104 98.8364 59.8259 98.8364C59.7456 98.8321 59.6759 98.83 59.6167 98.83H58.609L59.2048 97.3153H60.0857C60.1449 97.3153 60.2146 97.3153 60.2949 97.3153C60.3751 97.311 60.4554 97.3089 60.5357 97.3089C60.616 97.3047 60.6836 97.3026 60.7385 97.3026H61.7082C61.7674 97.3026 61.8371 97.3047 61.9174 97.3089C61.9976 97.3089 62.0779 97.311 62.1582 97.3153C62.2385 97.3153 62.3082 97.3153 62.3674 97.3153H63.28L63.768 98.83H62.7666C62.7075 98.83 62.6357 98.8321 62.5512 98.8364C62.4667 98.8364 62.3821 98.8385 62.2976 98.8427C62.2174 98.8427 62.1476 98.8427 62.0885 98.8427H60.2949ZM65.2356 92.1499C65.3835 92.0865 65.5483 92.0337 65.73 91.9914C65.9117 91.9492 66.0891 91.9281 66.2624 91.9281C66.6004 91.9281 66.8455 92.002 66.9976 92.1499C67.1539 92.2935 67.2638 92.5724 67.3271 92.9865L67.8976 96.4026C67.944 96.6688 67.9905 96.9582 68.037 97.2709C68.0835 97.5836 68.1257 97.8857 68.1638 98.1772C68.206 98.4645 68.2377 98.7096 68.2588 98.9124C68.2673 98.9927 68.2778 99.0413 68.2905 99.0582C68.3074 99.0709 68.337 99.0772 68.3792 99.0772L69.4757 92.2069C69.6658 92.1731 69.8729 92.1499 70.0968 92.1372C70.3207 92.1203 70.5257 92.1119 70.7116 92.1119C70.9102 92.1119 71.1193 92.1203 71.339 92.1372C71.563 92.1499 71.7658 92.1731 71.9475 92.2069L72.9615 98.9124C72.9742 98.9927 72.989 99.0413 73.0059 99.0582C73.027 99.0709 73.0566 99.0772 73.0946 99.0772C73.12 98.8406 73.1538 98.5659 73.196 98.2533C73.2383 97.9406 73.2848 97.6195 73.3355 97.2899C73.3862 96.9603 73.4348 96.6582 73.4812 96.3836L74.2355 92.0358C74.3791 92.0062 74.527 91.9872 74.6791 91.9788C74.8312 91.9703 74.9728 91.9661 75.1037 91.9661C75.2516 91.9661 75.408 91.9766 75.5727 91.9978C75.7375 92.0189 75.8854 92.0506 76.0164 92.0928L76.1115 92.2069L74.4129 100.681C74.1932 100.706 73.9249 100.725 73.608 100.738C73.2953 100.755 73.0122 100.763 72.7587 100.763C72.4714 100.763 72.2179 100.714 71.9982 100.617C71.7785 100.52 71.639 100.277 71.5799 99.8884L71.1235 97.0554C71.0475 96.5695 70.9735 96.0582 70.9017 95.5216C70.8341 94.985 70.7792 94.5076 70.7369 94.0893H70.6419C70.5912 94.5076 70.5278 94.985 70.4517 95.5216C70.3757 96.054 70.2954 96.5653 70.2109 97.0554L69.6025 100.681C69.3701 100.706 69.106 100.725 68.8102 100.738C68.5187 100.755 68.2419 100.763 67.98 100.763C67.6715 100.763 67.4074 100.714 67.1877 100.617C66.9722 100.52 66.8265 100.275 66.7504 99.8821L65.2356 92.1499ZM76.4384 99.9392C76.4637 99.6645 76.5482 99.3941 76.6919 99.1279C76.8398 98.8617 77.0067 98.6483 77.1926 98.4878C77.5517 98.7033 77.9573 98.8955 78.4094 99.0645C78.8616 99.2335 79.3115 99.318 79.7594 99.318C80.1481 99.318 80.4312 99.2272 80.6087 99.0455C80.7862 98.8596 80.8749 98.6547 80.8749 98.4307C80.8749 98.2702 80.8221 98.1012 80.7164 97.9237C80.615 97.742 80.3848 97.5772 80.0256 97.4293L78.4982 96.7892C77.9742 96.5695 77.5412 96.278 77.1989 95.9146C76.8609 95.5512 76.6919 95.0695 76.6919 94.4696C76.6919 93.9498 76.8271 93.4935 77.0975 93.1006C77.3679 92.7076 77.7334 92.4013 78.194 92.1816C78.6587 91.9619 79.1763 91.852 79.7467 91.852C80.3383 91.852 80.8939 91.9281 81.4136 92.0802C81.9333 92.2323 82.358 92.3949 82.6875 92.5682C82.6706 92.8428 82.603 93.1111 82.4847 93.3731C82.3664 93.6308 82.2143 93.8463 82.0284 94.0196C81.703 93.8632 81.327 93.7217 80.9002 93.5949C80.4735 93.4682 80.0911 93.4048 79.7531 93.4048C79.377 93.4048 79.1024 93.4914 78.9292 93.6646C78.7601 93.8379 78.6756 94.0217 78.6756 94.216C78.6756 94.3935 78.7348 94.5498 78.8531 94.685C78.9756 94.816 79.1784 94.9407 79.4615 95.059L81.0143 95.7054C81.4157 95.8702 81.758 96.0773 82.0411 96.3266C82.3284 96.5716 82.546 96.8526 82.6939 97.1695C82.846 97.4822 82.922 97.8223 82.922 98.1899C82.922 98.6969 82.7995 99.1533 82.5544 99.5589C82.3136 99.9645 81.9481 100.286 81.458 100.522C80.9721 100.759 80.3615 100.877 79.6263 100.877C79.1108 100.877 78.5658 100.797 77.9911 100.636C77.4207 100.472 76.9031 100.239 76.4384 99.9392ZM0.899082 115.939C0.924434 115.665 1.00894 115.394 1.1526 115.128C1.30048 114.862 1.46738 114.648 1.65329 114.488C2.01244 114.703 2.41806 114.896 2.87017 115.065C3.32227 115.234 3.77226 115.318 4.22014 115.318C4.60886 115.318 4.89195 115.227 5.06941 115.046C5.24688 114.86 5.33561 114.655 5.33561 114.431C5.33561 114.27 5.28279 114.101 5.17716 113.924C5.07575 113.742 4.84548 113.577 4.48633 113.429L2.9589 112.789C2.43496 112.57 2.00188 112.278 1.65963 111.915C1.32161 111.551 1.1526 111.07 1.1526 110.47C1.1526 109.95 1.28781 109.494 1.55822 109.101C1.82864 108.708 2.19412 108.401 2.65468 108.182C3.11946 107.962 3.63705 107.852 4.20746 107.852C4.799 107.852 5.35462 107.928 5.87433 108.08C6.39403 108.232 6.81867 108.395 7.14824 108.568C7.13134 108.843 7.06374 109.111 6.94543 109.373C6.82712 109.631 6.67501 109.846 6.4891 110.02C6.16376 109.863 5.78771 109.722 5.36096 109.595C4.93421 109.468 4.55182 109.405 4.2138 109.405C3.83775 109.405 3.56311 109.491 3.38987 109.665C3.22086 109.838 3.13636 110.022 3.13636 110.216C3.13636 110.393 3.19551 110.55 3.31382 110.685C3.43635 110.816 3.63916 110.941 3.92226 111.059L5.47504 111.705C5.87644 111.87 6.21869 112.077 6.50178 112.327C6.7891 112.572 7.0067 112.853 7.15458 113.169C7.30669 113.482 7.38274 113.822 7.38274 114.19C7.38274 114.697 7.26021 115.153 7.01515 115.559C6.77431 115.965 6.40882 116.286 5.91869 116.522C5.43279 116.759 4.82224 116.877 4.08704 116.877C3.57156 116.877 3.0265 116.797 2.45187 116.636C1.88146 116.472 1.36386 116.239 0.899082 115.939ZM10.1252 112.358C10.1252 112.7 10.1442 113.049 10.1822 113.404C10.2245 113.759 10.3026 114.086 10.4167 114.386C10.535 114.686 10.7083 114.929 10.9364 115.115C11.1646 115.297 11.4667 115.388 11.8427 115.388C12.2188 115.388 12.5209 115.297 12.7491 115.115C12.9772 114.929 13.1483 114.686 13.2624 114.386C13.3807 114.086 13.4589 113.759 13.4969 113.404C13.5392 113.049 13.5603 112.7 13.5603 112.358C13.5603 112.016 13.5392 111.67 13.4969 111.319C13.4589 110.964 13.3807 110.639 13.2624 110.343C13.1483 110.043 12.9772 109.802 12.7491 109.62C12.5209 109.434 12.2188 109.341 11.8427 109.341C11.4667 109.341 11.1646 109.434 10.9364 109.62C10.7083 109.802 10.535 110.043 10.4167 110.343C10.3026 110.639 10.2245 110.964 10.1822 111.319C10.1442 111.67 10.1252 112.016 10.1252 112.358ZM8.10972 112.358C8.10972 111.458 8.24493 110.67 8.51535 109.994C8.78576 109.318 9.19561 108.792 9.7449 108.416C10.2984 108.04 10.9977 107.852 11.8427 107.852C12.6962 107.852 13.3976 108.042 13.9469 108.422C14.5004 108.803 14.9103 109.331 15.1765 110.007C15.4469 110.683 15.5821 111.467 15.5821 112.358C15.5821 113.258 15.4469 114.048 15.1765 114.729C14.9061 115.405 14.4941 115.933 13.9406 116.313C13.3913 116.689 12.692 116.877 11.8427 116.877C11.2047 116.877 10.6512 116.769 10.1822 116.554C9.71321 116.334 9.32448 116.024 9.01604 115.622C8.71182 115.221 8.48366 114.743 8.33155 114.19C8.18366 113.636 8.10972 113.026 8.10972 112.358ZM21.5909 111.42C21.5994 111.074 21.5634 110.746 21.4832 110.438C21.4029 110.125 21.2571 109.872 21.0459 109.677C20.8346 109.483 20.5346 109.386 20.1459 109.386C19.5839 109.386 19.1804 109.644 18.9353 110.159C18.6903 110.674 18.5677 111.424 18.5677 112.409C18.5677 113.33 18.7241 114.025 19.0367 114.494C19.3494 114.959 19.7888 115.191 20.355 115.191C20.786 115.191 21.1789 115.1 21.5339 114.919C21.893 114.733 22.2247 114.526 22.5289 114.298C22.7148 114.424 22.8986 114.608 23.0803 114.849C23.2662 115.086 23.3803 115.318 23.4226 115.546C23.1817 115.783 22.8817 116.003 22.5226 116.205C22.1677 116.408 21.7747 116.571 21.3437 116.693C20.917 116.816 20.4712 116.877 20.0064 116.877C19.3473 116.877 18.7938 116.748 18.3459 116.491C17.9023 116.233 17.5473 115.888 17.2811 115.457C17.0192 115.026 16.829 114.545 16.7107 114.012C16.5967 113.48 16.5396 112.941 16.5396 112.396C16.5396 111.336 16.7065 110.47 17.0403 109.798C17.3741 109.126 17.8199 108.632 18.3776 108.315C18.9353 107.998 19.5459 107.839 20.2092 107.839C20.8599 107.839 21.4261 107.956 21.9078 108.188C22.3937 108.42 22.7698 108.735 23.0359 109.132C23.3021 109.525 23.4352 109.967 23.4352 110.457C23.4352 110.829 23.3381 111.101 23.1437 111.274C22.9536 111.443 22.6831 111.528 22.3324 111.528C22.193 111.528 22.0641 111.517 21.9458 111.496C21.8317 111.475 21.7134 111.45 21.5909 111.42ZM24.7776 108.036C24.9297 108.006 25.0987 107.987 25.2846 107.979C25.4747 107.97 25.629 107.966 25.7473 107.966C25.8783 107.966 26.0325 107.97 26.2099 107.979C26.3916 107.987 26.5606 108.006 26.717 108.036V116.693C26.5606 116.723 26.3916 116.742 26.2099 116.75C26.0325 116.759 25.8783 116.763 25.7473 116.763C25.629 116.763 25.4747 116.759 25.2846 116.75C25.0987 116.742 24.9297 116.723 24.7776 116.693V108.036ZM28.6947 108.125L28.7834 108.036H30.5961V109.627C30.5961 109.804 30.5982 109.96 30.6024 110.096C30.6066 110.231 30.6087 110.385 30.6087 110.558V114.247C30.6087 114.403 30.6066 114.547 30.6024 114.678C30.5982 114.809 30.5961 114.957 30.5961 115.122V116.725H29.8038C29.4574 116.725 29.1848 116.624 28.9862 116.421C28.7919 116.218 28.6947 115.941 28.6947 115.591V108.125ZM33.4544 111.553C33.4925 111.672 33.5199 111.807 33.5368 111.959C33.558 112.107 33.5685 112.234 33.5685 112.339C33.5685 112.449 33.558 112.578 33.5368 112.726C33.5199 112.869 33.4925 113.003 33.4544 113.125H31.458C31.3524 113.125 31.2045 113.125 31.0144 113.125C30.8285 113.121 30.6362 113.117 30.4376 113.112C30.2433 113.108 30.0785 113.106 29.9433 113.106V111.572C30.0785 111.568 30.2433 111.566 30.4376 111.566C30.6362 111.562 30.8285 111.56 31.0144 111.56C31.2045 111.555 31.3524 111.553 31.458 111.553H33.4544ZM34.196 108.036C34.2256 108.179 34.2446 108.315 34.253 108.441C34.2615 108.568 34.2657 108.686 34.2657 108.796C34.2657 108.906 34.2509 109.041 34.2213 109.202C34.196 109.358 34.158 109.51 34.1073 109.658H31.458C31.3524 109.658 31.2045 109.658 31.0144 109.658C30.8285 109.654 30.6362 109.65 30.4376 109.646C30.2433 109.641 30.0785 109.637 29.9433 109.633V108.036H34.196ZM34.5065 115.103C34.5065 115.639 34.422 116.045 34.253 116.319C34.084 116.59 33.7439 116.725 33.2326 116.725H29.9433V115.166C30.2052 115.153 30.4566 115.141 30.6975 115.128C30.9425 115.111 31.2172 115.103 31.5214 115.103H34.5065ZM35.1057 109.646C35.0761 109.502 35.055 109.36 35.0423 109.221C35.0338 109.082 35.0296 108.957 35.0296 108.847C35.0296 108.737 35.0338 108.61 35.0423 108.467C35.055 108.323 35.0761 108.179 35.1057 108.036H41.3168C41.3802 108.256 41.4119 108.503 41.4119 108.777C41.4119 109.094 41.3295 109.318 41.1647 109.449C40.9999 109.58 40.7422 109.646 40.3915 109.646H39.9605C39.8675 109.646 39.7344 109.644 39.5612 109.639C39.3922 109.635 39.2612 109.633 39.1683 109.633H37.2289C37.1359 109.633 37.0049 109.635 36.8359 109.639C36.6669 109.644 36.5338 109.646 36.4366 109.646H35.1057ZM37.2289 110.571C37.2289 110.398 37.231 110.243 37.2352 110.108C37.2394 109.969 37.2415 109.81 37.2415 109.633V108.834H39.1556V109.633C39.1556 109.81 39.1577 109.969 39.1619 110.108C39.1661 110.243 39.1683 110.398 39.1683 110.571V116.693C39.0035 116.723 38.8345 116.742 38.6612 116.75C38.488 116.759 38.3338 116.763 38.1986 116.763C38.0676 116.763 37.9134 116.759 37.7359 116.75C37.5627 116.742 37.3936 116.723 37.2289 116.693V110.571ZM43.8309 112.859H45.7703V116.693C45.6139 116.723 45.447 116.742 45.2696 116.75C45.0963 116.759 44.9442 116.763 44.8132 116.763C44.6949 116.763 44.5407 116.759 44.3506 116.75C44.1604 116.742 43.9872 116.723 43.8309 116.693V112.859ZM46.404 108.036C46.5393 108.006 46.6724 107.987 46.8033 107.979C46.9343 107.97 47.0632 107.966 47.1899 107.966C47.3547 107.966 47.5216 107.977 47.6906 107.998C47.8596 108.019 48.0096 108.053 48.1406 108.099L48.2167 108.207L45.6689 114.26H43.9576L41.3844 108.264C41.5577 108.167 41.7478 108.089 41.9548 108.029C42.1619 107.966 42.3668 107.934 42.5696 107.934C42.8443 107.934 43.0555 107.996 43.2034 108.118C43.3513 108.241 43.4802 108.439 43.59 108.714L44.2492 110.349C44.3506 110.611 44.4499 110.892 44.547 111.192C44.6442 111.492 44.7351 111.807 44.8196 112.136H44.8893C44.9442 111.929 45.0055 111.718 45.0731 111.503C45.1407 111.287 45.2104 111.076 45.2822 110.869C45.3583 110.662 45.4322 110.467 45.5041 110.286L46.404 108.036Z" fill="white"/>
<path d="M64.3762 86.5774C62.557 86.2601 61.782 85.9062 61.0294 85.0491L60.3977 84.3295L60.524 82.6499C60.6385 81.1284 60.6045 80.8616 60.1633 79.8166C59.784 78.9179 59.7174 78.555 59.8621 78.1744C59.9642 77.9057 60.098 76.9756 60.1592 76.1076C60.2551 74.7489 60.2134 74.4123 59.8592 73.6864C59.2782 72.4959 58.3319 71.9098 56.8371 71.8146C54.5394 71.6683 53.7986 72.5863 53.4268 76.0407C53.304 77.1812 53.0717 78.3019 52.8955 78.603C52.2343 79.7335 50.5367 80.4908 47.5764 80.9758C46.5996 81.1359 45.5174 81.3128 45.1716 81.3692C44.8257 81.4255 44.5427 81.5535 44.5427 81.6537C44.5427 81.7629 46.1912 81.8238 48.6545 81.8056C51.488 81.7848 52.991 81.8501 53.4889 82.0157C54.4654 82.3405 54.9916 83.0507 54.9916 84.044C54.9916 84.7197 54.8906 84.9208 54.3247 85.3723C53.8571 85.7454 53.4349 85.9045 52.9121 85.9045C52.502 85.9045 52.0782 85.9928 51.9702 86.1007C51.8376 86.2334 51.2452 86.1921 50.1417 85.9731C47.8506 85.5184 45.4559 85.5629 42.8979 86.1077C39.5359 86.8237 35.1776 86.6066 30.8525 85.5075C28.0879 84.8051 27.8114 84.2114 29.0531 81.6438C29.6668 80.3749 29.8368 79.8006 29.8368 78.9972C29.8368 78.0822 29.7926 77.9711 29.4285 77.9711C29.1868 77.9711 28.397 78.5572 27.4936 79.407C24.578 82.1498 22.081 83.3337 18.8074 83.525C17.4781 83.6027 16.748 83.525 14.9998 83.1181C11.5951 82.3261 9.86416 82.5056 8.27528 83.8153C7.4823 84.4689 6.93568 85.5012 7.1234 85.9904C7.43726 86.8083 4.68754 86.0085 2.75992 84.7213C-0.0244696 82.862 0.206084 80.9564 3.39961 79.4337C5.33616 78.5104 7.75176 77.8037 14.6472 76.1431C21.0346 74.6048 22.1695 74.2691 23.8427 73.4225C27.1669 71.7406 28.9243 69.4416 30.7937 64.3294C32.538 59.5591 32.7824 58.9391 33.5084 57.4403C33.9004 56.6312 34.812 55.0673 35.5342 53.965C39.4169 48.0391 42.1269 45.5654 48.7889 41.8663C52.5099 39.8001 54.0045 38.1055 54.701 35.1633C54.8589 34.4961 55.1225 32.5135 55.2867 30.7575C55.633 27.0535 55.9899 24.9262 56.6487 22.639C56.9166 21.709 57.1197 20.4978 57.1193 19.8333C57.1178 18.5333 56.6964 15.7489 56.2529 14.1167C56.0938 13.5313 55.9626 12.8402 55.9614 12.5809L55.9591 12.1093L56.5255 12.652C56.837 12.9504 57.1959 13.4457 57.323 13.7524C57.7396 14.7582 57.894 14.342 57.894 12.2139C57.894 11.061 57.949 10.0627 58.0162 9.99553C58.5658 9.44592 60.8629 12.7915 61.9729 15.7581C62.5704 17.355 63.0495 17.4958 65.5507 16.8096C67.6695 16.2283 68.7561 16.2718 70.2779 16.9986C71.3628 17.5168 71.7484 17.599 73.0836 17.597C74.0818 17.5954 75.0673 17.4581 75.8582 17.2101C76.5329 16.9987 77.3663 16.8256 77.7104 16.8256C78.0544 16.8256 78.7568 16.6822 79.2713 16.5069C80.1606 16.2039 80.2194 16.2057 80.4667 16.5439C80.7411 16.9192 80.8148 18.6594 80.6014 19.7261C80.3391 21.0376 78.7807 22.0962 75.5024 23.1898C73.257 23.9388 71.9226 24.6016 71.9226 24.9679C71.9226 26.148 77.0815 26.2691 78.6568 25.126L79.199 24.7325L79.59 25.2296C79.805 25.5029 80.1021 25.7266 80.2503 25.7266C80.3985 25.7266 80.6077 25.891 80.7153 26.092C80.8653 26.3723 80.8104 26.6065 80.4795 27.0974C79.8606 28.0159 79.0899 28.3925 77.1314 28.7336C73.3496 29.3923 72.4853 29.8908 71.9396 31.7283C71.2768 33.9603 71.473 35.0428 73.3771 39.6584C75.8143 45.5663 76.8298 51.2676 75.9645 54.184C75.2924 56.4493 74.3636 57.778 72.0756 59.7473C70.7863 60.8568 70.6781 61.0113 70.4595 62.0525C70.1558 63.4998 70.353 69.8263 70.7567 71.5856C70.9154 72.2774 71.2177 74.0624 71.4285 75.5523C71.9152 78.9929 72.0155 79.498 72.3393 80.1422C72.6834 80.8266 73.1587 81.066 74.5696 81.2654C76.3573 81.5181 77.12 82.227 77.2738 83.7791L77.3406 84.4532L75.0186 84.6033C73.7415 84.6858 72.3618 84.7147 71.9525 84.6676L71.2083 84.5818L71.3406 85.2915C71.4134 85.6819 71.4871 86.0809 71.5043 86.1784C71.5985 86.7109 66.7104 86.9845 64.3762 86.5774ZM68.5335 81.1154C68.5319 80.1842 68.4666 79.3256 68.3884 79.2074C68.3102 79.0892 67.9414 78.8376 67.5689 78.6483C66.6738 78.1933 66.6079 78.065 66.6044 76.7712C66.6029 76.1645 66.498 75.2067 66.3716 74.6427L66.1418 73.6174L66.0011 74.5339C65.9236 75.038 65.7038 75.9087 65.5125 76.4688C65.0149 77.9264 65.0514 80.2984 65.59 81.5051C66.0453 82.5249 66.461 82.7775 67.7141 82.7962L68.5364 82.8085L68.5334 81.1154L68.5335 81.1154Z" fill="#E7717D" fill-opacity="0.0666667"/>
<path d="M88.0236 81.5156L86.9029 81.0041L86.6098 81.4225C86.3246 81.8297 86.2031 81.841 82.0978 81.841H77.8789L77.1731 81.1754C76.6539 80.6858 76.2247 80.4763 75.5497 80.3831C73.1613 80.0532 73.1129 79.9924 72.6765 76.7677C72.514 75.5671 72.1743 73.4529 71.9216 72.0693C71.4902 69.707 71.298 66.2879 71.4059 62.8922L71.4393 61.8419L73.267 60.1198C75.2446 58.2564 76.0192 57.2033 76.676 55.485C77.0412 54.5297 77.2192 54.3181 77.9936 53.9189C79.2523 53.27 80.1467 51.9233 80.1467 50.677C80.1467 49.5024 79.0518 46.1133 78.2128 44.6909C77.4661 43.4249 77.2045 42.7817 77.3444 42.5553C77.401 42.4637 77.8588 42.5136 78.3616 42.6662C79.5989 43.0417 79.6012 43.0409 79.4567 42.2706C79.3029 41.4508 79.4593 41.4349 80.3329 42.1818C81.0923 42.8308 81.5281 42.8996 81.9128 42.4309C82.0589 42.253 82.8251 41.8079 83.6154 41.4418C84.9424 40.8271 85.1498 40.7856 86.3244 40.8991C87.3728 41.0004 87.7182 40.9562 88.2896 40.6474C88.6709 40.4414 89.0678 40.3305 89.1716 40.401C89.5514 40.659 90.0151 41.4977 90.0151 41.9267C90.0151 42.1691 90.0928 42.3674 90.1879 42.3674C90.6532 42.3674 90.5571 43.0885 89.9575 44.095C89.1711 45.415 88.8541 46.2832 88.8541 47.1166C88.8541 48.1786 89.6102 50.3164 90.5975 52.0459C91.855 54.2487 92.2626 55.2407 92.6186 56.9641C93.3743 60.6224 92.7786 62.6371 89.3932 67.8724C87.6326 70.5951 87.4468 71.0818 87.6069 72.5531C87.9604 75.8023 89.3171 78.2325 91.2206 79.0265C92.0548 79.3744 92.448 79.9007 92.634 80.9187C92.7544 81.5778 92.7206 81.6584 92.2487 81.8378C91.2388 82.2218 89.2362 82.0691 88.0236 81.5156ZM84.9841 78.4845C84.9841 78.3412 84.8597 77.9712 84.7076 77.6621C84.5555 77.3531 84.3433 76.4571 84.236 75.6709C84.1288 74.8848 83.9543 74.1548 83.8483 74.0489C83.5145 73.7151 83.0517 74.0632 82.6818 74.9259C82.3097 75.794 81.2421 76.8755 80.5358 77.0997C79.6414 77.3835 80.7272 78.274 82.2752 78.5263C83.9598 78.8009 84.9841 78.7851 84.9841 78.4845Z" fill="black" stroke="black" stroke-width="0.193803"/>
<path d="M54.1605 81.1391C54.0937 81.0723 53.5449 80.9634 52.9409 80.8972L51.8428 80.7769L52.5912 80.2931C53.0028 80.0271 53.5153 79.5298 53.7302 79.188C54.2185 78.4111 54.8545 78.2687 57.0283 78.4498C58.2652 78.5528 58.668 78.655 58.668 78.8657C58.668 79.0193 58.8857 79.5746 59.1518 80.0997C59.4178 80.6247 59.6355 81.1007 59.6355 81.1574C59.6355 81.304 54.3076 81.2862 54.1605 81.1391Z" fill="black" stroke="black" stroke-width="0.193803"/>
<path d="M88.0775 81.5238C86.944 80.9962 86.939 80.9958 86.6416 81.4204C86.3589 81.8241 86.118 81.8465 82.0633 81.8465C77.9819 81.8465 77.7648 81.8259 77.3821 81.403C76.8027 80.7628 76.0749 80.4396 74.8344 80.2716C73.1399 80.0421 73.1276 80.0172 72.4427 75.4023C72.2025 73.7836 71.871 71.7472 71.7061 70.877C71.3441 68.967 71.2806 62.4801 71.6168 61.7632C71.7418 61.4967 72.322 60.899 72.9062 60.4349C73.4904 59.9708 74.341 59.1464 74.7964 58.603C75.6215 57.6184 76.8665 55.3966 76.8716 54.8996C76.8731 54.7557 77.3973 54.2907 78.0366 53.8662C79.3072 53.0226 79.9303 52.1865 80.1373 51.0475C80.3175 50.0559 79.2548 46.6331 78.1394 44.6124C77.1574 42.8335 77.0615 42.2809 77.7708 42.4875C78.0318 42.5636 78.539 42.6796 78.8978 42.7453C79.5305 42.8612 79.5471 42.8444 79.4507 42.1878C79.3611 41.5771 79.3905 41.5317 79.75 41.7241C79.9693 41.8415 80.3285 42.1362 80.5482 42.379C81.0572 42.9414 81.1837 42.9338 82.0279 42.2899C82.4104 41.9982 83.3105 41.5209 84.0282 41.2293C85.0868 40.7991 85.5316 40.7254 86.3857 40.8387C87.1838 40.9446 87.6465 40.8846 88.2982 40.5907C89.1401 40.2111 89.164 40.2115 89.4592 40.6152C89.625 40.8418 89.8167 41.2646 89.8853 41.5547C89.9538 41.8447 90.1601 42.2546 90.3437 42.4655C90.6523 42.8202 90.6107 42.9725 89.7879 44.4957C89.1237 45.7255 88.8996 46.3762 88.903 47.0656C88.9088 48.2658 89.6806 50.4268 90.7919 52.3543C92.6399 55.5597 93.3368 59.1635 92.5993 61.7005C92.1341 63.3005 91.4366 64.6507 89.3363 68.0172C87.7338 70.5858 87.6328 70.8176 87.6328 71.9282C87.6328 74.1441 88.6549 76.9406 89.8809 78.0789C90.2107 78.3852 90.8736 78.8327 91.3539 79.0733C92.2162 79.5053 92.6956 80.2833 92.6956 81.2503C92.6956 82.1974 89.8823 82.364 88.0775 81.5238ZM84.9882 78.313C84.6636 77.5558 84.2914 76.2236 84.1191 75.2015C83.9752 74.3486 83.8608 74.1467 83.5212 74.1467C83.2516 74.1467 82.9814 74.4006 82.7664 74.8561C82.369 75.6976 81.2107 76.9289 80.6486 77.1073C80.0133 77.3089 80.1833 77.7458 81.0405 78.1148C81.9803 78.5194 82.5092 78.6152 84.0164 78.6535C85.0178 78.6789 85.1285 78.6401 84.9882 78.313Z" fill="#026670"/>
<path d="M53.6821 81.0218L51.9019 80.6695L52.6554 80.225C53.0698 79.9805 53.5829 79.4858 53.7956 79.1258L54.1822 78.4712L56.1935 78.4745C57.2997 78.4763 58.3007 78.5474 58.418 78.6327C58.6795 78.8228 59.6821 80.9715 59.559 81.0781C59.5103 81.1203 58.5687 81.2041 57.4665 81.2644C56.0543 81.3416 54.9367 81.2699 53.6821 81.0217V81.0218Z" fill="#026670"/>
<path d="M66.2146 80.7042C66.0818 80.3864 65.892 79.3028 65.8916 78.86V78.5638L66.3109 78.9932C66.7829 79.4767 67.01 79.6152 67.4446 79.6847C67.6787 79.7221 67.7616 79.7763 67.8192 79.9292C67.9468 80.268 67.9807 80.5133 67.9329 80.7523L67.8867 80.9834H67.1091H66.3315L66.2146 80.7042Z" fill="#026670"/>
<path d="M38.5386 49.6861V49.5533L38.576 49.5077C39.1189 48.8467 39.6468 48.2609 40.2039 47.7013C40.4734 47.4306 40.726 47.1884 40.9892 46.9482L41.0329 46.9084H41.5385H42.044V48.3636V49.8188H40.2913H38.5386V49.6861Z" fill="white"/>
<path d="M31.0981 63.2315C31.0981 63.2201 31.4127 62.3042 31.6452 61.6387C32.6375 58.7981 33.4149 57.0748 34.4563 55.4072C34.9925 54.5484 35.9439 53.0975 36.4956 52.2972C37.8763 50.2943 38.972 48.9374 40.2158 47.6901C42.3088 45.5912 44.6023 44.012 49.2777 41.4503C50.2792 40.9015 50.636 40.6859 51.1327 40.3293C52.9984 38.9901 54.0833 37.3686 54.6275 35.1059C54.8919 34.0062 55.0281 32.9393 55.2182 30.4771L55.2308 30.3139H59.4794H63.7281V46.778V63.2422H47.4131C38.4399 63.2422 31.0981 63.2374 31.0981 63.2316V63.2315Z" fill="white"/>
<path d="M15.9487 75.9209C15.9487 75.7449 15.9512 75.7233 15.9718 75.717C15.9846 75.7132 16.4043 75.6122 16.9046 75.4928C19.1304 74.9612 20.2188 74.6928 20.649 74.5695C23.2747 73.8168 25.2632 72.7176 26.8402 71.1473C28.1987 69.7944 29.2222 68.1319 30.1882 65.7087C30.4995 64.9278 30.761 64.2058 31.2628 62.7422C32.2284 59.9252 32.7861 58.5166 33.4785 57.1454C34.0004 56.1116 34.5076 55.277 35.7758 53.365L36.1276 52.8346H40.0599H43.9922V64.4765V76.1184H29.9704H15.9487V75.9209Z" fill="white"/>
<path d="M68.8372 87.0964C68.2783 86.9786 68.1161 86.9697 67.8677 87.0433C67.699 87.0933 67.1481 87.1291 66.5998 87.1258C64.9252 87.1159 62.8853 86.6692 61.9497 86.108C61.4548 85.8111 60.6741 84.996 60.4589 84.5516C60.2643 84.1495 60.2622 84.0537 60.4207 82.7799C60.5934 81.3915 60.5125 80.8018 60.0009 79.7193C59.7949 79.2834 59.6263 78.8353 59.6263 78.7236C59.6263 78.6118 59.6916 78.2845 59.7715 77.9962C60.1237 76.7253 60.168 74.6757 59.8603 73.8872C59.624 73.282 59.1972 72.8333 58.5586 72.5191C57.6567 72.0753 56.6287 71.9297 55.8406 72.1341C54.4882 72.4849 53.8867 73.8305 53.6657 76.9993C53.5684 78.3949 53.4323 78.7636 52.7715 79.4231C52.5011 79.693 52.0617 80.0351 51.7951 80.1835C50.7407 80.7703 49.0342 81.2057 46.6116 81.5062C45.9142 81.5927 45.3101 81.6753 45.2691 81.6897C45.2281 81.7041 46.6545 81.6975 48.4389 81.6751C52.532 81.6237 53.4342 81.7066 54.2997 82.2138C54.7282 82.4649 55.1196 82.9391 55.2115 83.3186C55.2532 83.4906 55.2788 83.9975 55.2684 84.4451C55.2511 85.1892 55.235 85.2708 55.0803 85.3961C54.9872 85.4714 54.8614 85.5331 54.8008 85.5331C54.7401 85.5331 54.5397 85.6882 54.3554 85.8779L54.0203 86.2227L53.2887 86.1708L52.5571 86.1189L52.3152 86.3554C52.084 86.5814 52.0547 86.5897 51.6545 86.5408C51.4242 86.5126 50.7248 86.3939 50.1002 86.2769C47.2756 85.7476 46.157 85.7868 42.5709 86.5408C41.8808 86.6859 40.8631 86.841 40.3093 86.8854C37.4265 87.1169 31.3814 86.2416 29.3268 85.2953C28.7049 85.0088 28.1869 84.4876 28.1084 84.0694C28.0021 83.503 28.1624 83.0573 29.1798 81.0893C29.6152 80.2472 29.7186 79.8308 29.7186 78.92C29.7186 77.9271 29.6687 77.9456 27.9541 79.5753C25.4237 81.9803 23.8627 82.9131 21.3014 83.5506C20.0884 83.8526 19.5068 83.927 18.382 83.924C17.196 83.921 16.6996 83.8441 14.8021 83.3697C13.2389 82.979 12.8862 82.9227 12.0034 82.9227C10.6019 82.9227 9.28254 83.4205 8.31841 84.3132C7.51059 85.0611 7.28413 85.662 7.5293 86.4073C7.57334 86.5412 7.5455 86.5905 7.38408 86.664C6.75261 86.9518 4.01576 85.9309 2.60474 84.8814C1.87251 84.3368 1.14428 83.5654 0.875795 83.0502C0.597619 82.5163 0.587594 81.7793 0.85145 81.261C1.32678 80.3272 2.57795 79.4947 4.67772 78.7152C6.52 78.0312 9.32143 77.2864 16.6293 75.5376C20.8219 74.5343 21.9905 74.1844 23.3791 73.5166C26.1563 72.1809 27.9877 70.3184 29.4206 67.3722C30.0478 66.0827 30.2775 65.4969 31.2633 62.6735C32.8844 58.0305 33.426 56.9043 35.673 53.503C39.4642 47.7644 41.8501 45.5821 48.2151 42.0311C49.1381 41.5162 50.2127 40.8929 50.6032 40.6458C52.9772 39.1441 54.2692 37.1716 54.7739 34.2785C54.946 33.2919 55.0336 32.5242 55.189 30.6402C55.5154 26.6846 55.8322 24.8285 56.5978 22.3865C57.0124 21.0643 57.0989 20.0702 56.9382 18.4725C56.8129 17.2253 56.5896 16.022 56.1477 14.2107C55.7188 12.4524 55.6933 12.1437 55.9769 12.1437C56.3781 12.1437 57.169 12.8884 57.5133 13.5905C57.626 13.8203 57.747 14.0082 57.7822 14.0082C57.8174 14.0082 57.8381 13.144 57.828 12.0877C57.8148 10.6938 57.8346 10.1212 57.9002 9.99943C58.3125 9.23474 60.0236 11.1328 61.4325 13.9175C61.7497 14.5445 62.1101 15.38 62.2333 15.7742C62.5105 16.6611 62.5879 16.7807 63.0137 16.9809C63.4599 17.1906 63.8776 17.1827 64.5543 16.9517C65.7631 16.5392 67.2378 16.2414 68.1032 16.2351C68.7987 16.23 69.2899 16.3772 70.5153 16.9579C71.4166 17.385 71.5966 17.4435 72.2308 17.5148C73.4046 17.6469 74.5804 17.5093 75.7819 17.0992C76.489 16.8579 77.711 16.6201 78.2491 16.6191C78.3801 16.6191 78.7828 16.5204 79.1441 16.4003C80.2391 16.0361 80.2878 16.0356 80.6025 16.3839C80.751 16.5482 80.9097 16.8109 80.9552 16.9677C81.2026 17.8191 81.0997 19.7457 80.7675 20.4817C80.4656 21.1505 79.471 22.017 78.3586 22.5803C78.1806 22.6705 77.2337 23.0102 76.2544 23.3354C73.5688 24.2271 72.2681 24.8474 72.2681 25.2363C72.2681 25.4975 73.0238 25.7355 74.0142 25.7861C76.4614 25.9112 78.2969 25.5266 78.9622 24.7494L79.2135 24.4558L79.358 24.6197C79.4375 24.7098 79.5866 24.935 79.6893 25.1201C79.8502 25.4104 79.9312 25.4744 80.2783 25.5857C80.8511 25.7692 81.1818 26.1241 81.18 26.5531C81.1784 26.8822 80.8088 27.5222 80.3761 27.9446C79.7449 28.5607 79.3226 28.7372 77.9499 28.9587C75.6238 29.3342 74.2174 29.7056 73.4987 30.1344C72.5332 30.7105 71.9325 32.2794 71.9343 34.2202C71.9358 35.5061 71.9595 35.5839 73.4776 39.2172C75.1358 43.186 76.0467 46.3558 76.5162 49.7919C76.6663 50.8904 76.6648 52.6388 76.5131 53.5426C76.2702 54.9895 75.6604 56.4431 74.7877 57.6551C74.2933 58.3418 73.1135 59.5072 72.249 60.1628C71.4895 60.7388 71.3015 60.9343 71.0645 61.3943C70.7198 62.0636 70.6644 62.6373 70.6651 65.5328C70.6667 69.2422 70.7698 70.577 71.1878 72.2574C71.4681 73.3844 71.5833 74.0819 71.8593 76.3221C72.209 79.162 72.4552 80.1724 72.917 80.6639C73.116 80.8758 73.6199 81.0364 74.2817 81.099C75.6922 81.2322 76.2863 81.4495 76.8025 82.0209C77.2817 82.5513 77.6392 83.4681 77.6777 84.2652C77.6976 84.6754 77.6893 84.693 77.4329 84.786C77.1442 84.8906 73.2678 85.0413 72.2263 84.9883L71.5133 84.9521L71.6518 85.3623C71.728 85.5879 71.8102 85.9862 71.8346 86.2473C71.878 86.7117 71.8745 86.7237 71.6771 86.7988C71.566 86.841 71.3179 86.8766 71.1258 86.8779C70.888 86.8795 70.681 86.9389 70.478 87.064C70.1152 87.2875 69.775 87.2942 68.8372 87.0964H68.8372ZM68.5016 81.2422C68.5016 79.605 68.4508 79.3714 68.04 79.1208C67.9042 79.038 67.6358 78.9178 67.4435 78.8537C67.2304 78.7827 66.9944 78.6271 66.8393 78.4554L66.5847 78.1736L66.541 77.0241C66.517 76.3919 66.4559 75.6565 66.4053 75.3899L66.3132 74.9051L66.2201 75.4015C66.1689 75.6746 66.0096 76.2619 65.8661 76.7067C65.5313 77.7451 65.4131 78.5706 65.4631 79.5213C65.5075 80.3665 65.742 81.4497 65.9886 81.9486C66.2565 82.4907 66.4432 82.5804 67.4068 82.6301C67.8654 82.6538 68.2993 82.679 68.3711 82.6861C68.4914 82.6979 68.5016 82.5848 68.5016 81.2422Z" fill="white"/>
<path d="M89.5729 82.1016C88.8054 82.0411 88.4945 81.9571 87.9864 81.6728C87.6053 81.4595 86.9585 81.1412 86.9415 81.1585C86.9353 81.1648 86.8639 81.2874 86.7829 81.431C86.5838 81.784 86.4285 81.8912 86.0439 81.9412C85.7452 81.98 78.0017 81.9524 77.7682 81.9118C77.6908 81.8982 77.6329 81.8525 77.5817 81.7645C77.5409 81.6943 77.3313 81.4765 77.1159 81.2805C76.8297 81.0199 76.6391 80.8812 76.4074 80.7646C76.0206 80.5701 75.8893 80.5427 73.9835 80.2577C73.6097 80.2018 73.4121 80.1014 73.2704 79.8954C72.9429 79.4195 72.7716 78.6555 72.4903 76.4153C72.3062 74.9496 71.8686 72.3047 71.7128 71.7154C71.378 70.4491 71.2795 69.179 71.2385 65.6008C71.2173 63.7514 71.2228 63.3412 71.2787 62.6175C71.3425 61.7921 71.3453 61.7766 71.4471 61.6666C71.504 61.605 71.5718 61.5127 71.5977 61.4614C71.7061 61.2473 71.8912 61.0702 72.4571 60.639C73.4268 59.9004 74.7681 58.5236 75.4644 57.5521C76.0394 56.7499 76.6232 55.486 76.8886 54.4686C76.9272 54.3209 76.9357 54.3148 77.4849 54.0461C78.2065 53.693 78.5558 53.4607 78.9239 53.0888C79.608 52.3977 80.024 51.4957 80.0243 50.7029C80.0243 50.0717 79.7572 48.9289 79.2856 47.5447C78.7575 45.9946 78.6079 45.6531 77.9623 44.5238C77.291 43.3496 77.0558 42.7318 77.187 42.4868C77.2101 42.4436 77.2964 42.388 77.3787 42.3633C77.5788 42.3034 77.8591 42.3566 78.5957 42.5942C78.9098 42.6955 79.2172 42.7785 79.2788 42.7785C79.3833 42.7785 79.3907 42.7694 79.3903 42.6386C79.3903 42.5617 79.3646 42.4065 79.3338 42.2937C79.303 42.1809 79.2674 41.9616 79.2547 41.8065C79.2296 41.5005 79.2703 41.3614 79.3849 41.3614C79.4916 41.3614 79.8622 41.6028 80.2013 41.8933C80.3746 42.0417 80.6029 42.2346 80.7087 42.322C80.8974 42.4777 81.2231 42.6293 81.3693 42.6293C81.41 42.6293 81.6219 42.4845 81.8402 42.3076C82.5304 41.7482 83.0391 41.4679 84.1982 41.0079C85.229 40.5989 85.7311 40.5323 86.2896 40.7306C86.5004 40.8054 86.6026 40.8167 87.0727 40.8166C87.569 40.8165 87.6341 40.8083 87.8647 40.7179C88.1328 40.6127 88.3601 40.4895 88.6525 40.2911C88.9981 40.0566 89.2693 40.1474 89.6213 40.6156C89.7175 40.7436 89.8739 41.0047 89.9687 41.1958C90.1335 41.5278 90.1409 41.5564 90.1342 41.8365L90.1271 42.1297L90.3131 42.2502C90.5585 42.4092 90.6687 42.6727 90.6433 43.0395C90.6225 43.3394 90.5497 43.4871 90.0756 44.1923C89.5186 45.0208 89.1323 45.8935 89.009 46.602C88.9044 47.2023 89.0346 48.0219 89.4086 49.118C89.7989 50.2621 90.2775 51.292 90.8392 52.1966C91.6563 53.5126 92.0969 54.4698 92.4587 55.7147C92.8842 57.1789 93.0685 58.4967 93.0277 59.7833C92.9802 61.2833 92.6813 62.3688 91.8672 63.9972C91.2898 65.1522 90.715 66.1115 89.4173 68.0854C88.3167 69.7595 87.9446 70.4397 87.7572 71.1199C87.6722 71.4286 87.6743 72.2076 87.762 72.8726C88.0543 75.0907 88.8241 76.8976 89.95 78.0089C90.4721 78.5243 90.9113 78.7996 91.5404 79.0061C91.7107 79.062 91.9194 79.1607 92.0043 79.2254C92.3729 79.5065 92.6544 80.1491 92.7592 80.9482C92.8214 81.4224 92.8107 81.5586 92.6989 81.7168C92.4455 82.0753 91.1942 82.2294 89.573 82.1016H89.5729ZM84.6144 78.5776C84.7242 78.5568 84.83 78.5238 84.8495 78.5042C84.9019 78.4519 84.815 78.1961 84.6658 77.9627C84.4267 77.589 84.2568 76.9264 84.1449 75.9305C84.0372 74.9729 83.8803 74.2828 83.755 74.2157C83.6398 74.1541 83.3725 74.1716 83.256 74.2484C83.1084 74.3456 82.9534 74.5908 82.8173 74.942C82.5665 75.589 82.2845 76.0197 81.8338 76.4442C81.5134 76.746 81.1776 76.9645 80.7705 77.136C80.6372 77.1922 80.4861 77.2591 80.4349 77.2848C80.0514 77.4766 80.8537 78.0666 81.8416 78.3193C82.0705 78.3778 82.9505 78.5044 83.7165 78.5891C83.9912 78.6195 84.4229 78.6139 84.6144 78.5776V78.5776Z" fill="white"/>
<path d="M55.1421 81.4203C54.5642 81.4098 54.5428 81.4081 54.4615 81.366C54.3622 81.3145 54.1355 81.2295 53.9366 81.1691C53.7134 81.1013 53.289 81.038 52.4395 80.946C52.0082 80.8992 51.6363 80.8569 51.6129 80.8519L51.5703 80.8428L51.6192 80.7788C51.6814 80.6972 51.7938 80.6233 52.1308 80.4424C52.4245 80.2847 52.6085 80.167 52.8114 80.0071C53.0178 79.8443 53.4236 79.4366 53.5422 79.2729C53.6018 79.1907 53.7042 79.0511 53.7699 78.9627C53.844 78.863 53.9173 78.735 53.9632 78.625C54.0039 78.5276 54.0391 78.4456 54.0415 78.4428C54.0555 78.4268 54.378 78.3781 54.628 78.3542C54.7877 78.339 54.9813 78.3175 55.0582 78.3066C55.2654 78.277 56.1043 78.2816 56.6151 78.3152C56.8612 78.3313 57.1507 78.3493 57.2584 78.3552C57.8008 78.3848 58.4454 78.4485 58.6992 78.4975C58.7845 78.5139 58.805 78.5245 58.7978 78.5483C58.7373 78.7488 58.7501 78.8718 58.8658 79.1983C58.946 79.4249 59.0953 79.7299 59.3408 80.1689C59.5263 80.5005 59.5804 80.6187 59.6245 80.788C59.6445 80.8649 59.6794 80.98 59.702 81.0438C59.7407 81.1527 59.7414 81.1627 59.7128 81.2063C59.6961 81.2319 59.6824 81.2652 59.6824 81.2803C59.6824 81.3181 59.6299 81.323 58.8619 81.3559C57.3997 81.4186 56.1965 81.4395 55.1421 81.4204V81.4203Z" fill="white"/>
<path d="M66.5778 81.0513C66.3891 81.0402 66.3754 81.0365 66.32 80.9836C66.1175 80.7901 65.9337 80.0317 65.8724 79.1377C65.8521 78.8419 65.8633 78.5891 65.8989 78.5403C65.9122 78.5224 65.933 78.5159 65.9529 78.5235C65.9709 78.5305 66.0724 78.6425 66.1785 78.7726C66.3784 79.0177 66.5823 79.2264 66.7348 79.3422C66.9515 79.5068 67.2406 79.623 67.4832 79.6429C67.6688 79.6581 67.7254 79.6792 67.7991 79.7609C67.9389 79.9157 67.9868 80.1606 67.9771 80.6714C67.9735 80.867 67.9662 81.0312 67.9611 81.0361C67.9455 81.0511 66.7905 81.0638 66.5778 81.0513V81.0513Z" fill="white"/>
<path d="M7.26132 75.8113C1.48335 64.2276 0.296741 50.8881 3.9393 38.4664C7.58188 26.0447 15.7845 15.4585 26.9032 8.82956C38.0218 2.20062 51.235 0.0187605 63.8946 2.72118C76.5542 5.42362 87.7246 12.8107 95.1673 23.4019C102.61 33.9931 105.775 47.0059 104.028 59.8323C102.281 72.6586 95.7506 84.3508 85.7462 92.5655" stroke="white" stroke-width="2.13181"/>
</svg>
